G04 #@! TF.GenerationSoftware,KiCad,Pcbnew,7.0.7*
G04 #@! TF.CreationDate,2026-04-19T00:28:22+03:00*
G04 #@! TF.ProjectId,R2RDAC2026_REVIZE_II,52325244-4143-4323-9032-365f52455649,rev?*
G04 #@! TF.SameCoordinates,Original*
G04 #@! TF.FileFunction,Paste,Bot*
G04 #@! TF.FilePolarity,Positive*
%FSLAX46Y46*%
G04 Gerber Fmt 4.6, Leading zero omitted, Abs format (unit mm)*
G04 Created by KiCad (PCBNEW 7.0.7) date 2026-04-19 00:28:22*
%MOMM*%
%LPD*%
G01*
G04 APERTURE LIST*
G04 Aperture macros list*
%AMRoundRect*
0 Rectangle with rounded corners*
0 $1 Rounding radius*
0 $2 $3 $4 $5 $6 $7 $8 $9 X,Y pos of 4 corners*
0 Add a 4 corners polygon primitive as box body*
4,1,4,$2,$3,$4,$5,$6,$7,$8,$9,$2,$3,0*
0 Add four circle primitives for the rounded corners*
1,1,$1+$1,$2,$3*
1,1,$1+$1,$4,$5*
1,1,$1+$1,$6,$7*
1,1,$1+$1,$8,$9*
0 Add four rect primitives between the rounded corners*
20,1,$1+$1,$2,$3,$4,$5,0*
20,1,$1+$1,$4,$5,$6,$7,0*
20,1,$1+$1,$6,$7,$8,$9,0*
20,1,$1+$1,$8,$9,$2,$3,0*%
G04 Aperture macros list end*
%ADD10RoundRect,0.225000X0.250000X-0.225000X0.250000X0.225000X-0.250000X0.225000X-0.250000X-0.225000X0*%
%ADD11RoundRect,0.200000X0.200000X0.275000X-0.200000X0.275000X-0.200000X-0.275000X0.200000X-0.275000X0*%
%ADD12RoundRect,0.200000X-0.200000X-0.275000X0.200000X-0.275000X0.200000X0.275000X-0.200000X0.275000X0*%
%ADD13RoundRect,0.225000X0.225000X0.250000X-0.225000X0.250000X-0.225000X-0.250000X0.225000X-0.250000X0*%
%ADD14RoundRect,0.225000X-0.225000X-0.250000X0.225000X-0.250000X0.225000X0.250000X-0.225000X0.250000X0*%
%ADD15RoundRect,0.250000X-0.325000X-0.650000X0.325000X-0.650000X0.325000X0.650000X-0.325000X0.650000X0*%
%ADD16RoundRect,0.250000X0.325000X0.650000X-0.325000X0.650000X-0.325000X-0.650000X0.325000X-0.650000X0*%
%ADD17RoundRect,0.225000X-0.250000X0.225000X-0.250000X-0.225000X0.250000X-0.225000X0.250000X0.225000X0*%
%ADD18RoundRect,0.100000X-0.637500X-0.100000X0.637500X-0.100000X0.637500X0.100000X-0.637500X0.100000X0*%
%ADD19RoundRect,0.250000X-0.475000X0.250000X-0.475000X-0.250000X0.475000X-0.250000X0.475000X0.250000X0*%
%ADD20RoundRect,0.200000X0.275000X-0.200000X0.275000X0.200000X-0.275000X0.200000X-0.275000X-0.200000X0*%
%ADD21RoundRect,0.250000X0.650000X-0.325000X0.650000X0.325000X-0.650000X0.325000X-0.650000X-0.325000X0*%
%ADD22RoundRect,0.250000X-0.250000X0.250000X-0.250000X-0.250000X0.250000X-0.250000X0.250000X0.250000X0*%
%ADD23RoundRect,0.200000X-0.275000X0.200000X-0.275000X-0.200000X0.275000X-0.200000X0.275000X0.200000X0*%
%ADD24RoundRect,0.250000X0.250000X-0.250000X0.250000X0.250000X-0.250000X0.250000X-0.250000X-0.250000X0*%
%ADD25RoundRect,0.140000X-0.170000X0.140000X-0.170000X-0.140000X0.170000X-0.140000X0.170000X0.140000X0*%
%ADD26RoundRect,0.140000X0.170000X-0.140000X0.170000X0.140000X-0.170000X0.140000X-0.170000X-0.140000X0*%
%ADD27R,1.050000X0.600000*%
%ADD28RoundRect,0.140000X-0.140000X-0.170000X0.140000X-0.170000X0.140000X0.170000X-0.140000X0.170000X0*%
%ADD29RoundRect,0.140000X0.140000X0.170000X-0.140000X0.170000X-0.140000X-0.170000X0.140000X-0.170000X0*%
%ADD30R,0.600000X1.050000*%
%ADD31R,1.409700X0.355600*%
%ADD32RoundRect,0.250000X0.250000X0.475000X-0.250000X0.475000X-0.250000X-0.475000X0.250000X-0.475000X0*%
%ADD33RoundRect,0.250000X0.450000X0.425000X-0.450000X0.425000X-0.450000X-0.425000X0.450000X-0.425000X0*%
%ADD34RoundRect,0.162500X0.367500X0.162500X-0.367500X0.162500X-0.367500X-0.162500X0.367500X-0.162500X0*%
%ADD35RoundRect,0.250000X-0.250000X-0.475000X0.250000X-0.475000X0.250000X0.475000X-0.250000X0.475000X0*%
%ADD36RoundRect,0.150000X-0.825000X-0.150000X0.825000X-0.150000X0.825000X0.150000X-0.825000X0.150000X0*%
%ADD37RoundRect,0.250000X-0.450000X-0.425000X0.450000X-0.425000X0.450000X0.425000X-0.450000X0.425000X0*%
%ADD38RoundRect,0.250000X-0.312500X-1.450000X0.312500X-1.450000X0.312500X1.450000X-0.312500X1.450000X0*%
%ADD39RoundRect,0.250000X-0.425000X0.450000X-0.425000X-0.450000X0.425000X-0.450000X0.425000X0.450000X0*%
%ADD40RoundRect,0.140000X-0.219203X-0.021213X-0.021213X-0.219203X0.219203X0.021213X0.021213X0.219203X0*%
%ADD41RoundRect,0.250000X-0.650000X0.325000X-0.650000X-0.325000X0.650000X-0.325000X0.650000X0.325000X0*%
%ADD42RoundRect,0.250000X-1.000000X-0.650000X1.000000X-0.650000X1.000000X0.650000X-1.000000X0.650000X0*%
%ADD43R,2.000000X2.400000*%
%ADD44RoundRect,0.250000X0.475000X-0.250000X0.475000X0.250000X-0.475000X0.250000X-0.475000X-0.250000X0*%
G04 APERTURE END LIST*
D10*
X86461600Y-89852800D03*
X86461600Y-88302800D03*
D11*
X236003600Y-101968300D03*
X234353600Y-101968300D03*
X239153200Y-103720900D03*
X237503200Y-103720900D03*
X194957200Y-113830100D03*
X193307200Y-113830100D03*
D12*
X190119500Y-92481400D03*
X191769500Y-92481400D03*
X231216700Y-124637800D03*
X232866700Y-124637800D03*
X190132200Y-88938100D03*
X191782200Y-88938100D03*
D10*
X132588000Y-107505800D03*
X132588000Y-105955800D03*
D11*
X239153200Y-96748600D03*
X237503200Y-96748600D03*
D12*
X190132200Y-104940100D03*
X191782200Y-104940100D03*
D11*
X194982600Y-108496100D03*
X193332600Y-108496100D03*
D12*
X186957200Y-93941900D03*
X188607200Y-93941900D03*
D13*
X123736400Y-111125000D03*
X122186400Y-111125000D03*
D12*
X186957200Y-100914200D03*
X188607200Y-100914200D03*
D11*
X194982600Y-94284800D03*
X193332600Y-94284800D03*
X198119500Y-102870000D03*
X196469500Y-102870000D03*
D13*
X206515000Y-156565600D03*
X204965000Y-156565600D03*
D14*
X116547600Y-73609200D03*
X118097600Y-73609200D03*
D11*
X236003600Y-91541600D03*
X234353600Y-91541600D03*
D15*
X221711900Y-90466702D03*
X224661900Y-90466702D03*
D13*
X239281000Y-70916800D03*
X237731000Y-70916800D03*
D10*
X111861600Y-87643000D03*
X111861600Y-86093000D03*
D15*
X179636800Y-112183702D03*
X182586800Y-112183702D03*
D10*
X83553300Y-53721300D03*
X83553300Y-52171300D03*
D12*
X186969900Y-118351300D03*
X188619900Y-118351300D03*
D11*
X236003600Y-110705900D03*
X234353600Y-110705900D03*
D12*
X186969900Y-127228600D03*
X188619900Y-127228600D03*
D16*
X196343800Y-62788800D03*
X193393800Y-62788800D03*
D13*
X155117800Y-71247000D03*
X153567800Y-71247000D03*
D11*
X239153200Y-121170700D03*
X237503200Y-121170700D03*
D14*
X222427500Y-102501700D03*
X223977500Y-102501700D03*
D11*
X229704400Y-121932700D03*
X228054400Y-121932700D03*
D12*
X186957200Y-111366300D03*
X188607200Y-111366300D03*
X93815400Y-148475700D03*
X95465400Y-148475700D03*
X231216700Y-101968300D03*
X232866700Y-101968300D03*
D11*
X229704400Y-106311700D03*
X228054400Y-106311700D03*
D14*
X84835400Y-86842600D03*
X86385400Y-86842600D03*
D15*
X208084800Y-112094802D03*
X211034800Y-112094802D03*
D11*
X236016300Y-100241100D03*
X234366300Y-100241100D03*
D17*
X99390200Y-109562600D03*
X99390200Y-111112600D03*
D18*
X200036150Y-119536400D03*
X200036150Y-118886400D03*
X200036150Y-118236400D03*
X200036150Y-117586400D03*
X200036150Y-116936400D03*
X200036150Y-116286400D03*
X200036150Y-115636400D03*
X200036150Y-114986400D03*
X200036150Y-114336400D03*
X200036150Y-113686400D03*
X205761150Y-113686400D03*
X205761150Y-114336400D03*
X205761150Y-114986400D03*
X205761150Y-115636400D03*
X205761150Y-116286400D03*
X205761150Y-116936400D03*
X205761150Y-117586400D03*
X205761150Y-118236400D03*
X205761150Y-118886400D03*
X205761150Y-119536400D03*
D11*
X89750400Y-58877200D03*
X88100400Y-58877200D03*
D18*
X241137500Y-105235602D03*
X241137500Y-104585602D03*
X241137500Y-103935602D03*
X241137500Y-103285602D03*
X241137500Y-102635602D03*
X241137500Y-101985602D03*
X241137500Y-101335602D03*
X241137500Y-100685602D03*
X241137500Y-100035602D03*
X241137500Y-99385602D03*
X246862500Y-99385602D03*
X246862500Y-100035602D03*
X246862500Y-100685602D03*
X246862500Y-101335602D03*
X246862500Y-101985602D03*
X246862500Y-102635602D03*
X246862500Y-103285602D03*
X246862500Y-103935602D03*
X246862500Y-104585602D03*
X246862500Y-105235602D03*
D12*
X190132200Y-87147400D03*
X191782200Y-87147400D03*
D14*
X134746400Y-96977200D03*
X136296400Y-96977200D03*
D11*
X229704400Y-90741500D03*
X228054400Y-90741500D03*
D14*
X222414800Y-124650500D03*
X223964800Y-124650500D03*
D11*
X239153200Y-115951000D03*
X237503200Y-115951000D03*
D19*
X130378200Y-165750200D03*
X130378200Y-167650200D03*
D11*
X194982600Y-90703400D03*
X193332600Y-90703400D03*
X236016300Y-89789000D03*
X234366300Y-89789000D03*
D14*
X133413200Y-122910600D03*
X134963200Y-122910600D03*
D20*
X144754600Y-103288600D03*
X144754600Y-101638600D03*
D11*
X198093600Y-115049300D03*
X196443600Y-115049300D03*
X100062800Y-157784800D03*
X98412800Y-157784800D03*
X198094100Y-123774200D03*
X196444100Y-123774200D03*
D14*
X194043000Y-131191000D03*
X195593000Y-131191000D03*
D12*
X190132200Y-113817400D03*
X191782200Y-113817400D03*
D11*
X89750400Y-57277000D03*
X88100400Y-57277000D03*
D12*
X231216700Y-121158000D03*
X232866700Y-121158000D03*
D11*
X239153200Y-114211100D03*
X237503200Y-114211100D03*
D21*
X113868200Y-73026800D03*
X113868200Y-70076800D03*
D17*
X134315200Y-88836200D03*
X134315200Y-90386200D03*
D12*
X140246600Y-134797800D03*
X141896600Y-134797800D03*
X190132200Y-106718100D03*
X191782200Y-106718100D03*
X231216700Y-126377700D03*
X232866700Y-126377700D03*
D15*
X221724600Y-126890302D03*
X224674600Y-126890302D03*
D11*
X229704400Y-97663000D03*
X228054400Y-97663000D03*
D22*
X218313000Y-160750000D03*
X218313000Y-163250000D03*
D11*
X239153200Y-91528900D03*
X237503200Y-91528900D03*
X198094100Y-122034300D03*
X196444100Y-122034300D03*
D14*
X119798800Y-76631800D03*
X121348800Y-76631800D03*
D11*
X198106800Y-111582200D03*
X196456800Y-111582200D03*
D12*
X190132200Y-115595400D03*
X191782200Y-115595400D03*
D14*
X116547600Y-75336400D03*
X118097600Y-75336400D03*
D11*
X236003600Y-95008700D03*
X234353600Y-95008700D03*
D17*
X131673600Y-88607600D03*
X131673600Y-90157600D03*
D11*
X236003600Y-103720900D03*
X234353600Y-103720900D03*
D18*
X241137500Y-90673902D03*
X241137500Y-90023902D03*
X241137500Y-89373902D03*
X241137500Y-88723902D03*
X241137500Y-88073902D03*
X241137500Y-87423902D03*
X241137500Y-86773902D03*
X241137500Y-86123902D03*
X241137500Y-85473902D03*
X241137500Y-84823902D03*
X246862500Y-84823902D03*
X246862500Y-85473902D03*
X246862500Y-86123902D03*
X246862500Y-86773902D03*
X246862500Y-87423902D03*
X246862500Y-88073902D03*
X246862500Y-88723902D03*
X246862500Y-89373902D03*
X246862500Y-90023902D03*
X246862500Y-90673902D03*
D11*
X239165900Y-119443500D03*
X237515900Y-119443500D03*
D12*
X190132200Y-101371400D03*
X191782200Y-101371400D03*
D15*
X221711900Y-104944702D03*
X224661900Y-104944702D03*
D11*
X198093600Y-120307100D03*
X196443600Y-120307100D03*
D10*
X88519000Y-89725800D03*
X88519000Y-88175800D03*
D11*
X236003600Y-122897900D03*
X234353600Y-122897900D03*
D14*
X180352400Y-124117100D03*
X181902400Y-124117100D03*
D12*
X190144900Y-124498100D03*
X191794900Y-124498100D03*
X190132200Y-94272100D03*
X191782200Y-94272100D03*
D14*
X180314300Y-102285800D03*
X181864300Y-102285800D03*
D16*
X191136800Y-81889600D03*
X188186800Y-81889600D03*
D23*
X109982000Y-85992200D03*
X109982000Y-87642200D03*
D17*
X225044000Y-159956200D03*
X225044000Y-161506200D03*
D12*
X231216700Y-122897900D03*
X232866700Y-122897900D03*
X186944500Y-121881900D03*
X188594500Y-121881900D03*
D24*
X216027000Y-163250000D03*
X216027000Y-160750000D03*
D12*
X186957200Y-107873800D03*
X188607200Y-107873800D03*
D11*
X194957200Y-104927400D03*
X193307200Y-104927400D03*
X107745800Y-63373000D03*
X106095800Y-63373000D03*
X194931800Y-119202200D03*
X193281800Y-119202200D03*
D25*
X128828800Y-118315800D03*
X128828800Y-119275800D03*
D12*
X186957200Y-99174300D03*
X188607200Y-99174300D03*
D26*
X132588000Y-116177000D03*
X132588000Y-115217000D03*
D13*
X127457200Y-114731800D03*
X125907200Y-114731800D03*
D27*
X213636500Y-80273602D03*
X213636500Y-81223602D03*
X213636500Y-82173602D03*
X210936500Y-82173602D03*
X210936500Y-80273602D03*
D28*
X131475600Y-110210600D03*
X132435600Y-110210600D03*
D17*
X139319000Y-115531600D03*
X139319000Y-117081600D03*
D15*
X210916900Y-84573902D03*
X213866900Y-84573902D03*
D11*
X194969900Y-101384100D03*
X193319900Y-101384100D03*
X194931800Y-117411500D03*
X193281800Y-117411500D03*
X194957200Y-106692700D03*
X193307200Y-106692700D03*
D12*
X186957200Y-102654100D03*
X188607200Y-102654100D03*
D18*
X200036150Y-112174400D03*
X200036150Y-111524400D03*
X200036150Y-110874400D03*
X200036150Y-110224400D03*
X200036150Y-109574400D03*
X200036150Y-108924400D03*
X200036150Y-108274400D03*
X200036150Y-107624400D03*
X200036150Y-106974400D03*
X200036150Y-106324400D03*
X205761150Y-106324400D03*
X205761150Y-106974400D03*
X205761150Y-107624400D03*
X205761150Y-108274400D03*
X205761150Y-108924400D03*
X205761150Y-109574400D03*
X205761150Y-110224400D03*
X205761150Y-110874400D03*
X205761150Y-111524400D03*
X205761150Y-112174400D03*
D29*
X132560000Y-112522000D03*
X131600000Y-112522000D03*
D30*
X214116600Y-127821202D03*
X213166600Y-127821202D03*
X212216600Y-127821202D03*
X212216600Y-125121202D03*
X214116600Y-125121202D03*
D11*
X194969900Y-96075500D03*
X193319900Y-96075500D03*
D18*
X200036150Y-104935400D03*
X200036150Y-104285400D03*
X200036150Y-103635400D03*
X200036150Y-102985400D03*
X200036150Y-102335400D03*
X200036150Y-101685400D03*
X200036150Y-101035400D03*
X200036150Y-100385400D03*
X200036150Y-99735400D03*
X200036150Y-99085400D03*
X205761150Y-99085400D03*
X205761150Y-99735400D03*
X205761150Y-100385400D03*
X205761150Y-101035400D03*
X205761150Y-101685400D03*
X205761150Y-102335400D03*
X205761150Y-102985400D03*
X205761150Y-103635400D03*
X205761150Y-104285400D03*
X205761150Y-104935400D03*
D12*
X186957200Y-97421700D03*
X188607200Y-97421700D03*
D18*
X200036150Y-97696400D03*
X200036150Y-97046400D03*
X200036150Y-96396400D03*
X200036150Y-95746400D03*
X200036150Y-95096400D03*
X200036150Y-94446400D03*
X200036150Y-93796400D03*
X200036150Y-93146400D03*
X200036150Y-92496400D03*
X200036150Y-91846400D03*
X205761150Y-91846400D03*
X205761150Y-92496400D03*
X205761150Y-93146400D03*
X205761150Y-93796400D03*
X205761150Y-94446400D03*
X205761150Y-95096400D03*
X205761150Y-95746400D03*
X205761150Y-96396400D03*
X205761150Y-97046400D03*
X205761150Y-97696400D03*
D12*
X231216700Y-119392700D03*
X232866700Y-119392700D03*
D11*
X239165900Y-95021400D03*
X237515900Y-95021400D03*
D12*
X196444100Y-125514100D03*
X198094100Y-125514100D03*
D31*
X210074150Y-109492399D03*
X210074150Y-108842401D03*
X210074150Y-108192399D03*
X210074150Y-107542401D03*
X210074150Y-106892402D03*
X210074150Y-106242401D03*
X210074150Y-105592402D03*
X210074150Y-104942401D03*
X215979650Y-104942401D03*
X215979650Y-105592399D03*
X215979650Y-106242401D03*
X215979650Y-106892399D03*
X215979650Y-107542398D03*
X215979650Y-108192399D03*
X215979650Y-108842398D03*
X215979650Y-109492399D03*
D14*
X180275900Y-87998300D03*
X181825900Y-87998300D03*
D12*
X190132200Y-112052100D03*
X191782200Y-112052100D03*
D14*
X150202600Y-71196200D03*
X151752600Y-71196200D03*
D11*
X239153200Y-101968300D03*
X237503200Y-101968300D03*
D12*
X190132200Y-103162100D03*
X191782200Y-103162100D03*
D32*
X208442600Y-153898600D03*
X206542600Y-153898600D03*
D10*
X195262500Y-137884200D03*
X195262500Y-136334200D03*
D11*
X194969900Y-112064800D03*
X193319900Y-112064800D03*
X229704400Y-108038900D03*
X228054400Y-108038900D03*
D13*
X118123000Y-77089000D03*
X116573000Y-77089000D03*
D14*
X170306700Y-88912700D03*
X171856700Y-88912700D03*
D15*
X179649500Y-97705702D03*
X182599500Y-97705702D03*
D12*
X231216700Y-103695500D03*
X232866700Y-103695500D03*
D17*
X85801200Y-83121200D03*
X85801200Y-84671200D03*
D14*
X222414500Y-116751100D03*
X223964500Y-116751100D03*
D33*
X146815800Y-119456200D03*
X144115800Y-119456200D03*
D28*
X131854000Y-111429800D03*
X132814000Y-111429800D03*
D10*
X219379800Y-90360800D03*
X219379800Y-88810800D03*
D11*
X194957200Y-124498100D03*
X193307200Y-124498100D03*
D34*
X94039307Y-59578907D03*
X94039307Y-60528907D03*
X94039307Y-61478907D03*
X91839307Y-61478907D03*
X91839307Y-60528907D03*
X91839307Y-59578907D03*
D27*
X219012400Y-81122002D03*
X219012400Y-82072002D03*
X219012400Y-83022002D03*
X216312400Y-83022002D03*
X216312400Y-81122002D03*
D18*
X241137500Y-112423802D03*
X241137500Y-111773802D03*
X241137500Y-111123802D03*
X241137500Y-110473802D03*
X241137500Y-109823802D03*
X241137500Y-109173802D03*
X241137500Y-108523802D03*
X241137500Y-107873802D03*
X241137500Y-107223802D03*
X241137500Y-106573802D03*
X246862500Y-106573802D03*
X246862500Y-107223802D03*
X246862500Y-107873802D03*
X246862500Y-108523802D03*
X246862500Y-109173802D03*
X246862500Y-109823802D03*
X246862500Y-110473802D03*
X246862500Y-111123802D03*
X246862500Y-111773802D03*
X246862500Y-112423802D03*
D24*
X213563200Y-163250000D03*
X213563200Y-160750000D03*
D11*
X229691700Y-95935800D03*
X228041700Y-95935800D03*
X229704400Y-88988900D03*
X228054400Y-88988900D03*
D14*
X139636200Y-121183400D03*
X141186200Y-121183400D03*
D13*
X253936800Y-97447100D03*
X252386800Y-97447100D03*
D11*
X229704400Y-120205500D03*
X228054400Y-120205500D03*
X198119500Y-109855000D03*
X196469500Y-109855000D03*
X236016300Y-114198400D03*
X234366300Y-114198400D03*
D35*
X86045000Y-61379100D03*
X87945000Y-61379100D03*
D11*
X229704400Y-118452900D03*
X228054400Y-118452900D03*
X236016300Y-117678200D03*
X234366300Y-117678200D03*
X239153200Y-98501200D03*
X237503200Y-98501200D03*
D29*
X132247107Y-114051693D03*
X131287107Y-114051693D03*
D11*
X239165900Y-112471200D03*
X237515900Y-112471200D03*
X229717100Y-125387100D03*
X228067100Y-125387100D03*
D10*
X104190800Y-67869100D03*
X104190800Y-66319100D03*
D11*
X194944500Y-122745500D03*
X193294500Y-122745500D03*
D12*
X186957200Y-88709500D03*
X188607200Y-88709500D03*
D11*
X229704400Y-104584500D03*
X228054400Y-104584500D03*
D23*
X101600000Y-155626300D03*
X101600000Y-157276300D03*
D18*
X200036150Y-90457400D03*
X200036150Y-89807400D03*
X200036150Y-89157400D03*
X200036150Y-88507400D03*
X200036150Y-87857400D03*
X200036150Y-87207400D03*
X200036150Y-86557400D03*
X200036150Y-85907400D03*
X200036150Y-85257400D03*
X200036150Y-84607400D03*
X205761150Y-84607400D03*
X205761150Y-85257400D03*
X205761150Y-85907400D03*
X205761150Y-86557400D03*
X205761150Y-87207400D03*
X205761150Y-87857400D03*
X205761150Y-88507400D03*
X205761150Y-89157400D03*
X205761150Y-89807400D03*
X205761150Y-90457400D03*
D32*
X124851200Y-74599800D03*
X122951200Y-74599800D03*
D14*
X137858200Y-109118400D03*
X139408200Y-109118400D03*
D36*
X102517400Y-120497600D03*
X102517400Y-119227600D03*
X102517400Y-117957600D03*
X102517400Y-116687600D03*
X102517400Y-115417600D03*
X102517400Y-114147600D03*
X102517400Y-112877600D03*
X102517400Y-111607600D03*
X107467400Y-111607600D03*
X107467400Y-112877600D03*
X107467400Y-114147600D03*
X107467400Y-115417600D03*
X107467400Y-116687600D03*
X107467400Y-117957600D03*
X107467400Y-119227600D03*
X107467400Y-120497600D03*
D37*
X123618000Y-125247400D03*
X126318000Y-125247400D03*
D20*
X233857800Y-64172600D03*
X233857800Y-62522600D03*
D15*
X196365600Y-77978000D03*
X199315600Y-77978000D03*
X190498200Y-68478400D03*
X193448200Y-68478400D03*
D11*
X194957200Y-126276100D03*
X193307200Y-126276100D03*
X236003600Y-121158000D03*
X234353600Y-121158000D03*
X236003600Y-112445800D03*
X234353600Y-112445800D03*
X198132200Y-97675700D03*
X196482200Y-97675700D03*
X229704400Y-114960400D03*
X228054400Y-114960400D03*
D16*
X254595800Y-99852002D03*
X251645800Y-99852002D03*
X254405300Y-86517002D03*
X251455300Y-86517002D03*
D12*
X231216700Y-117652800D03*
X232866700Y-117652800D03*
D11*
X239153200Y-128168400D03*
X237503200Y-128168400D03*
D10*
X229196900Y-137960400D03*
X229196900Y-136410400D03*
D14*
X135267400Y-102285800D03*
X136817400Y-102285800D03*
D11*
X229704400Y-111506000D03*
X228054400Y-111506000D03*
X239165900Y-108953300D03*
X237515900Y-108953300D03*
X239140500Y-126428500D03*
X237490500Y-126428500D03*
X239153200Y-105473500D03*
X237503200Y-105473500D03*
D13*
X157404100Y-77482700D03*
X155854100Y-77482700D03*
D14*
X116547600Y-71958200D03*
X118097600Y-71958200D03*
D17*
X92506800Y-85839000D03*
X92506800Y-87389000D03*
D23*
X133019800Y-130721600D03*
X133019800Y-132371600D03*
D12*
X190132200Y-117373400D03*
X191782200Y-117373400D03*
D14*
X149783500Y-74460100D03*
X151333500Y-74460100D03*
D11*
X198132200Y-99402900D03*
X196482200Y-99402900D03*
D32*
X82534800Y-61925200D03*
X80634800Y-61925200D03*
D14*
X218046000Y-120065800D03*
X219596000Y-120065800D03*
D12*
X231216700Y-89725500D03*
X232866700Y-89725500D03*
D14*
X108406900Y-70904100D03*
X109956900Y-70904100D03*
D12*
X89268800Y-157683200D03*
X90918800Y-157683200D03*
D33*
X140745200Y-111607600D03*
X138045200Y-111607600D03*
D11*
X198144900Y-92468700D03*
X196494900Y-92468700D03*
D12*
X186957200Y-123621800D03*
X188607200Y-123621800D03*
D11*
X229704400Y-127127000D03*
X228054400Y-127127000D03*
D14*
X222376700Y-95377000D03*
X223926700Y-95377000D03*
D31*
X210074150Y-95942101D03*
X210074150Y-95292103D03*
X210074150Y-94642101D03*
X210074150Y-93992103D03*
X210074150Y-93342104D03*
X210074150Y-92692103D03*
X210074150Y-92042104D03*
X210074150Y-91392103D03*
X215979650Y-91392103D03*
X215979650Y-92042101D03*
X215979650Y-92692103D03*
X215979650Y-93342101D03*
X215979650Y-93992100D03*
X215979650Y-94642101D03*
X215979650Y-95292100D03*
X215979650Y-95942101D03*
D12*
X231216700Y-105448100D03*
X232866700Y-105448100D03*
D28*
X92029400Y-83616800D03*
X92989400Y-83616800D03*
D14*
X217893600Y-111556800D03*
X219443600Y-111556800D03*
D11*
X229704400Y-109778800D03*
X228054400Y-109778800D03*
D16*
X254710100Y-114545902D03*
X251760100Y-114545902D03*
D11*
X236003600Y-105460800D03*
X234353600Y-105460800D03*
X198119500Y-108102400D03*
X196469500Y-108102400D03*
D17*
X132435600Y-97002000D03*
X132435600Y-98552000D03*
D15*
X179636800Y-104932002D03*
X182586800Y-104932002D03*
D11*
X198157600Y-88976200D03*
X196507600Y-88976200D03*
D24*
X201193400Y-163250000D03*
X201193400Y-160750000D03*
D11*
X229704400Y-92468700D03*
X228054400Y-92468700D03*
D14*
X140525200Y-118694200D03*
X142075200Y-118694200D03*
D26*
X133604000Y-115313400D03*
X133604000Y-114353400D03*
D38*
X96744700Y-167208200D03*
X101019700Y-167208200D03*
D18*
X241137500Y-126877000D03*
X241137500Y-126227000D03*
X241137500Y-125577000D03*
X241137500Y-124927000D03*
X241137500Y-124277000D03*
X241137500Y-123627000D03*
X241137500Y-122977000D03*
X241137500Y-122327000D03*
X241137500Y-121677000D03*
X241137500Y-121027000D03*
X246862500Y-121027000D03*
X246862500Y-121677000D03*
X246862500Y-122327000D03*
X246862500Y-122977000D03*
X246862500Y-123627000D03*
X246862500Y-124277000D03*
X246862500Y-124927000D03*
X246862500Y-125577000D03*
X246862500Y-126227000D03*
X246862500Y-126877000D03*
D11*
X194982600Y-99631500D03*
X193332600Y-99631500D03*
D14*
X131508200Y-118922800D03*
X133058200Y-118922800D03*
D11*
X194944500Y-120954800D03*
X193294500Y-120954800D03*
X194944500Y-115608100D03*
X193294500Y-115608100D03*
D12*
X186969900Y-90462100D03*
X188619900Y-90462100D03*
X186957200Y-95681800D03*
X188607200Y-95681800D03*
X190132200Y-126263400D03*
X191782200Y-126263400D03*
D10*
X86448900Y-53683200D03*
X86448900Y-52133200D03*
D12*
X186957200Y-114846100D03*
X188607200Y-114846100D03*
D11*
X236003600Y-88023700D03*
X234353600Y-88023700D03*
D12*
X119748800Y-78409800D03*
X121398800Y-78409800D03*
D13*
X91795900Y-148488400D03*
X90245900Y-148488400D03*
D12*
X190132200Y-108483400D03*
X191782200Y-108483400D03*
X231216700Y-107200700D03*
X232866700Y-107200700D03*
D11*
X194995300Y-97866200D03*
X193345300Y-97866200D03*
X239165900Y-124688600D03*
X237515900Y-124688600D03*
D24*
X207010000Y-163250000D03*
X207010000Y-160750000D03*
D17*
X140995400Y-151802800D03*
X140995400Y-153352800D03*
D39*
X141833600Y-113991400D03*
X141833600Y-116691400D03*
D23*
X138303000Y-103797600D03*
X138303000Y-105447600D03*
D17*
X134670800Y-119824200D03*
X134670800Y-121374200D03*
D11*
X107708200Y-74345800D03*
X106058200Y-74345800D03*
D14*
X180314300Y-109867700D03*
X181864300Y-109867700D03*
D11*
X198132200Y-95948500D03*
X196482200Y-95948500D03*
X229704400Y-116687600D03*
X228054400Y-116687600D03*
X236016300Y-107200700D03*
X234366300Y-107200700D03*
D10*
X80327500Y-65544700D03*
X80327500Y-63994700D03*
D12*
X190144900Y-97828100D03*
X191794900Y-97828100D03*
X190132200Y-120929400D03*
X191782200Y-120929400D03*
D14*
X93713000Y-94818200D03*
X95263000Y-94818200D03*
D12*
X196456800Y-127254000D03*
X198106800Y-127254000D03*
D23*
X92354400Y-155804100D03*
X92354400Y-157454100D03*
D18*
X241137500Y-119662802D03*
X241137500Y-119012802D03*
X241137500Y-118362802D03*
X241137500Y-117712802D03*
X241137500Y-117062802D03*
X241137500Y-116412802D03*
X241137500Y-115762802D03*
X241137500Y-115112802D03*
X241137500Y-114462802D03*
X241137500Y-113812802D03*
X246862500Y-113812802D03*
X246862500Y-114462802D03*
X246862500Y-115112802D03*
X246862500Y-115762802D03*
X246862500Y-116412802D03*
X246862500Y-117062802D03*
X246862500Y-117712802D03*
X246862500Y-118362802D03*
X246862500Y-119012802D03*
X246862500Y-119662802D03*
D12*
X137833600Y-131445000D03*
X139483600Y-131445000D03*
D17*
X262712200Y-70345000D03*
X262712200Y-71895000D03*
D19*
X221792800Y-159730400D03*
X221792800Y-161630400D03*
D12*
X231216700Y-100215700D03*
X232866700Y-100215700D03*
D16*
X213104900Y-98556602D03*
X210154900Y-98556602D03*
D40*
X85995189Y-80638389D03*
X86674011Y-81317211D03*
D15*
X221750000Y-119549702D03*
X224700000Y-119549702D03*
D11*
X194995300Y-92494100D03*
X193345300Y-92494100D03*
D15*
X236777000Y-78130400D03*
X239727000Y-78130400D03*
D12*
X231216700Y-108940600D03*
X232866700Y-108940600D03*
D41*
X103555800Y-151941000D03*
X103555800Y-154891000D03*
D27*
X252794400Y-82404702D03*
X252794400Y-83354702D03*
X252794400Y-84304702D03*
X250094400Y-84304702D03*
X250094400Y-82404702D03*
D28*
X128834000Y-112496600D03*
X129794000Y-112496600D03*
D11*
X198132200Y-106362500D03*
X196482200Y-106362500D03*
X236016300Y-108953300D03*
X234366300Y-108953300D03*
D14*
X217830100Y-98107500D03*
X219380100Y-98107500D03*
X229323600Y-131013200D03*
X230873600Y-131013200D03*
D31*
X250232050Y-93160801D03*
X250232050Y-92510803D03*
X250232050Y-91860801D03*
X250232050Y-91210803D03*
X250232050Y-90560804D03*
X250232050Y-89910803D03*
X250232050Y-89260804D03*
X250232050Y-88610803D03*
X256137550Y-88610803D03*
X256137550Y-89260801D03*
X256137550Y-89910803D03*
X256137550Y-90560801D03*
X256137550Y-91210800D03*
X256137550Y-91860801D03*
X256137550Y-92510800D03*
X256137550Y-93160801D03*
D13*
X156045200Y-110007400D03*
X154495200Y-110007400D03*
X84214000Y-82880200D03*
X82664000Y-82880200D03*
D11*
X90461600Y-85242400D03*
X88811600Y-85242400D03*
X198093600Y-116801900D03*
X196443600Y-116801900D03*
X198094100Y-113309400D03*
X196444100Y-113309400D03*
D22*
X204800200Y-160750000D03*
X204800200Y-163250000D03*
D16*
X231091000Y-82042000D03*
X228141000Y-82042000D03*
D12*
X186957200Y-113106200D03*
X188607200Y-113106200D03*
X231216700Y-93218000D03*
X232866700Y-93218000D03*
D11*
X194969900Y-103149400D03*
X193319900Y-103149400D03*
D42*
X73879600Y-159185100D03*
X77879600Y-159185100D03*
D22*
X198882000Y-160750000D03*
X198882000Y-163250000D03*
D11*
X229691700Y-94208600D03*
X228041700Y-94208600D03*
D12*
X231216700Y-94970600D03*
X232866700Y-94970600D03*
D33*
X105337600Y-129413000D03*
X102637600Y-129413000D03*
D14*
X233692400Y-70916800D03*
X235242400Y-70916800D03*
D27*
X172560900Y-86235102D03*
X172560900Y-85285102D03*
X172560900Y-84335102D03*
X175260900Y-84335102D03*
X175260900Y-86235102D03*
D23*
X86360000Y-113856000D03*
X86360000Y-115506000D03*
D13*
X266230400Y-71882000D03*
X264680400Y-71882000D03*
D14*
X180338150Y-94771400D03*
X181888150Y-94771400D03*
D11*
X236003600Y-93268800D03*
X234353600Y-93268800D03*
D10*
X86512400Y-67640500D03*
X86512400Y-66090500D03*
D12*
X186957200Y-109626400D03*
X188607200Y-109626400D03*
X231216700Y-114173000D03*
X232866700Y-114173000D03*
X190132200Y-119151400D03*
X191782200Y-119151400D03*
D11*
X198144900Y-90728800D03*
X196494900Y-90728800D03*
D17*
X135940800Y-90385600D03*
X135940800Y-91935600D03*
D20*
X231292400Y-64223400D03*
X231292400Y-62573400D03*
D12*
X186957200Y-120142000D03*
X188607200Y-120142000D03*
X231216700Y-91478100D03*
X232866700Y-91478100D03*
D28*
X131650800Y-117246400D03*
X132610800Y-117246400D03*
D11*
X124929400Y-78892400D03*
X123279400Y-78892400D03*
D26*
X129717800Y-115364200D03*
X129717800Y-114404200D03*
D17*
X116674900Y-68782600D03*
X116674900Y-70332600D03*
D11*
X236003600Y-98488500D03*
X234353600Y-98488500D03*
D30*
X254439100Y-127465602D03*
X253489100Y-127465602D03*
X252539100Y-127465602D03*
X252539100Y-124765602D03*
X254439100Y-124765602D03*
D11*
X236003600Y-124637800D03*
X234353600Y-124637800D03*
X239165900Y-93268800D03*
X237515900Y-93268800D03*
D25*
X88290400Y-83035200D03*
X88290400Y-83995200D03*
D15*
X179687600Y-126864902D03*
X182637600Y-126864902D03*
D11*
X239153200Y-89789000D03*
X237503200Y-89789000D03*
X257593600Y-63271400D03*
X255943600Y-63271400D03*
D15*
X179713000Y-119524302D03*
X182663000Y-119524302D03*
D12*
X186957200Y-104394000D03*
X188607200Y-104394000D03*
D25*
X135280400Y-117249000D03*
X135280400Y-118209000D03*
D26*
X134543800Y-112214600D03*
X134543800Y-111254600D03*
D12*
X186957200Y-106133900D03*
X188607200Y-106133900D03*
D11*
X198132200Y-101142800D03*
X196482200Y-101142800D03*
D15*
X179662200Y-90454002D03*
X182612200Y-90454002D03*
D18*
X241137500Y-97951002D03*
X241137500Y-97301002D03*
X241137500Y-96651002D03*
X241137500Y-96001002D03*
X241137500Y-95351002D03*
X241137500Y-94701002D03*
X241137500Y-94051002D03*
X241137500Y-93401002D03*
X241137500Y-92751002D03*
X241137500Y-92101002D03*
X246862500Y-92101002D03*
X246862500Y-92751002D03*
X246862500Y-93401002D03*
X246862500Y-94051002D03*
X246862500Y-94701002D03*
X246862500Y-95351002D03*
X246862500Y-96001002D03*
X246862500Y-96651002D03*
X246862500Y-97301002D03*
X246862500Y-97951002D03*
D14*
X134759400Y-134848600D03*
X136309400Y-134848600D03*
D10*
X266560300Y-106108800D03*
X266560300Y-104558800D03*
D12*
X190132200Y-110274100D03*
X191782200Y-110274100D03*
D11*
X239153200Y-122910600D03*
X237503200Y-122910600D03*
D12*
X231216700Y-112433100D03*
X232866700Y-112433100D03*
D11*
X162915100Y-75514200D03*
X161265100Y-75514200D03*
D31*
X250232050Y-106648201D03*
X250232050Y-105998203D03*
X250232050Y-105348201D03*
X250232050Y-104698203D03*
X250232050Y-104048204D03*
X250232050Y-103398203D03*
X250232050Y-102748204D03*
X250232050Y-102098203D03*
X256137550Y-102098203D03*
X256137550Y-102748201D03*
X256137550Y-103398203D03*
X256137550Y-104048201D03*
X256137550Y-104698200D03*
X256137550Y-105348201D03*
X256137550Y-105998200D03*
X256137550Y-106648201D03*
D14*
X222452900Y-92710000D03*
X224002900Y-92710000D03*
D12*
X231216700Y-87985600D03*
X232866700Y-87985600D03*
D11*
X229704400Y-113233200D03*
X228054400Y-113233200D03*
D12*
X231216700Y-110680500D03*
X232866700Y-110680500D03*
D43*
X101807400Y-108610400D03*
X105507400Y-108610400D03*
D12*
X186969900Y-116598700D03*
X188619900Y-116598700D03*
D14*
X124904200Y-122199400D03*
X126454200Y-122199400D03*
D11*
X239153200Y-107213400D03*
X237503200Y-107213400D03*
D12*
X190144900Y-99606100D03*
X191794900Y-99606100D03*
D15*
X221724600Y-112183702D03*
X224674600Y-112183702D03*
D12*
X231216700Y-115925600D03*
X232866700Y-115925600D03*
D11*
X194995300Y-88938100D03*
X193345300Y-88938100D03*
X229717100Y-101117400D03*
X228067100Y-101117400D03*
D44*
X130403600Y-151089400D03*
X130403600Y-149189400D03*
D14*
X128460200Y-94081600D03*
X130010200Y-94081600D03*
D25*
X130479800Y-116588600D03*
X130479800Y-117548600D03*
D17*
X130835400Y-121424400D03*
X130835400Y-122974400D03*
X81165700Y-67131600D03*
X81165700Y-68681600D03*
D11*
X229717100Y-102857300D03*
X228067100Y-102857300D03*
D12*
X118783600Y-67716400D03*
X120433600Y-67716400D03*
D11*
X236003600Y-126377700D03*
X234353600Y-126377700D03*
D17*
X125044200Y-82867200D03*
X125044200Y-84417200D03*
D12*
X186957200Y-125361700D03*
X188607200Y-125361700D03*
D18*
X200036150Y-126877000D03*
X200036150Y-126227000D03*
X200036150Y-125577000D03*
X200036150Y-124927000D03*
X200036150Y-124277000D03*
X200036150Y-123627000D03*
X200036150Y-122977000D03*
X200036150Y-122327000D03*
X200036150Y-121677000D03*
X200036150Y-121027000D03*
X205761150Y-121027000D03*
X205761150Y-121677000D03*
X205761150Y-122327000D03*
X205761150Y-122977000D03*
X205761150Y-123627000D03*
X205761150Y-124277000D03*
X205761150Y-124927000D03*
X205761150Y-125577000D03*
X205761150Y-126227000D03*
X205761150Y-126877000D03*
D11*
X229717100Y-123659900D03*
X228067100Y-123659900D03*
X198094600Y-118541800D03*
X196444600Y-118541800D03*
X239165900Y-117678200D03*
X237515900Y-117678200D03*
D14*
X136842200Y-113563400D03*
X138392200Y-113563400D03*
D11*
X195020700Y-87147400D03*
X193370700Y-87147400D03*
X198144900Y-94208600D03*
X196494900Y-94208600D03*
D25*
X135407400Y-113388200D03*
X135407400Y-114348200D03*
D11*
X194969900Y-110248700D03*
X193319900Y-110248700D03*
X236003600Y-119418100D03*
X234353600Y-119418100D03*
X239153200Y-100228400D03*
X237503200Y-100228400D03*
X229704400Y-99390200D03*
X228054400Y-99390200D03*
D31*
X250232050Y-121265901D03*
X250232050Y-120615903D03*
X250232050Y-119965901D03*
X250232050Y-119315903D03*
X250232050Y-118665904D03*
X250232050Y-118015903D03*
X250232050Y-117365904D03*
X250232050Y-116715903D03*
X256137550Y-116715903D03*
X256137550Y-117365901D03*
X256137550Y-118015903D03*
X256137550Y-118665901D03*
X256137550Y-119315900D03*
X256137550Y-119965901D03*
X256137550Y-120615900D03*
X256137550Y-121265901D03*
D14*
X217741200Y-103530400D03*
X219291200Y-103530400D03*
D12*
X231216700Y-96723200D03*
X232866700Y-96723200D03*
D25*
X135102600Y-108641000D03*
X135102600Y-109601000D03*
D38*
X84476500Y-163220400D03*
X88751500Y-163220400D03*
D11*
X198106800Y-104609900D03*
X196456800Y-104609900D03*
X257695200Y-65430400D03*
X256045200Y-65430400D03*
D14*
X135279800Y-95275400D03*
X136829800Y-95275400D03*
D39*
X159867600Y-115464600D03*
X159867600Y-118164600D03*
D12*
X190132200Y-122720100D03*
X191782200Y-122720100D03*
D31*
X210074150Y-122493199D03*
X210074150Y-121843201D03*
X210074150Y-121193199D03*
X210074150Y-120543201D03*
X210074150Y-119893202D03*
X210074150Y-119243201D03*
X210074150Y-118593202D03*
X210074150Y-117943201D03*
X215979650Y-117943201D03*
X215979650Y-118593199D03*
X215979650Y-119243201D03*
X215979650Y-119893199D03*
X215979650Y-120543198D03*
X215979650Y-121193199D03*
X215979650Y-121843198D03*
X215979650Y-122493199D03*
D12*
X190132200Y-96050100D03*
X191782200Y-96050100D03*
D14*
X180364800Y-117094000D03*
X181914800Y-117094000D03*
D15*
X221711900Y-97667602D03*
X224661900Y-97667602D03*
D13*
X121729800Y-114198400D03*
X120179800Y-114198400D03*
D14*
X222440200Y-109626400D03*
X223990200Y-109626400D03*
D12*
X190132200Y-90716100D03*
X191782200Y-90716100D03*
X186957200Y-92189300D03*
X188607200Y-92189300D03*
D13*
X157581900Y-74815700D03*
X156031900Y-74815700D03*
D12*
X231216700Y-98475800D03*
X232866700Y-98475800D03*
D11*
X239165900Y-110718600D03*
X237515900Y-110718600D03*
X236003600Y-115938300D03*
X234353600Y-115938300D03*
D29*
X90091200Y-86614000D03*
X89131200Y-86614000D03*
D17*
X139496800Y-163944000D03*
X139496800Y-165494000D03*
D22*
X211251800Y-160750000D03*
X211251800Y-163250000D03*
D11*
X236016300Y-96748600D03*
X234366300Y-96748600D03*
M02*
