%TF.GenerationSoftware,KiCad,Pcbnew,7.0.7*%
%TF.CreationDate,2026-01-07T23:23:58+03:00*%
%TF.ProjectId,R2RDAC2026_REVIZE,52325244-4143-4323-9032-365f52455649,rev?*%
%TF.SameCoordinates,Original*%
%TF.FileFunction,Drillmap*%
%TF.FilePolarity,Positive*%
%FSLAX45Y45*%
G04 Gerber Fmt 4.5, Leading zero omitted, Abs format (unit mm)*
G04 Created by KiCad (PCBNEW 7.0.7) date 2026-01-07 23:23:58*
%MOMM*%
%LPD*%
G01*
G04 APERTURE LIST*
%ADD10C,0.100000*%
%ADD11C,0.200000*%
%ADD12C,0.160000*%
%ADD13C,0.210000*%
%ADD14C,0.310000*%
%ADD15C,0.320000*%
G04 APERTURE END LIST*
D10*
X5000000Y-5000000D02*
X29600000Y-5000000D01*
X29600000Y-17000000D02*
X5000000Y-17000000D01*
X5000000Y-17000000D02*
X5000000Y-5000000D01*
X29600000Y-5000000D02*
X29600000Y-17000000D01*
D11*
D10*
X6100320Y-16340000D02*
X6200320Y-16440000D01*
X6200320Y-16340000D02*
X6100320Y-16440000D01*
X6540320Y-16340000D02*
X6640320Y-16440000D01*
X6640320Y-16340000D02*
X6540320Y-16440000D01*
D12*
X23445900Y-5403000D02*
G75*
G03*
X23445900Y-5403000I-80000J0D01*
G01*
X24207900Y-5911000D02*
G75*
G03*
X24207900Y-5911000I-80000J0D01*
G01*
X26152900Y-5403000D02*
G75*
G03*
X26152900Y-5403000I-80000J0D01*
G01*
X26914900Y-5911000D02*
G75*
G03*
X26914900Y-5911000I-80000J0D01*
G01*
D13*
X10277290Y-5029490D02*
X10277290Y-5239490D01*
X10172290Y-5134490D02*
X10382290Y-5134490D01*
X11127290Y-5029490D02*
X11127290Y-5239490D01*
X11022290Y-5134490D02*
X11232290Y-5134490D01*
D14*
X11828603Y-5749673D02*
X11828603Y-5530467D01*
X11609397Y-5530467D01*
X11609397Y-5749673D01*
X11828603Y-5749673D01*
X12590603Y-5749673D02*
X12590603Y-5530467D01*
X12371397Y-5530467D01*
X12371397Y-5749673D01*
X12590603Y-5749673D01*
X13302363Y-5750943D02*
X13302363Y-5531737D01*
X13083157Y-5531737D01*
X13083157Y-5750943D01*
X13302363Y-5750943D01*
X14064363Y-5750943D02*
X14064363Y-5531737D01*
X13845157Y-5531737D01*
X13845157Y-5750943D01*
X14064363Y-5750943D01*
D15*
X6500000Y-6560000D02*
X6660000Y-6400000D01*
X6500000Y-6240000D01*
X6340000Y-6400000D01*
X6500000Y-6560000D01*
X6500000Y-13660000D02*
X6660000Y-13500000D01*
X6500000Y-13340000D01*
X6340000Y-13500000D01*
X6500000Y-13660000D01*
X6500000Y-15560000D02*
X6660000Y-15400000D01*
X6500000Y-15240000D01*
X6340000Y-15400000D01*
X6500000Y-15560000D01*
X7249160Y-5459710D02*
X7409160Y-5299710D01*
X7249160Y-5139710D01*
X7089160Y-5299710D01*
X7249160Y-5459710D01*
X7250160Y-11860510D02*
X7410160Y-11700510D01*
X7250160Y-11540510D01*
X7090160Y-11700510D01*
X7250160Y-11860510D01*
X9746060Y-11860510D02*
X9906060Y-11700510D01*
X9746060Y-11540510D01*
X9586060Y-11700510D01*
X9746060Y-11860510D01*
X9751060Y-5460980D02*
X9911060Y-5300980D01*
X9751060Y-5140980D01*
X9591060Y-5300980D01*
X9751060Y-5460980D01*
X13284200Y-14384000D02*
X13444200Y-14224000D01*
X13284200Y-14064000D01*
X13124200Y-14224000D01*
X13284200Y-14384000D01*
X15448280Y-9479260D02*
X15608280Y-9319260D01*
X15448280Y-9159260D01*
X15288280Y-9319260D01*
X15448280Y-9479260D01*
X17884000Y-8130000D02*
X18044000Y-7970000D01*
X17884000Y-7810000D01*
X17724000Y-7970000D01*
X17884000Y-8130000D01*
X17884000Y-16816000D02*
X18044000Y-16656000D01*
X17884000Y-16496000D01*
X17724000Y-16656000D01*
X17884000Y-16816000D01*
X22320000Y-16816000D02*
X22480000Y-16656000D01*
X22320000Y-16496000D01*
X22160000Y-16656000D01*
X22320000Y-16816000D01*
X26415000Y-16816000D02*
X26575000Y-16656000D01*
X26415000Y-16496000D01*
X26255000Y-16656000D01*
X26415000Y-16816000D01*
X27365000Y-9269000D02*
X27525000Y-9109000D01*
X27365000Y-8949000D01*
X27205000Y-9109000D01*
X27365000Y-9269000D01*
X27381000Y-12269000D02*
X27541000Y-12109000D01*
X27381000Y-11949000D01*
X27221000Y-12109000D01*
X27381000Y-12269000D01*
X28100000Y-5560000D02*
X28260000Y-5400000D01*
X28100000Y-5240000D01*
X27940000Y-5400000D01*
X28100000Y-5560000D01*
X28100000Y-9560000D02*
X28260000Y-9400000D01*
X28100000Y-9240000D01*
X27940000Y-9400000D01*
X28100000Y-9560000D01*
X28100000Y-13660000D02*
X28260000Y-13500000D01*
X28100000Y-13340000D01*
X27940000Y-13500000D01*
X28100000Y-13660000D01*
X28100000Y-16560000D02*
X28260000Y-16400000D01*
X28100000Y-16240000D01*
X27940000Y-16400000D01*
X28100000Y-16560000D01*
D11*
X5255777Y-17316484D02*
X5255777Y-17116484D01*
X5255777Y-17116484D02*
X5303396Y-17116484D01*
X5303396Y-17116484D02*
X5331967Y-17126008D01*
X5331967Y-17126008D02*
X5351015Y-17145055D01*
X5351015Y-17145055D02*
X5360539Y-17164103D01*
X5360539Y-17164103D02*
X5370063Y-17202198D01*
X5370063Y-17202198D02*
X5370063Y-17230770D01*
X5370063Y-17230770D02*
X5360539Y-17268865D01*
X5360539Y-17268865D02*
X5351015Y-17287912D01*
X5351015Y-17287912D02*
X5331967Y-17306960D01*
X5331967Y-17306960D02*
X5303396Y-17316484D01*
X5303396Y-17316484D02*
X5255777Y-17316484D01*
X5455777Y-17316484D02*
X5455777Y-17183150D01*
X5455777Y-17221246D02*
X5465301Y-17202198D01*
X5465301Y-17202198D02*
X5474824Y-17192674D01*
X5474824Y-17192674D02*
X5493872Y-17183150D01*
X5493872Y-17183150D02*
X5512920Y-17183150D01*
X5579586Y-17316484D02*
X5579586Y-17183150D01*
X5579586Y-17116484D02*
X5570063Y-17126008D01*
X5570063Y-17126008D02*
X5579586Y-17135531D01*
X5579586Y-17135531D02*
X5589110Y-17126008D01*
X5589110Y-17126008D02*
X5579586Y-17116484D01*
X5579586Y-17116484D02*
X5579586Y-17135531D01*
X5703396Y-17316484D02*
X5684348Y-17306960D01*
X5684348Y-17306960D02*
X5674824Y-17287912D01*
X5674824Y-17287912D02*
X5674824Y-17116484D01*
X5808158Y-17316484D02*
X5789110Y-17306960D01*
X5789110Y-17306960D02*
X5779586Y-17287912D01*
X5779586Y-17287912D02*
X5779586Y-17116484D01*
X6036729Y-17316484D02*
X6036729Y-17116484D01*
X6036729Y-17116484D02*
X6103396Y-17259341D01*
X6103396Y-17259341D02*
X6170062Y-17116484D01*
X6170062Y-17116484D02*
X6170062Y-17316484D01*
X6351015Y-17316484D02*
X6351015Y-17211722D01*
X6351015Y-17211722D02*
X6341491Y-17192674D01*
X6341491Y-17192674D02*
X6322443Y-17183150D01*
X6322443Y-17183150D02*
X6284348Y-17183150D01*
X6284348Y-17183150D02*
X6265301Y-17192674D01*
X6351015Y-17306960D02*
X6331967Y-17316484D01*
X6331967Y-17316484D02*
X6284348Y-17316484D01*
X6284348Y-17316484D02*
X6265301Y-17306960D01*
X6265301Y-17306960D02*
X6255777Y-17287912D01*
X6255777Y-17287912D02*
X6255777Y-17268865D01*
X6255777Y-17268865D02*
X6265301Y-17249817D01*
X6265301Y-17249817D02*
X6284348Y-17240293D01*
X6284348Y-17240293D02*
X6331967Y-17240293D01*
X6331967Y-17240293D02*
X6351015Y-17230770D01*
X6446253Y-17183150D02*
X6446253Y-17383150D01*
X6446253Y-17192674D02*
X6465301Y-17183150D01*
X6465301Y-17183150D02*
X6503396Y-17183150D01*
X6503396Y-17183150D02*
X6522443Y-17192674D01*
X6522443Y-17192674D02*
X6531967Y-17202198D01*
X6531967Y-17202198D02*
X6541491Y-17221246D01*
X6541491Y-17221246D02*
X6541491Y-17278389D01*
X6541491Y-17278389D02*
X6531967Y-17297436D01*
X6531967Y-17297436D02*
X6522443Y-17306960D01*
X6522443Y-17306960D02*
X6503396Y-17316484D01*
X6503396Y-17316484D02*
X6465301Y-17316484D01*
X6465301Y-17316484D02*
X6446253Y-17306960D01*
X6627205Y-17297436D02*
X6636729Y-17306960D01*
X6636729Y-17306960D02*
X6627205Y-17316484D01*
X6627205Y-17316484D02*
X6617682Y-17306960D01*
X6617682Y-17306960D02*
X6627205Y-17297436D01*
X6627205Y-17297436D02*
X6627205Y-17316484D01*
X6627205Y-17192674D02*
X6636729Y-17202198D01*
X6636729Y-17202198D02*
X6627205Y-17211722D01*
X6627205Y-17211722D02*
X6617682Y-17202198D01*
X6617682Y-17202198D02*
X6627205Y-17192674D01*
X6627205Y-17192674D02*
X6627205Y-17211722D01*
D10*
X4895000Y-17595000D02*
X4995000Y-17695000D01*
X4995000Y-17595000D02*
X4895000Y-17695000D01*
D11*
X5360539Y-17736484D02*
X5246253Y-17736484D01*
X5303396Y-17736484D02*
X5303396Y-17536484D01*
X5303396Y-17536484D02*
X5284348Y-17565055D01*
X5284348Y-17565055D02*
X5265301Y-17584103D01*
X5265301Y-17584103D02*
X5246253Y-17593627D01*
X5446253Y-17717436D02*
X5455777Y-17726960D01*
X5455777Y-17726960D02*
X5446253Y-17736484D01*
X5446253Y-17736484D02*
X5436729Y-17726960D01*
X5436729Y-17726960D02*
X5446253Y-17717436D01*
X5446253Y-17717436D02*
X5446253Y-17736484D01*
X5579586Y-17536484D02*
X5598634Y-17536484D01*
X5598634Y-17536484D02*
X5617682Y-17546008D01*
X5617682Y-17546008D02*
X5627205Y-17555531D01*
X5627205Y-17555531D02*
X5636729Y-17574579D01*
X5636729Y-17574579D02*
X5646253Y-17612674D01*
X5646253Y-17612674D02*
X5646253Y-17660293D01*
X5646253Y-17660293D02*
X5636729Y-17698389D01*
X5636729Y-17698389D02*
X5627205Y-17717436D01*
X5627205Y-17717436D02*
X5617682Y-17726960D01*
X5617682Y-17726960D02*
X5598634Y-17736484D01*
X5598634Y-17736484D02*
X5579586Y-17736484D01*
X5579586Y-17736484D02*
X5560539Y-17726960D01*
X5560539Y-17726960D02*
X5551015Y-17717436D01*
X5551015Y-17717436D02*
X5541491Y-17698389D01*
X5541491Y-17698389D02*
X5531967Y-17660293D01*
X5531967Y-17660293D02*
X5531967Y-17612674D01*
X5531967Y-17612674D02*
X5541491Y-17574579D01*
X5541491Y-17574579D02*
X5551015Y-17555531D01*
X5551015Y-17555531D02*
X5560539Y-17546008D01*
X5560539Y-17546008D02*
X5579586Y-17536484D01*
X5770062Y-17536484D02*
X5789110Y-17536484D01*
X5789110Y-17536484D02*
X5808158Y-17546008D01*
X5808158Y-17546008D02*
X5817682Y-17555531D01*
X5817682Y-17555531D02*
X5827205Y-17574579D01*
X5827205Y-17574579D02*
X5836729Y-17612674D01*
X5836729Y-17612674D02*
X5836729Y-17660293D01*
X5836729Y-17660293D02*
X5827205Y-17698389D01*
X5827205Y-17698389D02*
X5817682Y-17717436D01*
X5817682Y-17717436D02*
X5808158Y-17726960D01*
X5808158Y-17726960D02*
X5789110Y-17736484D01*
X5789110Y-17736484D02*
X5770062Y-17736484D01*
X5770062Y-17736484D02*
X5751015Y-17726960D01*
X5751015Y-17726960D02*
X5741491Y-17717436D01*
X5741491Y-17717436D02*
X5731967Y-17698389D01*
X5731967Y-17698389D02*
X5722443Y-17660293D01*
X5722443Y-17660293D02*
X5722443Y-17612674D01*
X5722443Y-17612674D02*
X5731967Y-17574579D01*
X5731967Y-17574579D02*
X5741491Y-17555531D01*
X5741491Y-17555531D02*
X5751015Y-17546008D01*
X5751015Y-17546008D02*
X5770062Y-17536484D01*
X5960539Y-17536484D02*
X5979586Y-17536484D01*
X5979586Y-17536484D02*
X5998634Y-17546008D01*
X5998634Y-17546008D02*
X6008158Y-17555531D01*
X6008158Y-17555531D02*
X6017682Y-17574579D01*
X6017682Y-17574579D02*
X6027205Y-17612674D01*
X6027205Y-17612674D02*
X6027205Y-17660293D01*
X6027205Y-17660293D02*
X6017682Y-17698389D01*
X6017682Y-17698389D02*
X6008158Y-17717436D01*
X6008158Y-17717436D02*
X5998634Y-17726960D01*
X5998634Y-17726960D02*
X5979586Y-17736484D01*
X5979586Y-17736484D02*
X5960539Y-17736484D01*
X5960539Y-17736484D02*
X5941491Y-17726960D01*
X5941491Y-17726960D02*
X5931967Y-17717436D01*
X5931967Y-17717436D02*
X5922443Y-17698389D01*
X5922443Y-17698389D02*
X5912920Y-17660293D01*
X5912920Y-17660293D02*
X5912920Y-17612674D01*
X5912920Y-17612674D02*
X5922443Y-17574579D01*
X5922443Y-17574579D02*
X5931967Y-17555531D01*
X5931967Y-17555531D02*
X5941491Y-17546008D01*
X5941491Y-17546008D02*
X5960539Y-17536484D01*
X6112920Y-17736484D02*
X6112920Y-17603150D01*
X6112920Y-17622198D02*
X6122443Y-17612674D01*
X6122443Y-17612674D02*
X6141491Y-17603150D01*
X6141491Y-17603150D02*
X6170063Y-17603150D01*
X6170063Y-17603150D02*
X6189110Y-17612674D01*
X6189110Y-17612674D02*
X6198634Y-17631722D01*
X6198634Y-17631722D02*
X6198634Y-17736484D01*
X6198634Y-17631722D02*
X6208158Y-17612674D01*
X6208158Y-17612674D02*
X6227205Y-17603150D01*
X6227205Y-17603150D02*
X6255777Y-17603150D01*
X6255777Y-17603150D02*
X6274824Y-17612674D01*
X6274824Y-17612674D02*
X6284348Y-17631722D01*
X6284348Y-17631722D02*
X6284348Y-17736484D01*
X6379586Y-17736484D02*
X6379586Y-17603150D01*
X6379586Y-17622198D02*
X6389110Y-17612674D01*
X6389110Y-17612674D02*
X6408158Y-17603150D01*
X6408158Y-17603150D02*
X6436729Y-17603150D01*
X6436729Y-17603150D02*
X6455777Y-17612674D01*
X6455777Y-17612674D02*
X6465301Y-17631722D01*
X6465301Y-17631722D02*
X6465301Y-17736484D01*
X6465301Y-17631722D02*
X6474824Y-17612674D01*
X6474824Y-17612674D02*
X6493872Y-17603150D01*
X6493872Y-17603150D02*
X6522443Y-17603150D01*
X6522443Y-17603150D02*
X6541491Y-17612674D01*
X6541491Y-17612674D02*
X6551015Y-17631722D01*
X6551015Y-17631722D02*
X6551015Y-17736484D01*
X6941491Y-17526960D02*
X6770063Y-17784103D01*
X7198634Y-17536484D02*
X7217682Y-17536484D01*
X7217682Y-17536484D02*
X7236729Y-17546008D01*
X7236729Y-17546008D02*
X7246253Y-17555531D01*
X7246253Y-17555531D02*
X7255777Y-17574579D01*
X7255777Y-17574579D02*
X7265301Y-17612674D01*
X7265301Y-17612674D02*
X7265301Y-17660293D01*
X7265301Y-17660293D02*
X7255777Y-17698389D01*
X7255777Y-17698389D02*
X7246253Y-17717436D01*
X7246253Y-17717436D02*
X7236729Y-17726960D01*
X7236729Y-17726960D02*
X7217682Y-17736484D01*
X7217682Y-17736484D02*
X7198634Y-17736484D01*
X7198634Y-17736484D02*
X7179586Y-17726960D01*
X7179586Y-17726960D02*
X7170063Y-17717436D01*
X7170063Y-17717436D02*
X7160539Y-17698389D01*
X7160539Y-17698389D02*
X7151015Y-17660293D01*
X7151015Y-17660293D02*
X7151015Y-17612674D01*
X7151015Y-17612674D02*
X7160539Y-17574579D01*
X7160539Y-17574579D02*
X7170063Y-17555531D01*
X7170063Y-17555531D02*
X7179586Y-17546008D01*
X7179586Y-17546008D02*
X7198634Y-17536484D01*
X7351015Y-17717436D02*
X7360539Y-17726960D01*
X7360539Y-17726960D02*
X7351015Y-17736484D01*
X7351015Y-17736484D02*
X7341491Y-17726960D01*
X7341491Y-17726960D02*
X7351015Y-17717436D01*
X7351015Y-17717436D02*
X7351015Y-17736484D01*
X7484348Y-17536484D02*
X7503396Y-17536484D01*
X7503396Y-17536484D02*
X7522444Y-17546008D01*
X7522444Y-17546008D02*
X7531967Y-17555531D01*
X7531967Y-17555531D02*
X7541491Y-17574579D01*
X7541491Y-17574579D02*
X7551015Y-17612674D01*
X7551015Y-17612674D02*
X7551015Y-17660293D01*
X7551015Y-17660293D02*
X7541491Y-17698389D01*
X7541491Y-17698389D02*
X7531967Y-17717436D01*
X7531967Y-17717436D02*
X7522444Y-17726960D01*
X7522444Y-17726960D02*
X7503396Y-17736484D01*
X7503396Y-17736484D02*
X7484348Y-17736484D01*
X7484348Y-17736484D02*
X7465301Y-17726960D01*
X7465301Y-17726960D02*
X7455777Y-17717436D01*
X7455777Y-17717436D02*
X7446253Y-17698389D01*
X7446253Y-17698389D02*
X7436729Y-17660293D01*
X7436729Y-17660293D02*
X7436729Y-17612674D01*
X7436729Y-17612674D02*
X7446253Y-17574579D01*
X7446253Y-17574579D02*
X7455777Y-17555531D01*
X7455777Y-17555531D02*
X7465301Y-17546008D01*
X7465301Y-17546008D02*
X7484348Y-17536484D01*
X7617682Y-17536484D02*
X7741491Y-17536484D01*
X7741491Y-17536484D02*
X7674825Y-17612674D01*
X7674825Y-17612674D02*
X7703396Y-17612674D01*
X7703396Y-17612674D02*
X7722444Y-17622198D01*
X7722444Y-17622198D02*
X7731967Y-17631722D01*
X7731967Y-17631722D02*
X7741491Y-17650770D01*
X7741491Y-17650770D02*
X7741491Y-17698389D01*
X7741491Y-17698389D02*
X7731967Y-17717436D01*
X7731967Y-17717436D02*
X7722444Y-17726960D01*
X7722444Y-17726960D02*
X7703396Y-17736484D01*
X7703396Y-17736484D02*
X7646253Y-17736484D01*
X7646253Y-17736484D02*
X7627206Y-17726960D01*
X7627206Y-17726960D02*
X7617682Y-17717436D01*
X7836729Y-17736484D02*
X7874825Y-17736484D01*
X7874825Y-17736484D02*
X7893872Y-17726960D01*
X7893872Y-17726960D02*
X7903396Y-17717436D01*
X7903396Y-17717436D02*
X7922444Y-17688865D01*
X7922444Y-17688865D02*
X7931967Y-17650770D01*
X7931967Y-17650770D02*
X7931967Y-17574579D01*
X7931967Y-17574579D02*
X7922444Y-17555531D01*
X7922444Y-17555531D02*
X7912920Y-17546008D01*
X7912920Y-17546008D02*
X7893872Y-17536484D01*
X7893872Y-17536484D02*
X7855777Y-17536484D01*
X7855777Y-17536484D02*
X7836729Y-17546008D01*
X7836729Y-17546008D02*
X7827206Y-17555531D01*
X7827206Y-17555531D02*
X7817682Y-17574579D01*
X7817682Y-17574579D02*
X7817682Y-17622198D01*
X7817682Y-17622198D02*
X7827206Y-17641246D01*
X7827206Y-17641246D02*
X7836729Y-17650770D01*
X7836729Y-17650770D02*
X7855777Y-17660293D01*
X7855777Y-17660293D02*
X7893872Y-17660293D01*
X7893872Y-17660293D02*
X7912920Y-17650770D01*
X7912920Y-17650770D02*
X7922444Y-17641246D01*
X7922444Y-17641246D02*
X7931967Y-17622198D01*
X8103396Y-17603150D02*
X8103396Y-17736484D01*
X8055777Y-17526960D02*
X8008158Y-17669817D01*
X8008158Y-17669817D02*
X8131967Y-17669817D01*
X8198634Y-17536484D02*
X8198634Y-17574579D01*
X8274825Y-17536484D02*
X8274825Y-17574579D01*
X8570063Y-17812674D02*
X8560539Y-17803150D01*
X8560539Y-17803150D02*
X8541491Y-17774579D01*
X8541491Y-17774579D02*
X8531968Y-17755531D01*
X8531968Y-17755531D02*
X8522444Y-17726960D01*
X8522444Y-17726960D02*
X8512920Y-17679341D01*
X8512920Y-17679341D02*
X8512920Y-17641246D01*
X8512920Y-17641246D02*
X8522444Y-17593627D01*
X8522444Y-17593627D02*
X8531968Y-17565055D01*
X8531968Y-17565055D02*
X8541491Y-17546008D01*
X8541491Y-17546008D02*
X8560539Y-17517436D01*
X8560539Y-17517436D02*
X8570063Y-17507912D01*
X8636730Y-17555531D02*
X8646253Y-17546008D01*
X8646253Y-17546008D02*
X8665301Y-17536484D01*
X8665301Y-17536484D02*
X8712920Y-17536484D01*
X8712920Y-17536484D02*
X8731968Y-17546008D01*
X8731968Y-17546008D02*
X8741491Y-17555531D01*
X8741491Y-17555531D02*
X8751015Y-17574579D01*
X8751015Y-17574579D02*
X8751015Y-17593627D01*
X8751015Y-17593627D02*
X8741491Y-17622198D01*
X8741491Y-17622198D02*
X8627206Y-17736484D01*
X8627206Y-17736484D02*
X8751015Y-17736484D01*
X8989111Y-17736484D02*
X8989111Y-17536484D01*
X9074825Y-17736484D02*
X9074825Y-17631722D01*
X9074825Y-17631722D02*
X9065301Y-17612674D01*
X9065301Y-17612674D02*
X9046253Y-17603150D01*
X9046253Y-17603150D02*
X9017682Y-17603150D01*
X9017682Y-17603150D02*
X8998634Y-17612674D01*
X8998634Y-17612674D02*
X8989111Y-17622198D01*
X9198634Y-17736484D02*
X9179587Y-17726960D01*
X9179587Y-17726960D02*
X9170063Y-17717436D01*
X9170063Y-17717436D02*
X9160539Y-17698389D01*
X9160539Y-17698389D02*
X9160539Y-17641246D01*
X9160539Y-17641246D02*
X9170063Y-17622198D01*
X9170063Y-17622198D02*
X9179587Y-17612674D01*
X9179587Y-17612674D02*
X9198634Y-17603150D01*
X9198634Y-17603150D02*
X9227206Y-17603150D01*
X9227206Y-17603150D02*
X9246253Y-17612674D01*
X9246253Y-17612674D02*
X9255777Y-17622198D01*
X9255777Y-17622198D02*
X9265301Y-17641246D01*
X9265301Y-17641246D02*
X9265301Y-17698389D01*
X9265301Y-17698389D02*
X9255777Y-17717436D01*
X9255777Y-17717436D02*
X9246253Y-17726960D01*
X9246253Y-17726960D02*
X9227206Y-17736484D01*
X9227206Y-17736484D02*
X9198634Y-17736484D01*
X9379587Y-17736484D02*
X9360539Y-17726960D01*
X9360539Y-17726960D02*
X9351015Y-17707912D01*
X9351015Y-17707912D02*
X9351015Y-17536484D01*
X9531968Y-17726960D02*
X9512920Y-17736484D01*
X9512920Y-17736484D02*
X9474825Y-17736484D01*
X9474825Y-17736484D02*
X9455777Y-17726960D01*
X9455777Y-17726960D02*
X9446253Y-17707912D01*
X9446253Y-17707912D02*
X9446253Y-17631722D01*
X9446253Y-17631722D02*
X9455777Y-17612674D01*
X9455777Y-17612674D02*
X9474825Y-17603150D01*
X9474825Y-17603150D02*
X9512920Y-17603150D01*
X9512920Y-17603150D02*
X9531968Y-17612674D01*
X9531968Y-17612674D02*
X9541492Y-17631722D01*
X9541492Y-17631722D02*
X9541492Y-17650770D01*
X9541492Y-17650770D02*
X9446253Y-17669817D01*
X9617682Y-17726960D02*
X9636730Y-17736484D01*
X9636730Y-17736484D02*
X9674825Y-17736484D01*
X9674825Y-17736484D02*
X9693873Y-17726960D01*
X9693873Y-17726960D02*
X9703396Y-17707912D01*
X9703396Y-17707912D02*
X9703396Y-17698389D01*
X9703396Y-17698389D02*
X9693873Y-17679341D01*
X9693873Y-17679341D02*
X9674825Y-17669817D01*
X9674825Y-17669817D02*
X9646253Y-17669817D01*
X9646253Y-17669817D02*
X9627206Y-17660293D01*
X9627206Y-17660293D02*
X9617682Y-17641246D01*
X9617682Y-17641246D02*
X9617682Y-17631722D01*
X9617682Y-17631722D02*
X9627206Y-17612674D01*
X9627206Y-17612674D02*
X9646253Y-17603150D01*
X9646253Y-17603150D02*
X9674825Y-17603150D01*
X9674825Y-17603150D02*
X9693873Y-17612674D01*
X9770063Y-17812674D02*
X9779587Y-17803150D01*
X9779587Y-17803150D02*
X9798634Y-17774579D01*
X9798634Y-17774579D02*
X9808158Y-17755531D01*
X9808158Y-17755531D02*
X9817682Y-17726960D01*
X9817682Y-17726960D02*
X9827206Y-17679341D01*
X9827206Y-17679341D02*
X9827206Y-17641246D01*
X9827206Y-17641246D02*
X9817682Y-17593627D01*
X9817682Y-17593627D02*
X9808158Y-17565055D01*
X9808158Y-17565055D02*
X9798634Y-17546008D01*
X9798634Y-17546008D02*
X9779587Y-17517436D01*
X9779587Y-17517436D02*
X9770063Y-17507912D01*
X10131968Y-17812674D02*
X10122444Y-17803150D01*
X10122444Y-17803150D02*
X10103396Y-17774579D01*
X10103396Y-17774579D02*
X10093873Y-17755531D01*
X10093873Y-17755531D02*
X10084349Y-17726960D01*
X10084349Y-17726960D02*
X10074825Y-17679341D01*
X10074825Y-17679341D02*
X10074825Y-17641246D01*
X10074825Y-17641246D02*
X10084349Y-17593627D01*
X10084349Y-17593627D02*
X10093873Y-17565055D01*
X10093873Y-17565055D02*
X10103396Y-17546008D01*
X10103396Y-17546008D02*
X10122444Y-17517436D01*
X10122444Y-17517436D02*
X10131968Y-17507912D01*
X10208158Y-17603150D02*
X10208158Y-17736484D01*
X10208158Y-17622198D02*
X10217682Y-17612674D01*
X10217682Y-17612674D02*
X10236730Y-17603150D01*
X10236730Y-17603150D02*
X10265301Y-17603150D01*
X10265301Y-17603150D02*
X10284349Y-17612674D01*
X10284349Y-17612674D02*
X10293873Y-17631722D01*
X10293873Y-17631722D02*
X10293873Y-17736484D01*
X10417682Y-17736484D02*
X10398634Y-17726960D01*
X10398634Y-17726960D02*
X10389111Y-17717436D01*
X10389111Y-17717436D02*
X10379587Y-17698389D01*
X10379587Y-17698389D02*
X10379587Y-17641246D01*
X10379587Y-17641246D02*
X10389111Y-17622198D01*
X10389111Y-17622198D02*
X10398634Y-17612674D01*
X10398634Y-17612674D02*
X10417682Y-17603150D01*
X10417682Y-17603150D02*
X10446254Y-17603150D01*
X10446254Y-17603150D02*
X10465301Y-17612674D01*
X10465301Y-17612674D02*
X10474825Y-17622198D01*
X10474825Y-17622198D02*
X10484349Y-17641246D01*
X10484349Y-17641246D02*
X10484349Y-17698389D01*
X10484349Y-17698389D02*
X10474825Y-17717436D01*
X10474825Y-17717436D02*
X10465301Y-17726960D01*
X10465301Y-17726960D02*
X10446254Y-17736484D01*
X10446254Y-17736484D02*
X10417682Y-17736484D01*
X10541492Y-17603150D02*
X10617682Y-17603150D01*
X10570063Y-17536484D02*
X10570063Y-17707912D01*
X10570063Y-17707912D02*
X10579587Y-17726960D01*
X10579587Y-17726960D02*
X10598634Y-17736484D01*
X10598634Y-17736484D02*
X10617682Y-17736484D01*
X10836730Y-17603150D02*
X10836730Y-17803150D01*
X10836730Y-17612674D02*
X10855777Y-17603150D01*
X10855777Y-17603150D02*
X10893873Y-17603150D01*
X10893873Y-17603150D02*
X10912920Y-17612674D01*
X10912920Y-17612674D02*
X10922444Y-17622198D01*
X10922444Y-17622198D02*
X10931968Y-17641246D01*
X10931968Y-17641246D02*
X10931968Y-17698389D01*
X10931968Y-17698389D02*
X10922444Y-17717436D01*
X10922444Y-17717436D02*
X10912920Y-17726960D01*
X10912920Y-17726960D02*
X10893873Y-17736484D01*
X10893873Y-17736484D02*
X10855777Y-17736484D01*
X10855777Y-17736484D02*
X10836730Y-17726960D01*
X11046254Y-17736484D02*
X11027206Y-17726960D01*
X11027206Y-17726960D02*
X11017682Y-17707912D01*
X11017682Y-17707912D02*
X11017682Y-17536484D01*
X11208158Y-17736484D02*
X11208158Y-17631722D01*
X11208158Y-17631722D02*
X11198634Y-17612674D01*
X11198634Y-17612674D02*
X11179587Y-17603150D01*
X11179587Y-17603150D02*
X11141492Y-17603150D01*
X11141492Y-17603150D02*
X11122444Y-17612674D01*
X11208158Y-17726960D02*
X11189111Y-17736484D01*
X11189111Y-17736484D02*
X11141492Y-17736484D01*
X11141492Y-17736484D02*
X11122444Y-17726960D01*
X11122444Y-17726960D02*
X11112920Y-17707912D01*
X11112920Y-17707912D02*
X11112920Y-17688865D01*
X11112920Y-17688865D02*
X11122444Y-17669817D01*
X11122444Y-17669817D02*
X11141492Y-17660293D01*
X11141492Y-17660293D02*
X11189111Y-17660293D01*
X11189111Y-17660293D02*
X11208158Y-17650770D01*
X11274825Y-17603150D02*
X11351015Y-17603150D01*
X11303396Y-17536484D02*
X11303396Y-17707912D01*
X11303396Y-17707912D02*
X11312920Y-17726960D01*
X11312920Y-17726960D02*
X11331968Y-17736484D01*
X11331968Y-17736484D02*
X11351015Y-17736484D01*
X11493873Y-17726960D02*
X11474825Y-17736484D01*
X11474825Y-17736484D02*
X11436730Y-17736484D01*
X11436730Y-17736484D02*
X11417682Y-17726960D01*
X11417682Y-17726960D02*
X11408158Y-17707912D01*
X11408158Y-17707912D02*
X11408158Y-17631722D01*
X11408158Y-17631722D02*
X11417682Y-17612674D01*
X11417682Y-17612674D02*
X11436730Y-17603150D01*
X11436730Y-17603150D02*
X11474825Y-17603150D01*
X11474825Y-17603150D02*
X11493873Y-17612674D01*
X11493873Y-17612674D02*
X11503396Y-17631722D01*
X11503396Y-17631722D02*
X11503396Y-17650770D01*
X11503396Y-17650770D02*
X11408158Y-17669817D01*
X11674825Y-17736484D02*
X11674825Y-17536484D01*
X11674825Y-17726960D02*
X11655777Y-17736484D01*
X11655777Y-17736484D02*
X11617682Y-17736484D01*
X11617682Y-17736484D02*
X11598634Y-17726960D01*
X11598634Y-17726960D02*
X11589111Y-17717436D01*
X11589111Y-17717436D02*
X11579587Y-17698389D01*
X11579587Y-17698389D02*
X11579587Y-17641246D01*
X11579587Y-17641246D02*
X11589111Y-17622198D01*
X11589111Y-17622198D02*
X11598634Y-17612674D01*
X11598634Y-17612674D02*
X11617682Y-17603150D01*
X11617682Y-17603150D02*
X11655777Y-17603150D01*
X11655777Y-17603150D02*
X11674825Y-17612674D01*
X11751015Y-17812674D02*
X11760539Y-17803150D01*
X11760539Y-17803150D02*
X11779587Y-17774579D01*
X11779587Y-17774579D02*
X11789111Y-17755531D01*
X11789111Y-17755531D02*
X11798634Y-17726960D01*
X11798634Y-17726960D02*
X11808158Y-17679341D01*
X11808158Y-17679341D02*
X11808158Y-17641246D01*
X11808158Y-17641246D02*
X11798634Y-17593627D01*
X11798634Y-17593627D02*
X11789111Y-17565055D01*
X11789111Y-17565055D02*
X11779587Y-17546008D01*
X11779587Y-17546008D02*
X11760539Y-17517436D01*
X11760539Y-17517436D02*
X11751015Y-17507912D01*
D12*
X4995000Y-17909000D02*
G75*
G03*
X4995000Y-17909000I-80000J0D01*
G01*
D11*
X5360539Y-18000484D02*
X5246253Y-18000484D01*
X5303396Y-18000484D02*
X5303396Y-17800484D01*
X5303396Y-17800484D02*
X5284348Y-17829055D01*
X5284348Y-17829055D02*
X5265301Y-17848103D01*
X5265301Y-17848103D02*
X5246253Y-17857627D01*
X5446253Y-17981436D02*
X5455777Y-17990960D01*
X5455777Y-17990960D02*
X5446253Y-18000484D01*
X5446253Y-18000484D02*
X5436729Y-17990960D01*
X5436729Y-17990960D02*
X5446253Y-17981436D01*
X5446253Y-17981436D02*
X5446253Y-18000484D01*
X5627205Y-17800484D02*
X5589110Y-17800484D01*
X5589110Y-17800484D02*
X5570063Y-17810008D01*
X5570063Y-17810008D02*
X5560539Y-17819531D01*
X5560539Y-17819531D02*
X5541491Y-17848103D01*
X5541491Y-17848103D02*
X5531967Y-17886198D01*
X5531967Y-17886198D02*
X5531967Y-17962389D01*
X5531967Y-17962389D02*
X5541491Y-17981436D01*
X5541491Y-17981436D02*
X5551015Y-17990960D01*
X5551015Y-17990960D02*
X5570063Y-18000484D01*
X5570063Y-18000484D02*
X5608158Y-18000484D01*
X5608158Y-18000484D02*
X5627205Y-17990960D01*
X5627205Y-17990960D02*
X5636729Y-17981436D01*
X5636729Y-17981436D02*
X5646253Y-17962389D01*
X5646253Y-17962389D02*
X5646253Y-17914770D01*
X5646253Y-17914770D02*
X5636729Y-17895722D01*
X5636729Y-17895722D02*
X5627205Y-17886198D01*
X5627205Y-17886198D02*
X5608158Y-17876674D01*
X5608158Y-17876674D02*
X5570063Y-17876674D01*
X5570063Y-17876674D02*
X5551015Y-17886198D01*
X5551015Y-17886198D02*
X5541491Y-17895722D01*
X5541491Y-17895722D02*
X5531967Y-17914770D01*
X5770062Y-17800484D02*
X5789110Y-17800484D01*
X5789110Y-17800484D02*
X5808158Y-17810008D01*
X5808158Y-17810008D02*
X5817682Y-17819531D01*
X5817682Y-17819531D02*
X5827205Y-17838579D01*
X5827205Y-17838579D02*
X5836729Y-17876674D01*
X5836729Y-17876674D02*
X5836729Y-17924293D01*
X5836729Y-17924293D02*
X5827205Y-17962389D01*
X5827205Y-17962389D02*
X5817682Y-17981436D01*
X5817682Y-17981436D02*
X5808158Y-17990960D01*
X5808158Y-17990960D02*
X5789110Y-18000484D01*
X5789110Y-18000484D02*
X5770062Y-18000484D01*
X5770062Y-18000484D02*
X5751015Y-17990960D01*
X5751015Y-17990960D02*
X5741491Y-17981436D01*
X5741491Y-17981436D02*
X5731967Y-17962389D01*
X5731967Y-17962389D02*
X5722443Y-17924293D01*
X5722443Y-17924293D02*
X5722443Y-17876674D01*
X5722443Y-17876674D02*
X5731967Y-17838579D01*
X5731967Y-17838579D02*
X5741491Y-17819531D01*
X5741491Y-17819531D02*
X5751015Y-17810008D01*
X5751015Y-17810008D02*
X5770062Y-17800484D01*
X5960539Y-17800484D02*
X5979586Y-17800484D01*
X5979586Y-17800484D02*
X5998634Y-17810008D01*
X5998634Y-17810008D02*
X6008158Y-17819531D01*
X6008158Y-17819531D02*
X6017682Y-17838579D01*
X6017682Y-17838579D02*
X6027205Y-17876674D01*
X6027205Y-17876674D02*
X6027205Y-17924293D01*
X6027205Y-17924293D02*
X6017682Y-17962389D01*
X6017682Y-17962389D02*
X6008158Y-17981436D01*
X6008158Y-17981436D02*
X5998634Y-17990960D01*
X5998634Y-17990960D02*
X5979586Y-18000484D01*
X5979586Y-18000484D02*
X5960539Y-18000484D01*
X5960539Y-18000484D02*
X5941491Y-17990960D01*
X5941491Y-17990960D02*
X5931967Y-17981436D01*
X5931967Y-17981436D02*
X5922443Y-17962389D01*
X5922443Y-17962389D02*
X5912920Y-17924293D01*
X5912920Y-17924293D02*
X5912920Y-17876674D01*
X5912920Y-17876674D02*
X5922443Y-17838579D01*
X5922443Y-17838579D02*
X5931967Y-17819531D01*
X5931967Y-17819531D02*
X5941491Y-17810008D01*
X5941491Y-17810008D02*
X5960539Y-17800484D01*
X6112920Y-18000484D02*
X6112920Y-17867150D01*
X6112920Y-17886198D02*
X6122443Y-17876674D01*
X6122443Y-17876674D02*
X6141491Y-17867150D01*
X6141491Y-17867150D02*
X6170063Y-17867150D01*
X6170063Y-17867150D02*
X6189110Y-17876674D01*
X6189110Y-17876674D02*
X6198634Y-17895722D01*
X6198634Y-17895722D02*
X6198634Y-18000484D01*
X6198634Y-17895722D02*
X6208158Y-17876674D01*
X6208158Y-17876674D02*
X6227205Y-17867150D01*
X6227205Y-17867150D02*
X6255777Y-17867150D01*
X6255777Y-17867150D02*
X6274824Y-17876674D01*
X6274824Y-17876674D02*
X6284348Y-17895722D01*
X6284348Y-17895722D02*
X6284348Y-18000484D01*
X6379586Y-18000484D02*
X6379586Y-17867150D01*
X6379586Y-17886198D02*
X6389110Y-17876674D01*
X6389110Y-17876674D02*
X6408158Y-17867150D01*
X6408158Y-17867150D02*
X6436729Y-17867150D01*
X6436729Y-17867150D02*
X6455777Y-17876674D01*
X6455777Y-17876674D02*
X6465301Y-17895722D01*
X6465301Y-17895722D02*
X6465301Y-18000484D01*
X6465301Y-17895722D02*
X6474824Y-17876674D01*
X6474824Y-17876674D02*
X6493872Y-17867150D01*
X6493872Y-17867150D02*
X6522443Y-17867150D01*
X6522443Y-17867150D02*
X6541491Y-17876674D01*
X6541491Y-17876674D02*
X6551015Y-17895722D01*
X6551015Y-17895722D02*
X6551015Y-18000484D01*
X6941491Y-17790960D02*
X6770063Y-18048103D01*
X7198634Y-17800484D02*
X7217682Y-17800484D01*
X7217682Y-17800484D02*
X7236729Y-17810008D01*
X7236729Y-17810008D02*
X7246253Y-17819531D01*
X7246253Y-17819531D02*
X7255777Y-17838579D01*
X7255777Y-17838579D02*
X7265301Y-17876674D01*
X7265301Y-17876674D02*
X7265301Y-17924293D01*
X7265301Y-17924293D02*
X7255777Y-17962389D01*
X7255777Y-17962389D02*
X7246253Y-17981436D01*
X7246253Y-17981436D02*
X7236729Y-17990960D01*
X7236729Y-17990960D02*
X7217682Y-18000484D01*
X7217682Y-18000484D02*
X7198634Y-18000484D01*
X7198634Y-18000484D02*
X7179586Y-17990960D01*
X7179586Y-17990960D02*
X7170063Y-17981436D01*
X7170063Y-17981436D02*
X7160539Y-17962389D01*
X7160539Y-17962389D02*
X7151015Y-17924293D01*
X7151015Y-17924293D02*
X7151015Y-17876674D01*
X7151015Y-17876674D02*
X7160539Y-17838579D01*
X7160539Y-17838579D02*
X7170063Y-17819531D01*
X7170063Y-17819531D02*
X7179586Y-17810008D01*
X7179586Y-17810008D02*
X7198634Y-17800484D01*
X7351015Y-17981436D02*
X7360539Y-17990960D01*
X7360539Y-17990960D02*
X7351015Y-18000484D01*
X7351015Y-18000484D02*
X7341491Y-17990960D01*
X7341491Y-17990960D02*
X7351015Y-17981436D01*
X7351015Y-17981436D02*
X7351015Y-18000484D01*
X7484348Y-17800484D02*
X7503396Y-17800484D01*
X7503396Y-17800484D02*
X7522444Y-17810008D01*
X7522444Y-17810008D02*
X7531967Y-17819531D01*
X7531967Y-17819531D02*
X7541491Y-17838579D01*
X7541491Y-17838579D02*
X7551015Y-17876674D01*
X7551015Y-17876674D02*
X7551015Y-17924293D01*
X7551015Y-17924293D02*
X7541491Y-17962389D01*
X7541491Y-17962389D02*
X7531967Y-17981436D01*
X7531967Y-17981436D02*
X7522444Y-17990960D01*
X7522444Y-17990960D02*
X7503396Y-18000484D01*
X7503396Y-18000484D02*
X7484348Y-18000484D01*
X7484348Y-18000484D02*
X7465301Y-17990960D01*
X7465301Y-17990960D02*
X7455777Y-17981436D01*
X7455777Y-17981436D02*
X7446253Y-17962389D01*
X7446253Y-17962389D02*
X7436729Y-17924293D01*
X7436729Y-17924293D02*
X7436729Y-17876674D01*
X7436729Y-17876674D02*
X7446253Y-17838579D01*
X7446253Y-17838579D02*
X7455777Y-17819531D01*
X7455777Y-17819531D02*
X7465301Y-17810008D01*
X7465301Y-17810008D02*
X7484348Y-17800484D01*
X7722444Y-17800484D02*
X7684348Y-17800484D01*
X7684348Y-17800484D02*
X7665301Y-17810008D01*
X7665301Y-17810008D02*
X7655777Y-17819531D01*
X7655777Y-17819531D02*
X7636729Y-17848103D01*
X7636729Y-17848103D02*
X7627206Y-17886198D01*
X7627206Y-17886198D02*
X7627206Y-17962389D01*
X7627206Y-17962389D02*
X7636729Y-17981436D01*
X7636729Y-17981436D02*
X7646253Y-17990960D01*
X7646253Y-17990960D02*
X7665301Y-18000484D01*
X7665301Y-18000484D02*
X7703396Y-18000484D01*
X7703396Y-18000484D02*
X7722444Y-17990960D01*
X7722444Y-17990960D02*
X7731967Y-17981436D01*
X7731967Y-17981436D02*
X7741491Y-17962389D01*
X7741491Y-17962389D02*
X7741491Y-17914770D01*
X7741491Y-17914770D02*
X7731967Y-17895722D01*
X7731967Y-17895722D02*
X7722444Y-17886198D01*
X7722444Y-17886198D02*
X7703396Y-17876674D01*
X7703396Y-17876674D02*
X7665301Y-17876674D01*
X7665301Y-17876674D02*
X7646253Y-17886198D01*
X7646253Y-17886198D02*
X7636729Y-17895722D01*
X7636729Y-17895722D02*
X7627206Y-17914770D01*
X7808158Y-17800484D02*
X7931967Y-17800484D01*
X7931967Y-17800484D02*
X7865301Y-17876674D01*
X7865301Y-17876674D02*
X7893872Y-17876674D01*
X7893872Y-17876674D02*
X7912920Y-17886198D01*
X7912920Y-17886198D02*
X7922444Y-17895722D01*
X7922444Y-17895722D02*
X7931967Y-17914770D01*
X7931967Y-17914770D02*
X7931967Y-17962389D01*
X7931967Y-17962389D02*
X7922444Y-17981436D01*
X7922444Y-17981436D02*
X7912920Y-17990960D01*
X7912920Y-17990960D02*
X7893872Y-18000484D01*
X7893872Y-18000484D02*
X7836729Y-18000484D01*
X7836729Y-18000484D02*
X7817682Y-17990960D01*
X7817682Y-17990960D02*
X7808158Y-17981436D01*
X8055777Y-17800484D02*
X8074825Y-17800484D01*
X8074825Y-17800484D02*
X8093872Y-17810008D01*
X8093872Y-17810008D02*
X8103396Y-17819531D01*
X8103396Y-17819531D02*
X8112920Y-17838579D01*
X8112920Y-17838579D02*
X8122444Y-17876674D01*
X8122444Y-17876674D02*
X8122444Y-17924293D01*
X8122444Y-17924293D02*
X8112920Y-17962389D01*
X8112920Y-17962389D02*
X8103396Y-17981436D01*
X8103396Y-17981436D02*
X8093872Y-17990960D01*
X8093872Y-17990960D02*
X8074825Y-18000484D01*
X8074825Y-18000484D02*
X8055777Y-18000484D01*
X8055777Y-18000484D02*
X8036729Y-17990960D01*
X8036729Y-17990960D02*
X8027206Y-17981436D01*
X8027206Y-17981436D02*
X8017682Y-17962389D01*
X8017682Y-17962389D02*
X8008158Y-17924293D01*
X8008158Y-17924293D02*
X8008158Y-17876674D01*
X8008158Y-17876674D02*
X8017682Y-17838579D01*
X8017682Y-17838579D02*
X8027206Y-17819531D01*
X8027206Y-17819531D02*
X8036729Y-17810008D01*
X8036729Y-17810008D02*
X8055777Y-17800484D01*
X8198634Y-17800484D02*
X8198634Y-17838579D01*
X8274825Y-17800484D02*
X8274825Y-17838579D01*
X8570063Y-18076674D02*
X8560539Y-18067150D01*
X8560539Y-18067150D02*
X8541491Y-18038579D01*
X8541491Y-18038579D02*
X8531968Y-18019531D01*
X8531968Y-18019531D02*
X8522444Y-17990960D01*
X8522444Y-17990960D02*
X8512920Y-17943341D01*
X8512920Y-17943341D02*
X8512920Y-17905246D01*
X8512920Y-17905246D02*
X8522444Y-17857627D01*
X8522444Y-17857627D02*
X8531968Y-17829055D01*
X8531968Y-17829055D02*
X8541491Y-17810008D01*
X8541491Y-17810008D02*
X8560539Y-17781436D01*
X8560539Y-17781436D02*
X8570063Y-17771912D01*
X8731968Y-17867150D02*
X8731968Y-18000484D01*
X8684349Y-17790960D02*
X8636730Y-17933817D01*
X8636730Y-17933817D02*
X8760539Y-17933817D01*
X8989111Y-18000484D02*
X8989111Y-17800484D01*
X9074825Y-18000484D02*
X9074825Y-17895722D01*
X9074825Y-17895722D02*
X9065301Y-17876674D01*
X9065301Y-17876674D02*
X9046253Y-17867150D01*
X9046253Y-17867150D02*
X9017682Y-17867150D01*
X9017682Y-17867150D02*
X8998634Y-17876674D01*
X8998634Y-17876674D02*
X8989111Y-17886198D01*
X9198634Y-18000484D02*
X9179587Y-17990960D01*
X9179587Y-17990960D02*
X9170063Y-17981436D01*
X9170063Y-17981436D02*
X9160539Y-17962389D01*
X9160539Y-17962389D02*
X9160539Y-17905246D01*
X9160539Y-17905246D02*
X9170063Y-17886198D01*
X9170063Y-17886198D02*
X9179587Y-17876674D01*
X9179587Y-17876674D02*
X9198634Y-17867150D01*
X9198634Y-17867150D02*
X9227206Y-17867150D01*
X9227206Y-17867150D02*
X9246253Y-17876674D01*
X9246253Y-17876674D02*
X9255777Y-17886198D01*
X9255777Y-17886198D02*
X9265301Y-17905246D01*
X9265301Y-17905246D02*
X9265301Y-17962389D01*
X9265301Y-17962389D02*
X9255777Y-17981436D01*
X9255777Y-17981436D02*
X9246253Y-17990960D01*
X9246253Y-17990960D02*
X9227206Y-18000484D01*
X9227206Y-18000484D02*
X9198634Y-18000484D01*
X9379587Y-18000484D02*
X9360539Y-17990960D01*
X9360539Y-17990960D02*
X9351015Y-17971912D01*
X9351015Y-17971912D02*
X9351015Y-17800484D01*
X9531968Y-17990960D02*
X9512920Y-18000484D01*
X9512920Y-18000484D02*
X9474825Y-18000484D01*
X9474825Y-18000484D02*
X9455777Y-17990960D01*
X9455777Y-17990960D02*
X9446253Y-17971912D01*
X9446253Y-17971912D02*
X9446253Y-17895722D01*
X9446253Y-17895722D02*
X9455777Y-17876674D01*
X9455777Y-17876674D02*
X9474825Y-17867150D01*
X9474825Y-17867150D02*
X9512920Y-17867150D01*
X9512920Y-17867150D02*
X9531968Y-17876674D01*
X9531968Y-17876674D02*
X9541492Y-17895722D01*
X9541492Y-17895722D02*
X9541492Y-17914770D01*
X9541492Y-17914770D02*
X9446253Y-17933817D01*
X9617682Y-17990960D02*
X9636730Y-18000484D01*
X9636730Y-18000484D02*
X9674825Y-18000484D01*
X9674825Y-18000484D02*
X9693873Y-17990960D01*
X9693873Y-17990960D02*
X9703396Y-17971912D01*
X9703396Y-17971912D02*
X9703396Y-17962389D01*
X9703396Y-17962389D02*
X9693873Y-17943341D01*
X9693873Y-17943341D02*
X9674825Y-17933817D01*
X9674825Y-17933817D02*
X9646253Y-17933817D01*
X9646253Y-17933817D02*
X9627206Y-17924293D01*
X9627206Y-17924293D02*
X9617682Y-17905246D01*
X9617682Y-17905246D02*
X9617682Y-17895722D01*
X9617682Y-17895722D02*
X9627206Y-17876674D01*
X9627206Y-17876674D02*
X9646253Y-17867150D01*
X9646253Y-17867150D02*
X9674825Y-17867150D01*
X9674825Y-17867150D02*
X9693873Y-17876674D01*
X9770063Y-18076674D02*
X9779587Y-18067150D01*
X9779587Y-18067150D02*
X9798634Y-18038579D01*
X9798634Y-18038579D02*
X9808158Y-18019531D01*
X9808158Y-18019531D02*
X9817682Y-17990960D01*
X9817682Y-17990960D02*
X9827206Y-17943341D01*
X9827206Y-17943341D02*
X9827206Y-17905246D01*
X9827206Y-17905246D02*
X9817682Y-17857627D01*
X9817682Y-17857627D02*
X9808158Y-17829055D01*
X9808158Y-17829055D02*
X9798634Y-17810008D01*
X9798634Y-17810008D02*
X9779587Y-17781436D01*
X9779587Y-17781436D02*
X9770063Y-17771912D01*
X10131968Y-18076674D02*
X10122444Y-18067150D01*
X10122444Y-18067150D02*
X10103396Y-18038579D01*
X10103396Y-18038579D02*
X10093873Y-18019531D01*
X10093873Y-18019531D02*
X10084349Y-17990960D01*
X10084349Y-17990960D02*
X10074825Y-17943341D01*
X10074825Y-17943341D02*
X10074825Y-17905246D01*
X10074825Y-17905246D02*
X10084349Y-17857627D01*
X10084349Y-17857627D02*
X10093873Y-17829055D01*
X10093873Y-17829055D02*
X10103396Y-17810008D01*
X10103396Y-17810008D02*
X10122444Y-17781436D01*
X10122444Y-17781436D02*
X10131968Y-17771912D01*
X10208158Y-17867150D02*
X10208158Y-18000484D01*
X10208158Y-17886198D02*
X10217682Y-17876674D01*
X10217682Y-17876674D02*
X10236730Y-17867150D01*
X10236730Y-17867150D02*
X10265301Y-17867150D01*
X10265301Y-17867150D02*
X10284349Y-17876674D01*
X10284349Y-17876674D02*
X10293873Y-17895722D01*
X10293873Y-17895722D02*
X10293873Y-18000484D01*
X10417682Y-18000484D02*
X10398634Y-17990960D01*
X10398634Y-17990960D02*
X10389111Y-17981436D01*
X10389111Y-17981436D02*
X10379587Y-17962389D01*
X10379587Y-17962389D02*
X10379587Y-17905246D01*
X10379587Y-17905246D02*
X10389111Y-17886198D01*
X10389111Y-17886198D02*
X10398634Y-17876674D01*
X10398634Y-17876674D02*
X10417682Y-17867150D01*
X10417682Y-17867150D02*
X10446254Y-17867150D01*
X10446254Y-17867150D02*
X10465301Y-17876674D01*
X10465301Y-17876674D02*
X10474825Y-17886198D01*
X10474825Y-17886198D02*
X10484349Y-17905246D01*
X10484349Y-17905246D02*
X10484349Y-17962389D01*
X10484349Y-17962389D02*
X10474825Y-17981436D01*
X10474825Y-17981436D02*
X10465301Y-17990960D01*
X10465301Y-17990960D02*
X10446254Y-18000484D01*
X10446254Y-18000484D02*
X10417682Y-18000484D01*
X10541492Y-17867150D02*
X10617682Y-17867150D01*
X10570063Y-17800484D02*
X10570063Y-17971912D01*
X10570063Y-17971912D02*
X10579587Y-17990960D01*
X10579587Y-17990960D02*
X10598634Y-18000484D01*
X10598634Y-18000484D02*
X10617682Y-18000484D01*
X10836730Y-17867150D02*
X10836730Y-18067150D01*
X10836730Y-17876674D02*
X10855777Y-17867150D01*
X10855777Y-17867150D02*
X10893873Y-17867150D01*
X10893873Y-17867150D02*
X10912920Y-17876674D01*
X10912920Y-17876674D02*
X10922444Y-17886198D01*
X10922444Y-17886198D02*
X10931968Y-17905246D01*
X10931968Y-17905246D02*
X10931968Y-17962389D01*
X10931968Y-17962389D02*
X10922444Y-17981436D01*
X10922444Y-17981436D02*
X10912920Y-17990960D01*
X10912920Y-17990960D02*
X10893873Y-18000484D01*
X10893873Y-18000484D02*
X10855777Y-18000484D01*
X10855777Y-18000484D02*
X10836730Y-17990960D01*
X11046254Y-18000484D02*
X11027206Y-17990960D01*
X11027206Y-17990960D02*
X11017682Y-17971912D01*
X11017682Y-17971912D02*
X11017682Y-17800484D01*
X11208158Y-18000484D02*
X11208158Y-17895722D01*
X11208158Y-17895722D02*
X11198634Y-17876674D01*
X11198634Y-17876674D02*
X11179587Y-17867150D01*
X11179587Y-17867150D02*
X11141492Y-17867150D01*
X11141492Y-17867150D02*
X11122444Y-17876674D01*
X11208158Y-17990960D02*
X11189111Y-18000484D01*
X11189111Y-18000484D02*
X11141492Y-18000484D01*
X11141492Y-18000484D02*
X11122444Y-17990960D01*
X11122444Y-17990960D02*
X11112920Y-17971912D01*
X11112920Y-17971912D02*
X11112920Y-17952865D01*
X11112920Y-17952865D02*
X11122444Y-17933817D01*
X11122444Y-17933817D02*
X11141492Y-17924293D01*
X11141492Y-17924293D02*
X11189111Y-17924293D01*
X11189111Y-17924293D02*
X11208158Y-17914770D01*
X11274825Y-17867150D02*
X11351015Y-17867150D01*
X11303396Y-17800484D02*
X11303396Y-17971912D01*
X11303396Y-17971912D02*
X11312920Y-17990960D01*
X11312920Y-17990960D02*
X11331968Y-18000484D01*
X11331968Y-18000484D02*
X11351015Y-18000484D01*
X11493873Y-17990960D02*
X11474825Y-18000484D01*
X11474825Y-18000484D02*
X11436730Y-18000484D01*
X11436730Y-18000484D02*
X11417682Y-17990960D01*
X11417682Y-17990960D02*
X11408158Y-17971912D01*
X11408158Y-17971912D02*
X11408158Y-17895722D01*
X11408158Y-17895722D02*
X11417682Y-17876674D01*
X11417682Y-17876674D02*
X11436730Y-17867150D01*
X11436730Y-17867150D02*
X11474825Y-17867150D01*
X11474825Y-17867150D02*
X11493873Y-17876674D01*
X11493873Y-17876674D02*
X11503396Y-17895722D01*
X11503396Y-17895722D02*
X11503396Y-17914770D01*
X11503396Y-17914770D02*
X11408158Y-17933817D01*
X11674825Y-18000484D02*
X11674825Y-17800484D01*
X11674825Y-17990960D02*
X11655777Y-18000484D01*
X11655777Y-18000484D02*
X11617682Y-18000484D01*
X11617682Y-18000484D02*
X11598634Y-17990960D01*
X11598634Y-17990960D02*
X11589111Y-17981436D01*
X11589111Y-17981436D02*
X11579587Y-17962389D01*
X11579587Y-17962389D02*
X11579587Y-17905246D01*
X11579587Y-17905246D02*
X11589111Y-17886198D01*
X11589111Y-17886198D02*
X11598634Y-17876674D01*
X11598634Y-17876674D02*
X11617682Y-17867150D01*
X11617682Y-17867150D02*
X11655777Y-17867150D01*
X11655777Y-17867150D02*
X11674825Y-17876674D01*
X11751015Y-18076674D02*
X11760539Y-18067150D01*
X11760539Y-18067150D02*
X11779587Y-18038579D01*
X11779587Y-18038579D02*
X11789111Y-18019531D01*
X11789111Y-18019531D02*
X11798634Y-17990960D01*
X11798634Y-17990960D02*
X11808158Y-17943341D01*
X11808158Y-17943341D02*
X11808158Y-17905246D01*
X11808158Y-17905246D02*
X11798634Y-17857627D01*
X11798634Y-17857627D02*
X11789111Y-17829055D01*
X11789111Y-17829055D02*
X11779587Y-17810008D01*
X11779587Y-17810008D02*
X11760539Y-17781436D01*
X11760539Y-17781436D02*
X11751015Y-17771912D01*
X4895000Y-18089000D02*
X4895000Y-18289000D01*
X4795000Y-18189000D02*
X4995000Y-18189000D01*
X5246253Y-18099531D02*
X5255777Y-18090008D01*
X5255777Y-18090008D02*
X5274824Y-18080484D01*
X5274824Y-18080484D02*
X5322444Y-18080484D01*
X5322444Y-18080484D02*
X5341491Y-18090008D01*
X5341491Y-18090008D02*
X5351015Y-18099531D01*
X5351015Y-18099531D02*
X5360539Y-18118579D01*
X5360539Y-18118579D02*
X5360539Y-18137627D01*
X5360539Y-18137627D02*
X5351015Y-18166198D01*
X5351015Y-18166198D02*
X5236729Y-18280484D01*
X5236729Y-18280484D02*
X5360539Y-18280484D01*
X5446253Y-18261436D02*
X5455777Y-18270960D01*
X5455777Y-18270960D02*
X5446253Y-18280484D01*
X5446253Y-18280484D02*
X5436729Y-18270960D01*
X5436729Y-18270960D02*
X5446253Y-18261436D01*
X5446253Y-18261436D02*
X5446253Y-18280484D01*
X5646253Y-18280484D02*
X5531967Y-18280484D01*
X5589110Y-18280484D02*
X5589110Y-18080484D01*
X5589110Y-18080484D02*
X5570063Y-18109055D01*
X5570063Y-18109055D02*
X5551015Y-18128103D01*
X5551015Y-18128103D02*
X5531967Y-18137627D01*
X5770062Y-18080484D02*
X5789110Y-18080484D01*
X5789110Y-18080484D02*
X5808158Y-18090008D01*
X5808158Y-18090008D02*
X5817682Y-18099531D01*
X5817682Y-18099531D02*
X5827205Y-18118579D01*
X5827205Y-18118579D02*
X5836729Y-18156674D01*
X5836729Y-18156674D02*
X5836729Y-18204293D01*
X5836729Y-18204293D02*
X5827205Y-18242389D01*
X5827205Y-18242389D02*
X5817682Y-18261436D01*
X5817682Y-18261436D02*
X5808158Y-18270960D01*
X5808158Y-18270960D02*
X5789110Y-18280484D01*
X5789110Y-18280484D02*
X5770062Y-18280484D01*
X5770062Y-18280484D02*
X5751015Y-18270960D01*
X5751015Y-18270960D02*
X5741491Y-18261436D01*
X5741491Y-18261436D02*
X5731967Y-18242389D01*
X5731967Y-18242389D02*
X5722443Y-18204293D01*
X5722443Y-18204293D02*
X5722443Y-18156674D01*
X5722443Y-18156674D02*
X5731967Y-18118579D01*
X5731967Y-18118579D02*
X5741491Y-18099531D01*
X5741491Y-18099531D02*
X5751015Y-18090008D01*
X5751015Y-18090008D02*
X5770062Y-18080484D01*
X5960539Y-18080484D02*
X5979586Y-18080484D01*
X5979586Y-18080484D02*
X5998634Y-18090008D01*
X5998634Y-18090008D02*
X6008158Y-18099531D01*
X6008158Y-18099531D02*
X6017682Y-18118579D01*
X6017682Y-18118579D02*
X6027205Y-18156674D01*
X6027205Y-18156674D02*
X6027205Y-18204293D01*
X6027205Y-18204293D02*
X6017682Y-18242389D01*
X6017682Y-18242389D02*
X6008158Y-18261436D01*
X6008158Y-18261436D02*
X5998634Y-18270960D01*
X5998634Y-18270960D02*
X5979586Y-18280484D01*
X5979586Y-18280484D02*
X5960539Y-18280484D01*
X5960539Y-18280484D02*
X5941491Y-18270960D01*
X5941491Y-18270960D02*
X5931967Y-18261436D01*
X5931967Y-18261436D02*
X5922443Y-18242389D01*
X5922443Y-18242389D02*
X5912920Y-18204293D01*
X5912920Y-18204293D02*
X5912920Y-18156674D01*
X5912920Y-18156674D02*
X5922443Y-18118579D01*
X5922443Y-18118579D02*
X5931967Y-18099531D01*
X5931967Y-18099531D02*
X5941491Y-18090008D01*
X5941491Y-18090008D02*
X5960539Y-18080484D01*
X6112920Y-18280484D02*
X6112920Y-18147150D01*
X6112920Y-18166198D02*
X6122443Y-18156674D01*
X6122443Y-18156674D02*
X6141491Y-18147150D01*
X6141491Y-18147150D02*
X6170063Y-18147150D01*
X6170063Y-18147150D02*
X6189110Y-18156674D01*
X6189110Y-18156674D02*
X6198634Y-18175722D01*
X6198634Y-18175722D02*
X6198634Y-18280484D01*
X6198634Y-18175722D02*
X6208158Y-18156674D01*
X6208158Y-18156674D02*
X6227205Y-18147150D01*
X6227205Y-18147150D02*
X6255777Y-18147150D01*
X6255777Y-18147150D02*
X6274824Y-18156674D01*
X6274824Y-18156674D02*
X6284348Y-18175722D01*
X6284348Y-18175722D02*
X6284348Y-18280484D01*
X6379586Y-18280484D02*
X6379586Y-18147150D01*
X6379586Y-18166198D02*
X6389110Y-18156674D01*
X6389110Y-18156674D02*
X6408158Y-18147150D01*
X6408158Y-18147150D02*
X6436729Y-18147150D01*
X6436729Y-18147150D02*
X6455777Y-18156674D01*
X6455777Y-18156674D02*
X6465301Y-18175722D01*
X6465301Y-18175722D02*
X6465301Y-18280484D01*
X6465301Y-18175722D02*
X6474824Y-18156674D01*
X6474824Y-18156674D02*
X6493872Y-18147150D01*
X6493872Y-18147150D02*
X6522443Y-18147150D01*
X6522443Y-18147150D02*
X6541491Y-18156674D01*
X6541491Y-18156674D02*
X6551015Y-18175722D01*
X6551015Y-18175722D02*
X6551015Y-18280484D01*
X6941491Y-18070960D02*
X6770063Y-18328103D01*
X7198634Y-18080484D02*
X7217682Y-18080484D01*
X7217682Y-18080484D02*
X7236729Y-18090008D01*
X7236729Y-18090008D02*
X7246253Y-18099531D01*
X7246253Y-18099531D02*
X7255777Y-18118579D01*
X7255777Y-18118579D02*
X7265301Y-18156674D01*
X7265301Y-18156674D02*
X7265301Y-18204293D01*
X7265301Y-18204293D02*
X7255777Y-18242389D01*
X7255777Y-18242389D02*
X7246253Y-18261436D01*
X7246253Y-18261436D02*
X7236729Y-18270960D01*
X7236729Y-18270960D02*
X7217682Y-18280484D01*
X7217682Y-18280484D02*
X7198634Y-18280484D01*
X7198634Y-18280484D02*
X7179586Y-18270960D01*
X7179586Y-18270960D02*
X7170063Y-18261436D01*
X7170063Y-18261436D02*
X7160539Y-18242389D01*
X7160539Y-18242389D02*
X7151015Y-18204293D01*
X7151015Y-18204293D02*
X7151015Y-18156674D01*
X7151015Y-18156674D02*
X7160539Y-18118579D01*
X7160539Y-18118579D02*
X7170063Y-18099531D01*
X7170063Y-18099531D02*
X7179586Y-18090008D01*
X7179586Y-18090008D02*
X7198634Y-18080484D01*
X7351015Y-18261436D02*
X7360539Y-18270960D01*
X7360539Y-18270960D02*
X7351015Y-18280484D01*
X7351015Y-18280484D02*
X7341491Y-18270960D01*
X7341491Y-18270960D02*
X7351015Y-18261436D01*
X7351015Y-18261436D02*
X7351015Y-18280484D01*
X7484348Y-18080484D02*
X7503396Y-18080484D01*
X7503396Y-18080484D02*
X7522444Y-18090008D01*
X7522444Y-18090008D02*
X7531967Y-18099531D01*
X7531967Y-18099531D02*
X7541491Y-18118579D01*
X7541491Y-18118579D02*
X7551015Y-18156674D01*
X7551015Y-18156674D02*
X7551015Y-18204293D01*
X7551015Y-18204293D02*
X7541491Y-18242389D01*
X7541491Y-18242389D02*
X7531967Y-18261436D01*
X7531967Y-18261436D02*
X7522444Y-18270960D01*
X7522444Y-18270960D02*
X7503396Y-18280484D01*
X7503396Y-18280484D02*
X7484348Y-18280484D01*
X7484348Y-18280484D02*
X7465301Y-18270960D01*
X7465301Y-18270960D02*
X7455777Y-18261436D01*
X7455777Y-18261436D02*
X7446253Y-18242389D01*
X7446253Y-18242389D02*
X7436729Y-18204293D01*
X7436729Y-18204293D02*
X7436729Y-18156674D01*
X7436729Y-18156674D02*
X7446253Y-18118579D01*
X7446253Y-18118579D02*
X7455777Y-18099531D01*
X7455777Y-18099531D02*
X7465301Y-18090008D01*
X7465301Y-18090008D02*
X7484348Y-18080484D01*
X7665301Y-18166198D02*
X7646253Y-18156674D01*
X7646253Y-18156674D02*
X7636729Y-18147150D01*
X7636729Y-18147150D02*
X7627206Y-18128103D01*
X7627206Y-18128103D02*
X7627206Y-18118579D01*
X7627206Y-18118579D02*
X7636729Y-18099531D01*
X7636729Y-18099531D02*
X7646253Y-18090008D01*
X7646253Y-18090008D02*
X7665301Y-18080484D01*
X7665301Y-18080484D02*
X7703396Y-18080484D01*
X7703396Y-18080484D02*
X7722444Y-18090008D01*
X7722444Y-18090008D02*
X7731967Y-18099531D01*
X7731967Y-18099531D02*
X7741491Y-18118579D01*
X7741491Y-18118579D02*
X7741491Y-18128103D01*
X7741491Y-18128103D02*
X7731967Y-18147150D01*
X7731967Y-18147150D02*
X7722444Y-18156674D01*
X7722444Y-18156674D02*
X7703396Y-18166198D01*
X7703396Y-18166198D02*
X7665301Y-18166198D01*
X7665301Y-18166198D02*
X7646253Y-18175722D01*
X7646253Y-18175722D02*
X7636729Y-18185246D01*
X7636729Y-18185246D02*
X7627206Y-18204293D01*
X7627206Y-18204293D02*
X7627206Y-18242389D01*
X7627206Y-18242389D02*
X7636729Y-18261436D01*
X7636729Y-18261436D02*
X7646253Y-18270960D01*
X7646253Y-18270960D02*
X7665301Y-18280484D01*
X7665301Y-18280484D02*
X7703396Y-18280484D01*
X7703396Y-18280484D02*
X7722444Y-18270960D01*
X7722444Y-18270960D02*
X7731967Y-18261436D01*
X7731967Y-18261436D02*
X7741491Y-18242389D01*
X7741491Y-18242389D02*
X7741491Y-18204293D01*
X7741491Y-18204293D02*
X7731967Y-18185246D01*
X7731967Y-18185246D02*
X7722444Y-18175722D01*
X7722444Y-18175722D02*
X7703396Y-18166198D01*
X7817682Y-18099531D02*
X7827206Y-18090008D01*
X7827206Y-18090008D02*
X7846253Y-18080484D01*
X7846253Y-18080484D02*
X7893872Y-18080484D01*
X7893872Y-18080484D02*
X7912920Y-18090008D01*
X7912920Y-18090008D02*
X7922444Y-18099531D01*
X7922444Y-18099531D02*
X7931967Y-18118579D01*
X7931967Y-18118579D02*
X7931967Y-18137627D01*
X7931967Y-18137627D02*
X7922444Y-18166198D01*
X7922444Y-18166198D02*
X7808158Y-18280484D01*
X7808158Y-18280484D02*
X7931967Y-18280484D01*
X7998634Y-18080484D02*
X8131967Y-18080484D01*
X8131967Y-18080484D02*
X8046253Y-18280484D01*
X8198634Y-18080484D02*
X8198634Y-18118579D01*
X8274825Y-18080484D02*
X8274825Y-18118579D01*
X8570063Y-18356674D02*
X8560539Y-18347150D01*
X8560539Y-18347150D02*
X8541491Y-18318579D01*
X8541491Y-18318579D02*
X8531968Y-18299531D01*
X8531968Y-18299531D02*
X8522444Y-18270960D01*
X8522444Y-18270960D02*
X8512920Y-18223341D01*
X8512920Y-18223341D02*
X8512920Y-18185246D01*
X8512920Y-18185246D02*
X8522444Y-18137627D01*
X8522444Y-18137627D02*
X8531968Y-18109055D01*
X8531968Y-18109055D02*
X8541491Y-18090008D01*
X8541491Y-18090008D02*
X8560539Y-18061436D01*
X8560539Y-18061436D02*
X8570063Y-18051912D01*
X8636730Y-18099531D02*
X8646253Y-18090008D01*
X8646253Y-18090008D02*
X8665301Y-18080484D01*
X8665301Y-18080484D02*
X8712920Y-18080484D01*
X8712920Y-18080484D02*
X8731968Y-18090008D01*
X8731968Y-18090008D02*
X8741491Y-18099531D01*
X8741491Y-18099531D02*
X8751015Y-18118579D01*
X8751015Y-18118579D02*
X8751015Y-18137627D01*
X8751015Y-18137627D02*
X8741491Y-18166198D01*
X8741491Y-18166198D02*
X8627206Y-18280484D01*
X8627206Y-18280484D02*
X8751015Y-18280484D01*
X8989111Y-18280484D02*
X8989111Y-18080484D01*
X9074825Y-18280484D02*
X9074825Y-18175722D01*
X9074825Y-18175722D02*
X9065301Y-18156674D01*
X9065301Y-18156674D02*
X9046253Y-18147150D01*
X9046253Y-18147150D02*
X9017682Y-18147150D01*
X9017682Y-18147150D02*
X8998634Y-18156674D01*
X8998634Y-18156674D02*
X8989111Y-18166198D01*
X9198634Y-18280484D02*
X9179587Y-18270960D01*
X9179587Y-18270960D02*
X9170063Y-18261436D01*
X9170063Y-18261436D02*
X9160539Y-18242389D01*
X9160539Y-18242389D02*
X9160539Y-18185246D01*
X9160539Y-18185246D02*
X9170063Y-18166198D01*
X9170063Y-18166198D02*
X9179587Y-18156674D01*
X9179587Y-18156674D02*
X9198634Y-18147150D01*
X9198634Y-18147150D02*
X9227206Y-18147150D01*
X9227206Y-18147150D02*
X9246253Y-18156674D01*
X9246253Y-18156674D02*
X9255777Y-18166198D01*
X9255777Y-18166198D02*
X9265301Y-18185246D01*
X9265301Y-18185246D02*
X9265301Y-18242389D01*
X9265301Y-18242389D02*
X9255777Y-18261436D01*
X9255777Y-18261436D02*
X9246253Y-18270960D01*
X9246253Y-18270960D02*
X9227206Y-18280484D01*
X9227206Y-18280484D02*
X9198634Y-18280484D01*
X9379587Y-18280484D02*
X9360539Y-18270960D01*
X9360539Y-18270960D02*
X9351015Y-18251912D01*
X9351015Y-18251912D02*
X9351015Y-18080484D01*
X9531968Y-18270960D02*
X9512920Y-18280484D01*
X9512920Y-18280484D02*
X9474825Y-18280484D01*
X9474825Y-18280484D02*
X9455777Y-18270960D01*
X9455777Y-18270960D02*
X9446253Y-18251912D01*
X9446253Y-18251912D02*
X9446253Y-18175722D01*
X9446253Y-18175722D02*
X9455777Y-18156674D01*
X9455777Y-18156674D02*
X9474825Y-18147150D01*
X9474825Y-18147150D02*
X9512920Y-18147150D01*
X9512920Y-18147150D02*
X9531968Y-18156674D01*
X9531968Y-18156674D02*
X9541492Y-18175722D01*
X9541492Y-18175722D02*
X9541492Y-18194770D01*
X9541492Y-18194770D02*
X9446253Y-18213817D01*
X9617682Y-18270960D02*
X9636730Y-18280484D01*
X9636730Y-18280484D02*
X9674825Y-18280484D01*
X9674825Y-18280484D02*
X9693873Y-18270960D01*
X9693873Y-18270960D02*
X9703396Y-18251912D01*
X9703396Y-18251912D02*
X9703396Y-18242389D01*
X9703396Y-18242389D02*
X9693873Y-18223341D01*
X9693873Y-18223341D02*
X9674825Y-18213817D01*
X9674825Y-18213817D02*
X9646253Y-18213817D01*
X9646253Y-18213817D02*
X9627206Y-18204293D01*
X9627206Y-18204293D02*
X9617682Y-18185246D01*
X9617682Y-18185246D02*
X9617682Y-18175722D01*
X9617682Y-18175722D02*
X9627206Y-18156674D01*
X9627206Y-18156674D02*
X9646253Y-18147150D01*
X9646253Y-18147150D02*
X9674825Y-18147150D01*
X9674825Y-18147150D02*
X9693873Y-18156674D01*
X9770063Y-18356674D02*
X9779587Y-18347150D01*
X9779587Y-18347150D02*
X9798634Y-18318579D01*
X9798634Y-18318579D02*
X9808158Y-18299531D01*
X9808158Y-18299531D02*
X9817682Y-18270960D01*
X9817682Y-18270960D02*
X9827206Y-18223341D01*
X9827206Y-18223341D02*
X9827206Y-18185246D01*
X9827206Y-18185246D02*
X9817682Y-18137627D01*
X9817682Y-18137627D02*
X9808158Y-18109055D01*
X9808158Y-18109055D02*
X9798634Y-18090008D01*
X9798634Y-18090008D02*
X9779587Y-18061436D01*
X9779587Y-18061436D02*
X9770063Y-18051912D01*
X10131968Y-18356674D02*
X10122444Y-18347150D01*
X10122444Y-18347150D02*
X10103396Y-18318579D01*
X10103396Y-18318579D02*
X10093873Y-18299531D01*
X10093873Y-18299531D02*
X10084349Y-18270960D01*
X10084349Y-18270960D02*
X10074825Y-18223341D01*
X10074825Y-18223341D02*
X10074825Y-18185246D01*
X10074825Y-18185246D02*
X10084349Y-18137627D01*
X10084349Y-18137627D02*
X10093873Y-18109055D01*
X10093873Y-18109055D02*
X10103396Y-18090008D01*
X10103396Y-18090008D02*
X10122444Y-18061436D01*
X10122444Y-18061436D02*
X10131968Y-18051912D01*
X10208158Y-18147150D02*
X10208158Y-18280484D01*
X10208158Y-18166198D02*
X10217682Y-18156674D01*
X10217682Y-18156674D02*
X10236730Y-18147150D01*
X10236730Y-18147150D02*
X10265301Y-18147150D01*
X10265301Y-18147150D02*
X10284349Y-18156674D01*
X10284349Y-18156674D02*
X10293873Y-18175722D01*
X10293873Y-18175722D02*
X10293873Y-18280484D01*
X10417682Y-18280484D02*
X10398634Y-18270960D01*
X10398634Y-18270960D02*
X10389111Y-18261436D01*
X10389111Y-18261436D02*
X10379587Y-18242389D01*
X10379587Y-18242389D02*
X10379587Y-18185246D01*
X10379587Y-18185246D02*
X10389111Y-18166198D01*
X10389111Y-18166198D02*
X10398634Y-18156674D01*
X10398634Y-18156674D02*
X10417682Y-18147150D01*
X10417682Y-18147150D02*
X10446254Y-18147150D01*
X10446254Y-18147150D02*
X10465301Y-18156674D01*
X10465301Y-18156674D02*
X10474825Y-18166198D01*
X10474825Y-18166198D02*
X10484349Y-18185246D01*
X10484349Y-18185246D02*
X10484349Y-18242389D01*
X10484349Y-18242389D02*
X10474825Y-18261436D01*
X10474825Y-18261436D02*
X10465301Y-18270960D01*
X10465301Y-18270960D02*
X10446254Y-18280484D01*
X10446254Y-18280484D02*
X10417682Y-18280484D01*
X10541492Y-18147150D02*
X10617682Y-18147150D01*
X10570063Y-18080484D02*
X10570063Y-18251912D01*
X10570063Y-18251912D02*
X10579587Y-18270960D01*
X10579587Y-18270960D02*
X10598634Y-18280484D01*
X10598634Y-18280484D02*
X10617682Y-18280484D01*
X10836730Y-18147150D02*
X10836730Y-18347150D01*
X10836730Y-18156674D02*
X10855777Y-18147150D01*
X10855777Y-18147150D02*
X10893873Y-18147150D01*
X10893873Y-18147150D02*
X10912920Y-18156674D01*
X10912920Y-18156674D02*
X10922444Y-18166198D01*
X10922444Y-18166198D02*
X10931968Y-18185246D01*
X10931968Y-18185246D02*
X10931968Y-18242389D01*
X10931968Y-18242389D02*
X10922444Y-18261436D01*
X10922444Y-18261436D02*
X10912920Y-18270960D01*
X10912920Y-18270960D02*
X10893873Y-18280484D01*
X10893873Y-18280484D02*
X10855777Y-18280484D01*
X10855777Y-18280484D02*
X10836730Y-18270960D01*
X11046254Y-18280484D02*
X11027206Y-18270960D01*
X11027206Y-18270960D02*
X11017682Y-18251912D01*
X11017682Y-18251912D02*
X11017682Y-18080484D01*
X11208158Y-18280484D02*
X11208158Y-18175722D01*
X11208158Y-18175722D02*
X11198634Y-18156674D01*
X11198634Y-18156674D02*
X11179587Y-18147150D01*
X11179587Y-18147150D02*
X11141492Y-18147150D01*
X11141492Y-18147150D02*
X11122444Y-18156674D01*
X11208158Y-18270960D02*
X11189111Y-18280484D01*
X11189111Y-18280484D02*
X11141492Y-18280484D01*
X11141492Y-18280484D02*
X11122444Y-18270960D01*
X11122444Y-18270960D02*
X11112920Y-18251912D01*
X11112920Y-18251912D02*
X11112920Y-18232865D01*
X11112920Y-18232865D02*
X11122444Y-18213817D01*
X11122444Y-18213817D02*
X11141492Y-18204293D01*
X11141492Y-18204293D02*
X11189111Y-18204293D01*
X11189111Y-18204293D02*
X11208158Y-18194770D01*
X11274825Y-18147150D02*
X11351015Y-18147150D01*
X11303396Y-18080484D02*
X11303396Y-18251912D01*
X11303396Y-18251912D02*
X11312920Y-18270960D01*
X11312920Y-18270960D02*
X11331968Y-18280484D01*
X11331968Y-18280484D02*
X11351015Y-18280484D01*
X11493873Y-18270960D02*
X11474825Y-18280484D01*
X11474825Y-18280484D02*
X11436730Y-18280484D01*
X11436730Y-18280484D02*
X11417682Y-18270960D01*
X11417682Y-18270960D02*
X11408158Y-18251912D01*
X11408158Y-18251912D02*
X11408158Y-18175722D01*
X11408158Y-18175722D02*
X11417682Y-18156674D01*
X11417682Y-18156674D02*
X11436730Y-18147150D01*
X11436730Y-18147150D02*
X11474825Y-18147150D01*
X11474825Y-18147150D02*
X11493873Y-18156674D01*
X11493873Y-18156674D02*
X11503396Y-18175722D01*
X11503396Y-18175722D02*
X11503396Y-18194770D01*
X11503396Y-18194770D02*
X11408158Y-18213817D01*
X11674825Y-18280484D02*
X11674825Y-18080484D01*
X11674825Y-18270960D02*
X11655777Y-18280484D01*
X11655777Y-18280484D02*
X11617682Y-18280484D01*
X11617682Y-18280484D02*
X11598634Y-18270960D01*
X11598634Y-18270960D02*
X11589111Y-18261436D01*
X11589111Y-18261436D02*
X11579587Y-18242389D01*
X11579587Y-18242389D02*
X11579587Y-18185246D01*
X11579587Y-18185246D02*
X11589111Y-18166198D01*
X11589111Y-18166198D02*
X11598634Y-18156674D01*
X11598634Y-18156674D02*
X11617682Y-18147150D01*
X11617682Y-18147150D02*
X11655777Y-18147150D01*
X11655777Y-18147150D02*
X11674825Y-18156674D01*
X11751015Y-18356674D02*
X11760539Y-18347150D01*
X11760539Y-18347150D02*
X11779587Y-18318579D01*
X11779587Y-18318579D02*
X11789111Y-18299531D01*
X11789111Y-18299531D02*
X11798634Y-18270960D01*
X11798634Y-18270960D02*
X11808158Y-18223341D01*
X11808158Y-18223341D02*
X11808158Y-18185246D01*
X11808158Y-18185246D02*
X11798634Y-18137627D01*
X11798634Y-18137627D02*
X11789111Y-18109055D01*
X11789111Y-18109055D02*
X11779587Y-18090008D01*
X11779587Y-18090008D02*
X11760539Y-18061436D01*
X11760539Y-18061436D02*
X11751015Y-18051912D01*
X4965711Y-18579711D02*
X4965711Y-18438289D01*
X4824289Y-18438289D01*
X4824289Y-18579711D01*
X4965711Y-18579711D01*
X5236729Y-18400484D02*
X5360539Y-18400484D01*
X5360539Y-18400484D02*
X5293872Y-18476674D01*
X5293872Y-18476674D02*
X5322444Y-18476674D01*
X5322444Y-18476674D02*
X5341491Y-18486198D01*
X5341491Y-18486198D02*
X5351015Y-18495722D01*
X5351015Y-18495722D02*
X5360539Y-18514770D01*
X5360539Y-18514770D02*
X5360539Y-18562389D01*
X5360539Y-18562389D02*
X5351015Y-18581436D01*
X5351015Y-18581436D02*
X5341491Y-18590960D01*
X5341491Y-18590960D02*
X5322444Y-18600484D01*
X5322444Y-18600484D02*
X5265301Y-18600484D01*
X5265301Y-18600484D02*
X5246253Y-18590960D01*
X5246253Y-18590960D02*
X5236729Y-18581436D01*
X5446253Y-18581436D02*
X5455777Y-18590960D01*
X5455777Y-18590960D02*
X5446253Y-18600484D01*
X5446253Y-18600484D02*
X5436729Y-18590960D01*
X5436729Y-18590960D02*
X5446253Y-18581436D01*
X5446253Y-18581436D02*
X5446253Y-18600484D01*
X5646253Y-18600484D02*
X5531967Y-18600484D01*
X5589110Y-18600484D02*
X5589110Y-18400484D01*
X5589110Y-18400484D02*
X5570063Y-18429055D01*
X5570063Y-18429055D02*
X5551015Y-18448103D01*
X5551015Y-18448103D02*
X5531967Y-18457627D01*
X5770062Y-18400484D02*
X5789110Y-18400484D01*
X5789110Y-18400484D02*
X5808158Y-18410008D01*
X5808158Y-18410008D02*
X5817682Y-18419531D01*
X5817682Y-18419531D02*
X5827205Y-18438579D01*
X5827205Y-18438579D02*
X5836729Y-18476674D01*
X5836729Y-18476674D02*
X5836729Y-18524293D01*
X5836729Y-18524293D02*
X5827205Y-18562389D01*
X5827205Y-18562389D02*
X5817682Y-18581436D01*
X5817682Y-18581436D02*
X5808158Y-18590960D01*
X5808158Y-18590960D02*
X5789110Y-18600484D01*
X5789110Y-18600484D02*
X5770062Y-18600484D01*
X5770062Y-18600484D02*
X5751015Y-18590960D01*
X5751015Y-18590960D02*
X5741491Y-18581436D01*
X5741491Y-18581436D02*
X5731967Y-18562389D01*
X5731967Y-18562389D02*
X5722443Y-18524293D01*
X5722443Y-18524293D02*
X5722443Y-18476674D01*
X5722443Y-18476674D02*
X5731967Y-18438579D01*
X5731967Y-18438579D02*
X5741491Y-18419531D01*
X5741491Y-18419531D02*
X5751015Y-18410008D01*
X5751015Y-18410008D02*
X5770062Y-18400484D01*
X5960539Y-18400484D02*
X5979586Y-18400484D01*
X5979586Y-18400484D02*
X5998634Y-18410008D01*
X5998634Y-18410008D02*
X6008158Y-18419531D01*
X6008158Y-18419531D02*
X6017682Y-18438579D01*
X6017682Y-18438579D02*
X6027205Y-18476674D01*
X6027205Y-18476674D02*
X6027205Y-18524293D01*
X6027205Y-18524293D02*
X6017682Y-18562389D01*
X6017682Y-18562389D02*
X6008158Y-18581436D01*
X6008158Y-18581436D02*
X5998634Y-18590960D01*
X5998634Y-18590960D02*
X5979586Y-18600484D01*
X5979586Y-18600484D02*
X5960539Y-18600484D01*
X5960539Y-18600484D02*
X5941491Y-18590960D01*
X5941491Y-18590960D02*
X5931967Y-18581436D01*
X5931967Y-18581436D02*
X5922443Y-18562389D01*
X5922443Y-18562389D02*
X5912920Y-18524293D01*
X5912920Y-18524293D02*
X5912920Y-18476674D01*
X5912920Y-18476674D02*
X5922443Y-18438579D01*
X5922443Y-18438579D02*
X5931967Y-18419531D01*
X5931967Y-18419531D02*
X5941491Y-18410008D01*
X5941491Y-18410008D02*
X5960539Y-18400484D01*
X6112920Y-18600484D02*
X6112920Y-18467150D01*
X6112920Y-18486198D02*
X6122443Y-18476674D01*
X6122443Y-18476674D02*
X6141491Y-18467150D01*
X6141491Y-18467150D02*
X6170063Y-18467150D01*
X6170063Y-18467150D02*
X6189110Y-18476674D01*
X6189110Y-18476674D02*
X6198634Y-18495722D01*
X6198634Y-18495722D02*
X6198634Y-18600484D01*
X6198634Y-18495722D02*
X6208158Y-18476674D01*
X6208158Y-18476674D02*
X6227205Y-18467150D01*
X6227205Y-18467150D02*
X6255777Y-18467150D01*
X6255777Y-18467150D02*
X6274824Y-18476674D01*
X6274824Y-18476674D02*
X6284348Y-18495722D01*
X6284348Y-18495722D02*
X6284348Y-18600484D01*
X6379586Y-18600484D02*
X6379586Y-18467150D01*
X6379586Y-18486198D02*
X6389110Y-18476674D01*
X6389110Y-18476674D02*
X6408158Y-18467150D01*
X6408158Y-18467150D02*
X6436729Y-18467150D01*
X6436729Y-18467150D02*
X6455777Y-18476674D01*
X6455777Y-18476674D02*
X6465301Y-18495722D01*
X6465301Y-18495722D02*
X6465301Y-18600484D01*
X6465301Y-18495722D02*
X6474824Y-18476674D01*
X6474824Y-18476674D02*
X6493872Y-18467150D01*
X6493872Y-18467150D02*
X6522443Y-18467150D01*
X6522443Y-18467150D02*
X6541491Y-18476674D01*
X6541491Y-18476674D02*
X6551015Y-18495722D01*
X6551015Y-18495722D02*
X6551015Y-18600484D01*
X6941491Y-18390960D02*
X6770063Y-18648103D01*
X7198634Y-18400484D02*
X7217682Y-18400484D01*
X7217682Y-18400484D02*
X7236729Y-18410008D01*
X7236729Y-18410008D02*
X7246253Y-18419531D01*
X7246253Y-18419531D02*
X7255777Y-18438579D01*
X7255777Y-18438579D02*
X7265301Y-18476674D01*
X7265301Y-18476674D02*
X7265301Y-18524293D01*
X7265301Y-18524293D02*
X7255777Y-18562389D01*
X7255777Y-18562389D02*
X7246253Y-18581436D01*
X7246253Y-18581436D02*
X7236729Y-18590960D01*
X7236729Y-18590960D02*
X7217682Y-18600484D01*
X7217682Y-18600484D02*
X7198634Y-18600484D01*
X7198634Y-18600484D02*
X7179586Y-18590960D01*
X7179586Y-18590960D02*
X7170063Y-18581436D01*
X7170063Y-18581436D02*
X7160539Y-18562389D01*
X7160539Y-18562389D02*
X7151015Y-18524293D01*
X7151015Y-18524293D02*
X7151015Y-18476674D01*
X7151015Y-18476674D02*
X7160539Y-18438579D01*
X7160539Y-18438579D02*
X7170063Y-18419531D01*
X7170063Y-18419531D02*
X7179586Y-18410008D01*
X7179586Y-18410008D02*
X7198634Y-18400484D01*
X7351015Y-18581436D02*
X7360539Y-18590960D01*
X7360539Y-18590960D02*
X7351015Y-18600484D01*
X7351015Y-18600484D02*
X7341491Y-18590960D01*
X7341491Y-18590960D02*
X7351015Y-18581436D01*
X7351015Y-18581436D02*
X7351015Y-18600484D01*
X7551015Y-18600484D02*
X7436729Y-18600484D01*
X7493872Y-18600484D02*
X7493872Y-18400484D01*
X7493872Y-18400484D02*
X7474825Y-18429055D01*
X7474825Y-18429055D02*
X7455777Y-18448103D01*
X7455777Y-18448103D02*
X7436729Y-18457627D01*
X7627206Y-18419531D02*
X7636729Y-18410008D01*
X7636729Y-18410008D02*
X7655777Y-18400484D01*
X7655777Y-18400484D02*
X7703396Y-18400484D01*
X7703396Y-18400484D02*
X7722444Y-18410008D01*
X7722444Y-18410008D02*
X7731967Y-18419531D01*
X7731967Y-18419531D02*
X7741491Y-18438579D01*
X7741491Y-18438579D02*
X7741491Y-18457627D01*
X7741491Y-18457627D02*
X7731967Y-18486198D01*
X7731967Y-18486198D02*
X7617682Y-18600484D01*
X7617682Y-18600484D02*
X7741491Y-18600484D01*
X7817682Y-18419531D02*
X7827206Y-18410008D01*
X7827206Y-18410008D02*
X7846253Y-18400484D01*
X7846253Y-18400484D02*
X7893872Y-18400484D01*
X7893872Y-18400484D02*
X7912920Y-18410008D01*
X7912920Y-18410008D02*
X7922444Y-18419531D01*
X7922444Y-18419531D02*
X7931967Y-18438579D01*
X7931967Y-18438579D02*
X7931967Y-18457627D01*
X7931967Y-18457627D02*
X7922444Y-18486198D01*
X7922444Y-18486198D02*
X7808158Y-18600484D01*
X7808158Y-18600484D02*
X7931967Y-18600484D01*
X8055777Y-18400484D02*
X8074825Y-18400484D01*
X8074825Y-18400484D02*
X8093872Y-18410008D01*
X8093872Y-18410008D02*
X8103396Y-18419531D01*
X8103396Y-18419531D02*
X8112920Y-18438579D01*
X8112920Y-18438579D02*
X8122444Y-18476674D01*
X8122444Y-18476674D02*
X8122444Y-18524293D01*
X8122444Y-18524293D02*
X8112920Y-18562389D01*
X8112920Y-18562389D02*
X8103396Y-18581436D01*
X8103396Y-18581436D02*
X8093872Y-18590960D01*
X8093872Y-18590960D02*
X8074825Y-18600484D01*
X8074825Y-18600484D02*
X8055777Y-18600484D01*
X8055777Y-18600484D02*
X8036729Y-18590960D01*
X8036729Y-18590960D02*
X8027206Y-18581436D01*
X8027206Y-18581436D02*
X8017682Y-18562389D01*
X8017682Y-18562389D02*
X8008158Y-18524293D01*
X8008158Y-18524293D02*
X8008158Y-18476674D01*
X8008158Y-18476674D02*
X8017682Y-18438579D01*
X8017682Y-18438579D02*
X8027206Y-18419531D01*
X8027206Y-18419531D02*
X8036729Y-18410008D01*
X8036729Y-18410008D02*
X8055777Y-18400484D01*
X8198634Y-18400484D02*
X8198634Y-18438579D01*
X8274825Y-18400484D02*
X8274825Y-18438579D01*
X8570063Y-18676674D02*
X8560539Y-18667150D01*
X8560539Y-18667150D02*
X8541491Y-18638579D01*
X8541491Y-18638579D02*
X8531968Y-18619531D01*
X8531968Y-18619531D02*
X8522444Y-18590960D01*
X8522444Y-18590960D02*
X8512920Y-18543341D01*
X8512920Y-18543341D02*
X8512920Y-18505246D01*
X8512920Y-18505246D02*
X8522444Y-18457627D01*
X8522444Y-18457627D02*
X8531968Y-18429055D01*
X8531968Y-18429055D02*
X8541491Y-18410008D01*
X8541491Y-18410008D02*
X8560539Y-18381436D01*
X8560539Y-18381436D02*
X8570063Y-18371912D01*
X8731968Y-18467150D02*
X8731968Y-18600484D01*
X8684349Y-18390960D02*
X8636730Y-18533817D01*
X8636730Y-18533817D02*
X8760539Y-18533817D01*
X8989111Y-18600484D02*
X8989111Y-18400484D01*
X9074825Y-18600484D02*
X9074825Y-18495722D01*
X9074825Y-18495722D02*
X9065301Y-18476674D01*
X9065301Y-18476674D02*
X9046253Y-18467150D01*
X9046253Y-18467150D02*
X9017682Y-18467150D01*
X9017682Y-18467150D02*
X8998634Y-18476674D01*
X8998634Y-18476674D02*
X8989111Y-18486198D01*
X9198634Y-18600484D02*
X9179587Y-18590960D01*
X9179587Y-18590960D02*
X9170063Y-18581436D01*
X9170063Y-18581436D02*
X9160539Y-18562389D01*
X9160539Y-18562389D02*
X9160539Y-18505246D01*
X9160539Y-18505246D02*
X9170063Y-18486198D01*
X9170063Y-18486198D02*
X9179587Y-18476674D01*
X9179587Y-18476674D02*
X9198634Y-18467150D01*
X9198634Y-18467150D02*
X9227206Y-18467150D01*
X9227206Y-18467150D02*
X9246253Y-18476674D01*
X9246253Y-18476674D02*
X9255777Y-18486198D01*
X9255777Y-18486198D02*
X9265301Y-18505246D01*
X9265301Y-18505246D02*
X9265301Y-18562389D01*
X9265301Y-18562389D02*
X9255777Y-18581436D01*
X9255777Y-18581436D02*
X9246253Y-18590960D01*
X9246253Y-18590960D02*
X9227206Y-18600484D01*
X9227206Y-18600484D02*
X9198634Y-18600484D01*
X9379587Y-18600484D02*
X9360539Y-18590960D01*
X9360539Y-18590960D02*
X9351015Y-18571912D01*
X9351015Y-18571912D02*
X9351015Y-18400484D01*
X9531968Y-18590960D02*
X9512920Y-18600484D01*
X9512920Y-18600484D02*
X9474825Y-18600484D01*
X9474825Y-18600484D02*
X9455777Y-18590960D01*
X9455777Y-18590960D02*
X9446253Y-18571912D01*
X9446253Y-18571912D02*
X9446253Y-18495722D01*
X9446253Y-18495722D02*
X9455777Y-18476674D01*
X9455777Y-18476674D02*
X9474825Y-18467150D01*
X9474825Y-18467150D02*
X9512920Y-18467150D01*
X9512920Y-18467150D02*
X9531968Y-18476674D01*
X9531968Y-18476674D02*
X9541492Y-18495722D01*
X9541492Y-18495722D02*
X9541492Y-18514770D01*
X9541492Y-18514770D02*
X9446253Y-18533817D01*
X9617682Y-18590960D02*
X9636730Y-18600484D01*
X9636730Y-18600484D02*
X9674825Y-18600484D01*
X9674825Y-18600484D02*
X9693873Y-18590960D01*
X9693873Y-18590960D02*
X9703396Y-18571912D01*
X9703396Y-18571912D02*
X9703396Y-18562389D01*
X9703396Y-18562389D02*
X9693873Y-18543341D01*
X9693873Y-18543341D02*
X9674825Y-18533817D01*
X9674825Y-18533817D02*
X9646253Y-18533817D01*
X9646253Y-18533817D02*
X9627206Y-18524293D01*
X9627206Y-18524293D02*
X9617682Y-18505246D01*
X9617682Y-18505246D02*
X9617682Y-18495722D01*
X9617682Y-18495722D02*
X9627206Y-18476674D01*
X9627206Y-18476674D02*
X9646253Y-18467150D01*
X9646253Y-18467150D02*
X9674825Y-18467150D01*
X9674825Y-18467150D02*
X9693873Y-18476674D01*
X9770063Y-18676674D02*
X9779587Y-18667150D01*
X9779587Y-18667150D02*
X9798634Y-18638579D01*
X9798634Y-18638579D02*
X9808158Y-18619531D01*
X9808158Y-18619531D02*
X9817682Y-18590960D01*
X9817682Y-18590960D02*
X9827206Y-18543341D01*
X9827206Y-18543341D02*
X9827206Y-18505246D01*
X9827206Y-18505246D02*
X9817682Y-18457627D01*
X9817682Y-18457627D02*
X9808158Y-18429055D01*
X9808158Y-18429055D02*
X9798634Y-18410008D01*
X9798634Y-18410008D02*
X9779587Y-18381436D01*
X9779587Y-18381436D02*
X9770063Y-18371912D01*
X10131968Y-18676674D02*
X10122444Y-18667150D01*
X10122444Y-18667150D02*
X10103396Y-18638579D01*
X10103396Y-18638579D02*
X10093873Y-18619531D01*
X10093873Y-18619531D02*
X10084349Y-18590960D01*
X10084349Y-18590960D02*
X10074825Y-18543341D01*
X10074825Y-18543341D02*
X10074825Y-18505246D01*
X10074825Y-18505246D02*
X10084349Y-18457627D01*
X10084349Y-18457627D02*
X10093873Y-18429055D01*
X10093873Y-18429055D02*
X10103396Y-18410008D01*
X10103396Y-18410008D02*
X10122444Y-18381436D01*
X10122444Y-18381436D02*
X10131968Y-18371912D01*
X10208158Y-18467150D02*
X10208158Y-18600484D01*
X10208158Y-18486198D02*
X10217682Y-18476674D01*
X10217682Y-18476674D02*
X10236730Y-18467150D01*
X10236730Y-18467150D02*
X10265301Y-18467150D01*
X10265301Y-18467150D02*
X10284349Y-18476674D01*
X10284349Y-18476674D02*
X10293873Y-18495722D01*
X10293873Y-18495722D02*
X10293873Y-18600484D01*
X10417682Y-18600484D02*
X10398634Y-18590960D01*
X10398634Y-18590960D02*
X10389111Y-18581436D01*
X10389111Y-18581436D02*
X10379587Y-18562389D01*
X10379587Y-18562389D02*
X10379587Y-18505246D01*
X10379587Y-18505246D02*
X10389111Y-18486198D01*
X10389111Y-18486198D02*
X10398634Y-18476674D01*
X10398634Y-18476674D02*
X10417682Y-18467150D01*
X10417682Y-18467150D02*
X10446254Y-18467150D01*
X10446254Y-18467150D02*
X10465301Y-18476674D01*
X10465301Y-18476674D02*
X10474825Y-18486198D01*
X10474825Y-18486198D02*
X10484349Y-18505246D01*
X10484349Y-18505246D02*
X10484349Y-18562389D01*
X10484349Y-18562389D02*
X10474825Y-18581436D01*
X10474825Y-18581436D02*
X10465301Y-18590960D01*
X10465301Y-18590960D02*
X10446254Y-18600484D01*
X10446254Y-18600484D02*
X10417682Y-18600484D01*
X10541492Y-18467150D02*
X10617682Y-18467150D01*
X10570063Y-18400484D02*
X10570063Y-18571912D01*
X10570063Y-18571912D02*
X10579587Y-18590960D01*
X10579587Y-18590960D02*
X10598634Y-18600484D01*
X10598634Y-18600484D02*
X10617682Y-18600484D01*
X10836730Y-18467150D02*
X10836730Y-18667150D01*
X10836730Y-18476674D02*
X10855777Y-18467150D01*
X10855777Y-18467150D02*
X10893873Y-18467150D01*
X10893873Y-18467150D02*
X10912920Y-18476674D01*
X10912920Y-18476674D02*
X10922444Y-18486198D01*
X10922444Y-18486198D02*
X10931968Y-18505246D01*
X10931968Y-18505246D02*
X10931968Y-18562389D01*
X10931968Y-18562389D02*
X10922444Y-18581436D01*
X10922444Y-18581436D02*
X10912920Y-18590960D01*
X10912920Y-18590960D02*
X10893873Y-18600484D01*
X10893873Y-18600484D02*
X10855777Y-18600484D01*
X10855777Y-18600484D02*
X10836730Y-18590960D01*
X11046254Y-18600484D02*
X11027206Y-18590960D01*
X11027206Y-18590960D02*
X11017682Y-18571912D01*
X11017682Y-18571912D02*
X11017682Y-18400484D01*
X11208158Y-18600484D02*
X11208158Y-18495722D01*
X11208158Y-18495722D02*
X11198634Y-18476674D01*
X11198634Y-18476674D02*
X11179587Y-18467150D01*
X11179587Y-18467150D02*
X11141492Y-18467150D01*
X11141492Y-18467150D02*
X11122444Y-18476674D01*
X11208158Y-18590960D02*
X11189111Y-18600484D01*
X11189111Y-18600484D02*
X11141492Y-18600484D01*
X11141492Y-18600484D02*
X11122444Y-18590960D01*
X11122444Y-18590960D02*
X11112920Y-18571912D01*
X11112920Y-18571912D02*
X11112920Y-18552865D01*
X11112920Y-18552865D02*
X11122444Y-18533817D01*
X11122444Y-18533817D02*
X11141492Y-18524293D01*
X11141492Y-18524293D02*
X11189111Y-18524293D01*
X11189111Y-18524293D02*
X11208158Y-18514770D01*
X11274825Y-18467150D02*
X11351015Y-18467150D01*
X11303396Y-18400484D02*
X11303396Y-18571912D01*
X11303396Y-18571912D02*
X11312920Y-18590960D01*
X11312920Y-18590960D02*
X11331968Y-18600484D01*
X11331968Y-18600484D02*
X11351015Y-18600484D01*
X11493873Y-18590960D02*
X11474825Y-18600484D01*
X11474825Y-18600484D02*
X11436730Y-18600484D01*
X11436730Y-18600484D02*
X11417682Y-18590960D01*
X11417682Y-18590960D02*
X11408158Y-18571912D01*
X11408158Y-18571912D02*
X11408158Y-18495722D01*
X11408158Y-18495722D02*
X11417682Y-18476674D01*
X11417682Y-18476674D02*
X11436730Y-18467150D01*
X11436730Y-18467150D02*
X11474825Y-18467150D01*
X11474825Y-18467150D02*
X11493873Y-18476674D01*
X11493873Y-18476674D02*
X11503396Y-18495722D01*
X11503396Y-18495722D02*
X11503396Y-18514770D01*
X11503396Y-18514770D02*
X11408158Y-18533817D01*
X11674825Y-18600484D02*
X11674825Y-18400484D01*
X11674825Y-18590960D02*
X11655777Y-18600484D01*
X11655777Y-18600484D02*
X11617682Y-18600484D01*
X11617682Y-18600484D02*
X11598634Y-18590960D01*
X11598634Y-18590960D02*
X11589111Y-18581436D01*
X11589111Y-18581436D02*
X11579587Y-18562389D01*
X11579587Y-18562389D02*
X11579587Y-18505246D01*
X11579587Y-18505246D02*
X11589111Y-18486198D01*
X11589111Y-18486198D02*
X11598634Y-18476674D01*
X11598634Y-18476674D02*
X11617682Y-18467150D01*
X11617682Y-18467150D02*
X11655777Y-18467150D01*
X11655777Y-18467150D02*
X11674825Y-18476674D01*
X11751015Y-18676674D02*
X11760539Y-18667150D01*
X11760539Y-18667150D02*
X11779587Y-18638579D01*
X11779587Y-18638579D02*
X11789111Y-18619531D01*
X11789111Y-18619531D02*
X11798634Y-18590960D01*
X11798634Y-18590960D02*
X11808158Y-18543341D01*
X11808158Y-18543341D02*
X11808158Y-18505246D01*
X11808158Y-18505246D02*
X11798634Y-18457627D01*
X11798634Y-18457627D02*
X11789111Y-18429055D01*
X11789111Y-18429055D02*
X11779587Y-18410008D01*
X11779587Y-18410008D02*
X11760539Y-18381436D01*
X11760539Y-18381436D02*
X11751015Y-18371912D01*
X4895000Y-18929000D02*
X4995000Y-18829000D01*
X4895000Y-18729000D01*
X4795000Y-18829000D01*
X4895000Y-18929000D01*
X5236729Y-18720484D02*
X5360539Y-18720484D01*
X5360539Y-18720484D02*
X5293872Y-18796674D01*
X5293872Y-18796674D02*
X5322444Y-18796674D01*
X5322444Y-18796674D02*
X5341491Y-18806198D01*
X5341491Y-18806198D02*
X5351015Y-18815722D01*
X5351015Y-18815722D02*
X5360539Y-18834770D01*
X5360539Y-18834770D02*
X5360539Y-18882389D01*
X5360539Y-18882389D02*
X5351015Y-18901436D01*
X5351015Y-18901436D02*
X5341491Y-18910960D01*
X5341491Y-18910960D02*
X5322444Y-18920484D01*
X5322444Y-18920484D02*
X5265301Y-18920484D01*
X5265301Y-18920484D02*
X5246253Y-18910960D01*
X5246253Y-18910960D02*
X5236729Y-18901436D01*
X5446253Y-18901436D02*
X5455777Y-18910960D01*
X5455777Y-18910960D02*
X5446253Y-18920484D01*
X5446253Y-18920484D02*
X5436729Y-18910960D01*
X5436729Y-18910960D02*
X5446253Y-18901436D01*
X5446253Y-18901436D02*
X5446253Y-18920484D01*
X5531967Y-18739531D02*
X5541491Y-18730008D01*
X5541491Y-18730008D02*
X5560539Y-18720484D01*
X5560539Y-18720484D02*
X5608158Y-18720484D01*
X5608158Y-18720484D02*
X5627205Y-18730008D01*
X5627205Y-18730008D02*
X5636729Y-18739531D01*
X5636729Y-18739531D02*
X5646253Y-18758579D01*
X5646253Y-18758579D02*
X5646253Y-18777627D01*
X5646253Y-18777627D02*
X5636729Y-18806198D01*
X5636729Y-18806198D02*
X5522444Y-18920484D01*
X5522444Y-18920484D02*
X5646253Y-18920484D01*
X5770062Y-18720484D02*
X5789110Y-18720484D01*
X5789110Y-18720484D02*
X5808158Y-18730008D01*
X5808158Y-18730008D02*
X5817682Y-18739531D01*
X5817682Y-18739531D02*
X5827205Y-18758579D01*
X5827205Y-18758579D02*
X5836729Y-18796674D01*
X5836729Y-18796674D02*
X5836729Y-18844293D01*
X5836729Y-18844293D02*
X5827205Y-18882389D01*
X5827205Y-18882389D02*
X5817682Y-18901436D01*
X5817682Y-18901436D02*
X5808158Y-18910960D01*
X5808158Y-18910960D02*
X5789110Y-18920484D01*
X5789110Y-18920484D02*
X5770062Y-18920484D01*
X5770062Y-18920484D02*
X5751015Y-18910960D01*
X5751015Y-18910960D02*
X5741491Y-18901436D01*
X5741491Y-18901436D02*
X5731967Y-18882389D01*
X5731967Y-18882389D02*
X5722443Y-18844293D01*
X5722443Y-18844293D02*
X5722443Y-18796674D01*
X5722443Y-18796674D02*
X5731967Y-18758579D01*
X5731967Y-18758579D02*
X5741491Y-18739531D01*
X5741491Y-18739531D02*
X5751015Y-18730008D01*
X5751015Y-18730008D02*
X5770062Y-18720484D01*
X5960539Y-18720484D02*
X5979586Y-18720484D01*
X5979586Y-18720484D02*
X5998634Y-18730008D01*
X5998634Y-18730008D02*
X6008158Y-18739531D01*
X6008158Y-18739531D02*
X6017682Y-18758579D01*
X6017682Y-18758579D02*
X6027205Y-18796674D01*
X6027205Y-18796674D02*
X6027205Y-18844293D01*
X6027205Y-18844293D02*
X6017682Y-18882389D01*
X6017682Y-18882389D02*
X6008158Y-18901436D01*
X6008158Y-18901436D02*
X5998634Y-18910960D01*
X5998634Y-18910960D02*
X5979586Y-18920484D01*
X5979586Y-18920484D02*
X5960539Y-18920484D01*
X5960539Y-18920484D02*
X5941491Y-18910960D01*
X5941491Y-18910960D02*
X5931967Y-18901436D01*
X5931967Y-18901436D02*
X5922443Y-18882389D01*
X5922443Y-18882389D02*
X5912920Y-18844293D01*
X5912920Y-18844293D02*
X5912920Y-18796674D01*
X5912920Y-18796674D02*
X5922443Y-18758579D01*
X5922443Y-18758579D02*
X5931967Y-18739531D01*
X5931967Y-18739531D02*
X5941491Y-18730008D01*
X5941491Y-18730008D02*
X5960539Y-18720484D01*
X6112920Y-18920484D02*
X6112920Y-18787150D01*
X6112920Y-18806198D02*
X6122443Y-18796674D01*
X6122443Y-18796674D02*
X6141491Y-18787150D01*
X6141491Y-18787150D02*
X6170063Y-18787150D01*
X6170063Y-18787150D02*
X6189110Y-18796674D01*
X6189110Y-18796674D02*
X6198634Y-18815722D01*
X6198634Y-18815722D02*
X6198634Y-18920484D01*
X6198634Y-18815722D02*
X6208158Y-18796674D01*
X6208158Y-18796674D02*
X6227205Y-18787150D01*
X6227205Y-18787150D02*
X6255777Y-18787150D01*
X6255777Y-18787150D02*
X6274824Y-18796674D01*
X6274824Y-18796674D02*
X6284348Y-18815722D01*
X6284348Y-18815722D02*
X6284348Y-18920484D01*
X6379586Y-18920484D02*
X6379586Y-18787150D01*
X6379586Y-18806198D02*
X6389110Y-18796674D01*
X6389110Y-18796674D02*
X6408158Y-18787150D01*
X6408158Y-18787150D02*
X6436729Y-18787150D01*
X6436729Y-18787150D02*
X6455777Y-18796674D01*
X6455777Y-18796674D02*
X6465301Y-18815722D01*
X6465301Y-18815722D02*
X6465301Y-18920484D01*
X6465301Y-18815722D02*
X6474824Y-18796674D01*
X6474824Y-18796674D02*
X6493872Y-18787150D01*
X6493872Y-18787150D02*
X6522443Y-18787150D01*
X6522443Y-18787150D02*
X6541491Y-18796674D01*
X6541491Y-18796674D02*
X6551015Y-18815722D01*
X6551015Y-18815722D02*
X6551015Y-18920484D01*
X6941491Y-18710960D02*
X6770063Y-18968103D01*
X7198634Y-18720484D02*
X7217682Y-18720484D01*
X7217682Y-18720484D02*
X7236729Y-18730008D01*
X7236729Y-18730008D02*
X7246253Y-18739531D01*
X7246253Y-18739531D02*
X7255777Y-18758579D01*
X7255777Y-18758579D02*
X7265301Y-18796674D01*
X7265301Y-18796674D02*
X7265301Y-18844293D01*
X7265301Y-18844293D02*
X7255777Y-18882389D01*
X7255777Y-18882389D02*
X7246253Y-18901436D01*
X7246253Y-18901436D02*
X7236729Y-18910960D01*
X7236729Y-18910960D02*
X7217682Y-18920484D01*
X7217682Y-18920484D02*
X7198634Y-18920484D01*
X7198634Y-18920484D02*
X7179586Y-18910960D01*
X7179586Y-18910960D02*
X7170063Y-18901436D01*
X7170063Y-18901436D02*
X7160539Y-18882389D01*
X7160539Y-18882389D02*
X7151015Y-18844293D01*
X7151015Y-18844293D02*
X7151015Y-18796674D01*
X7151015Y-18796674D02*
X7160539Y-18758579D01*
X7160539Y-18758579D02*
X7170063Y-18739531D01*
X7170063Y-18739531D02*
X7179586Y-18730008D01*
X7179586Y-18730008D02*
X7198634Y-18720484D01*
X7351015Y-18901436D02*
X7360539Y-18910960D01*
X7360539Y-18910960D02*
X7351015Y-18920484D01*
X7351015Y-18920484D02*
X7341491Y-18910960D01*
X7341491Y-18910960D02*
X7351015Y-18901436D01*
X7351015Y-18901436D02*
X7351015Y-18920484D01*
X7551015Y-18920484D02*
X7436729Y-18920484D01*
X7493872Y-18920484D02*
X7493872Y-18720484D01*
X7493872Y-18720484D02*
X7474825Y-18749055D01*
X7474825Y-18749055D02*
X7455777Y-18768103D01*
X7455777Y-18768103D02*
X7436729Y-18777627D01*
X7627206Y-18739531D02*
X7636729Y-18730008D01*
X7636729Y-18730008D02*
X7655777Y-18720484D01*
X7655777Y-18720484D02*
X7703396Y-18720484D01*
X7703396Y-18720484D02*
X7722444Y-18730008D01*
X7722444Y-18730008D02*
X7731967Y-18739531D01*
X7731967Y-18739531D02*
X7741491Y-18758579D01*
X7741491Y-18758579D02*
X7741491Y-18777627D01*
X7741491Y-18777627D02*
X7731967Y-18806198D01*
X7731967Y-18806198D02*
X7617682Y-18920484D01*
X7617682Y-18920484D02*
X7741491Y-18920484D01*
X7912920Y-18720484D02*
X7874825Y-18720484D01*
X7874825Y-18720484D02*
X7855777Y-18730008D01*
X7855777Y-18730008D02*
X7846253Y-18739531D01*
X7846253Y-18739531D02*
X7827206Y-18768103D01*
X7827206Y-18768103D02*
X7817682Y-18806198D01*
X7817682Y-18806198D02*
X7817682Y-18882389D01*
X7817682Y-18882389D02*
X7827206Y-18901436D01*
X7827206Y-18901436D02*
X7836729Y-18910960D01*
X7836729Y-18910960D02*
X7855777Y-18920484D01*
X7855777Y-18920484D02*
X7893872Y-18920484D01*
X7893872Y-18920484D02*
X7912920Y-18910960D01*
X7912920Y-18910960D02*
X7922444Y-18901436D01*
X7922444Y-18901436D02*
X7931967Y-18882389D01*
X7931967Y-18882389D02*
X7931967Y-18834770D01*
X7931967Y-18834770D02*
X7922444Y-18815722D01*
X7922444Y-18815722D02*
X7912920Y-18806198D01*
X7912920Y-18806198D02*
X7893872Y-18796674D01*
X7893872Y-18796674D02*
X7855777Y-18796674D01*
X7855777Y-18796674D02*
X7836729Y-18806198D01*
X7836729Y-18806198D02*
X7827206Y-18815722D01*
X7827206Y-18815722D02*
X7817682Y-18834770D01*
X8055777Y-18720484D02*
X8074825Y-18720484D01*
X8074825Y-18720484D02*
X8093872Y-18730008D01*
X8093872Y-18730008D02*
X8103396Y-18739531D01*
X8103396Y-18739531D02*
X8112920Y-18758579D01*
X8112920Y-18758579D02*
X8122444Y-18796674D01*
X8122444Y-18796674D02*
X8122444Y-18844293D01*
X8122444Y-18844293D02*
X8112920Y-18882389D01*
X8112920Y-18882389D02*
X8103396Y-18901436D01*
X8103396Y-18901436D02*
X8093872Y-18910960D01*
X8093872Y-18910960D02*
X8074825Y-18920484D01*
X8074825Y-18920484D02*
X8055777Y-18920484D01*
X8055777Y-18920484D02*
X8036729Y-18910960D01*
X8036729Y-18910960D02*
X8027206Y-18901436D01*
X8027206Y-18901436D02*
X8017682Y-18882389D01*
X8017682Y-18882389D02*
X8008158Y-18844293D01*
X8008158Y-18844293D02*
X8008158Y-18796674D01*
X8008158Y-18796674D02*
X8017682Y-18758579D01*
X8017682Y-18758579D02*
X8027206Y-18739531D01*
X8027206Y-18739531D02*
X8036729Y-18730008D01*
X8036729Y-18730008D02*
X8055777Y-18720484D01*
X8198634Y-18720484D02*
X8198634Y-18758579D01*
X8274825Y-18720484D02*
X8274825Y-18758579D01*
X8570063Y-18996674D02*
X8560539Y-18987150D01*
X8560539Y-18987150D02*
X8541491Y-18958579D01*
X8541491Y-18958579D02*
X8531968Y-18939531D01*
X8531968Y-18939531D02*
X8522444Y-18910960D01*
X8522444Y-18910960D02*
X8512920Y-18863341D01*
X8512920Y-18863341D02*
X8512920Y-18825246D01*
X8512920Y-18825246D02*
X8522444Y-18777627D01*
X8522444Y-18777627D02*
X8531968Y-18749055D01*
X8531968Y-18749055D02*
X8541491Y-18730008D01*
X8541491Y-18730008D02*
X8560539Y-18701436D01*
X8560539Y-18701436D02*
X8570063Y-18691912D01*
X8751015Y-18920484D02*
X8636730Y-18920484D01*
X8693872Y-18920484D02*
X8693872Y-18720484D01*
X8693872Y-18720484D02*
X8674825Y-18749055D01*
X8674825Y-18749055D02*
X8655777Y-18768103D01*
X8655777Y-18768103D02*
X8636730Y-18777627D01*
X8846253Y-18920484D02*
X8884349Y-18920484D01*
X8884349Y-18920484D02*
X8903396Y-18910960D01*
X8903396Y-18910960D02*
X8912920Y-18901436D01*
X8912920Y-18901436D02*
X8931968Y-18872865D01*
X8931968Y-18872865D02*
X8941491Y-18834770D01*
X8941491Y-18834770D02*
X8941491Y-18758579D01*
X8941491Y-18758579D02*
X8931968Y-18739531D01*
X8931968Y-18739531D02*
X8922444Y-18730008D01*
X8922444Y-18730008D02*
X8903396Y-18720484D01*
X8903396Y-18720484D02*
X8865301Y-18720484D01*
X8865301Y-18720484D02*
X8846253Y-18730008D01*
X8846253Y-18730008D02*
X8836730Y-18739531D01*
X8836730Y-18739531D02*
X8827206Y-18758579D01*
X8827206Y-18758579D02*
X8827206Y-18806198D01*
X8827206Y-18806198D02*
X8836730Y-18825246D01*
X8836730Y-18825246D02*
X8846253Y-18834770D01*
X8846253Y-18834770D02*
X8865301Y-18844293D01*
X8865301Y-18844293D02*
X8903396Y-18844293D01*
X8903396Y-18844293D02*
X8922444Y-18834770D01*
X8922444Y-18834770D02*
X8931968Y-18825246D01*
X8931968Y-18825246D02*
X8941491Y-18806198D01*
X9179587Y-18920484D02*
X9179587Y-18720484D01*
X9265301Y-18920484D02*
X9265301Y-18815722D01*
X9265301Y-18815722D02*
X9255777Y-18796674D01*
X9255777Y-18796674D02*
X9236730Y-18787150D01*
X9236730Y-18787150D02*
X9208158Y-18787150D01*
X9208158Y-18787150D02*
X9189111Y-18796674D01*
X9189111Y-18796674D02*
X9179587Y-18806198D01*
X9389111Y-18920484D02*
X9370063Y-18910960D01*
X9370063Y-18910960D02*
X9360539Y-18901436D01*
X9360539Y-18901436D02*
X9351015Y-18882389D01*
X9351015Y-18882389D02*
X9351015Y-18825246D01*
X9351015Y-18825246D02*
X9360539Y-18806198D01*
X9360539Y-18806198D02*
X9370063Y-18796674D01*
X9370063Y-18796674D02*
X9389111Y-18787150D01*
X9389111Y-18787150D02*
X9417682Y-18787150D01*
X9417682Y-18787150D02*
X9436730Y-18796674D01*
X9436730Y-18796674D02*
X9446253Y-18806198D01*
X9446253Y-18806198D02*
X9455777Y-18825246D01*
X9455777Y-18825246D02*
X9455777Y-18882389D01*
X9455777Y-18882389D02*
X9446253Y-18901436D01*
X9446253Y-18901436D02*
X9436730Y-18910960D01*
X9436730Y-18910960D02*
X9417682Y-18920484D01*
X9417682Y-18920484D02*
X9389111Y-18920484D01*
X9570063Y-18920484D02*
X9551015Y-18910960D01*
X9551015Y-18910960D02*
X9541492Y-18891912D01*
X9541492Y-18891912D02*
X9541492Y-18720484D01*
X9722444Y-18910960D02*
X9703396Y-18920484D01*
X9703396Y-18920484D02*
X9665301Y-18920484D01*
X9665301Y-18920484D02*
X9646253Y-18910960D01*
X9646253Y-18910960D02*
X9636730Y-18891912D01*
X9636730Y-18891912D02*
X9636730Y-18815722D01*
X9636730Y-18815722D02*
X9646253Y-18796674D01*
X9646253Y-18796674D02*
X9665301Y-18787150D01*
X9665301Y-18787150D02*
X9703396Y-18787150D01*
X9703396Y-18787150D02*
X9722444Y-18796674D01*
X9722444Y-18796674D02*
X9731968Y-18815722D01*
X9731968Y-18815722D02*
X9731968Y-18834770D01*
X9731968Y-18834770D02*
X9636730Y-18853817D01*
X9808158Y-18910960D02*
X9827206Y-18920484D01*
X9827206Y-18920484D02*
X9865301Y-18920484D01*
X9865301Y-18920484D02*
X9884349Y-18910960D01*
X9884349Y-18910960D02*
X9893873Y-18891912D01*
X9893873Y-18891912D02*
X9893873Y-18882389D01*
X9893873Y-18882389D02*
X9884349Y-18863341D01*
X9884349Y-18863341D02*
X9865301Y-18853817D01*
X9865301Y-18853817D02*
X9836730Y-18853817D01*
X9836730Y-18853817D02*
X9817682Y-18844293D01*
X9817682Y-18844293D02*
X9808158Y-18825246D01*
X9808158Y-18825246D02*
X9808158Y-18815722D01*
X9808158Y-18815722D02*
X9817682Y-18796674D01*
X9817682Y-18796674D02*
X9836730Y-18787150D01*
X9836730Y-18787150D02*
X9865301Y-18787150D01*
X9865301Y-18787150D02*
X9884349Y-18796674D01*
X9960539Y-18996674D02*
X9970063Y-18987150D01*
X9970063Y-18987150D02*
X9989111Y-18958579D01*
X9989111Y-18958579D02*
X9998634Y-18939531D01*
X9998634Y-18939531D02*
X10008158Y-18910960D01*
X10008158Y-18910960D02*
X10017682Y-18863341D01*
X10017682Y-18863341D02*
X10017682Y-18825246D01*
X10017682Y-18825246D02*
X10008158Y-18777627D01*
X10008158Y-18777627D02*
X9998634Y-18749055D01*
X9998634Y-18749055D02*
X9989111Y-18730008D01*
X9989111Y-18730008D02*
X9970063Y-18701436D01*
X9970063Y-18701436D02*
X9960539Y-18691912D01*
X10322444Y-18996674D02*
X10312920Y-18987150D01*
X10312920Y-18987150D02*
X10293873Y-18958579D01*
X10293873Y-18958579D02*
X10284349Y-18939531D01*
X10284349Y-18939531D02*
X10274825Y-18910960D01*
X10274825Y-18910960D02*
X10265301Y-18863341D01*
X10265301Y-18863341D02*
X10265301Y-18825246D01*
X10265301Y-18825246D02*
X10274825Y-18777627D01*
X10274825Y-18777627D02*
X10284349Y-18749055D01*
X10284349Y-18749055D02*
X10293873Y-18730008D01*
X10293873Y-18730008D02*
X10312920Y-18701436D01*
X10312920Y-18701436D02*
X10322444Y-18691912D01*
X10398634Y-18787150D02*
X10398634Y-18920484D01*
X10398634Y-18806198D02*
X10408158Y-18796674D01*
X10408158Y-18796674D02*
X10427206Y-18787150D01*
X10427206Y-18787150D02*
X10455777Y-18787150D01*
X10455777Y-18787150D02*
X10474825Y-18796674D01*
X10474825Y-18796674D02*
X10484349Y-18815722D01*
X10484349Y-18815722D02*
X10484349Y-18920484D01*
X10608158Y-18920484D02*
X10589111Y-18910960D01*
X10589111Y-18910960D02*
X10579587Y-18901436D01*
X10579587Y-18901436D02*
X10570063Y-18882389D01*
X10570063Y-18882389D02*
X10570063Y-18825246D01*
X10570063Y-18825246D02*
X10579587Y-18806198D01*
X10579587Y-18806198D02*
X10589111Y-18796674D01*
X10589111Y-18796674D02*
X10608158Y-18787150D01*
X10608158Y-18787150D02*
X10636730Y-18787150D01*
X10636730Y-18787150D02*
X10655777Y-18796674D01*
X10655777Y-18796674D02*
X10665301Y-18806198D01*
X10665301Y-18806198D02*
X10674825Y-18825246D01*
X10674825Y-18825246D02*
X10674825Y-18882389D01*
X10674825Y-18882389D02*
X10665301Y-18901436D01*
X10665301Y-18901436D02*
X10655777Y-18910960D01*
X10655777Y-18910960D02*
X10636730Y-18920484D01*
X10636730Y-18920484D02*
X10608158Y-18920484D01*
X10731968Y-18787150D02*
X10808158Y-18787150D01*
X10760539Y-18720484D02*
X10760539Y-18891912D01*
X10760539Y-18891912D02*
X10770063Y-18910960D01*
X10770063Y-18910960D02*
X10789111Y-18920484D01*
X10789111Y-18920484D02*
X10808158Y-18920484D01*
X11027206Y-18787150D02*
X11027206Y-18987150D01*
X11027206Y-18796674D02*
X11046254Y-18787150D01*
X11046254Y-18787150D02*
X11084349Y-18787150D01*
X11084349Y-18787150D02*
X11103396Y-18796674D01*
X11103396Y-18796674D02*
X11112920Y-18806198D01*
X11112920Y-18806198D02*
X11122444Y-18825246D01*
X11122444Y-18825246D02*
X11122444Y-18882389D01*
X11122444Y-18882389D02*
X11112920Y-18901436D01*
X11112920Y-18901436D02*
X11103396Y-18910960D01*
X11103396Y-18910960D02*
X11084349Y-18920484D01*
X11084349Y-18920484D02*
X11046254Y-18920484D01*
X11046254Y-18920484D02*
X11027206Y-18910960D01*
X11236730Y-18920484D02*
X11217682Y-18910960D01*
X11217682Y-18910960D02*
X11208158Y-18891912D01*
X11208158Y-18891912D02*
X11208158Y-18720484D01*
X11398634Y-18920484D02*
X11398634Y-18815722D01*
X11398634Y-18815722D02*
X11389111Y-18796674D01*
X11389111Y-18796674D02*
X11370063Y-18787150D01*
X11370063Y-18787150D02*
X11331968Y-18787150D01*
X11331968Y-18787150D02*
X11312920Y-18796674D01*
X11398634Y-18910960D02*
X11379587Y-18920484D01*
X11379587Y-18920484D02*
X11331968Y-18920484D01*
X11331968Y-18920484D02*
X11312920Y-18910960D01*
X11312920Y-18910960D02*
X11303396Y-18891912D01*
X11303396Y-18891912D02*
X11303396Y-18872865D01*
X11303396Y-18872865D02*
X11312920Y-18853817D01*
X11312920Y-18853817D02*
X11331968Y-18844293D01*
X11331968Y-18844293D02*
X11379587Y-18844293D01*
X11379587Y-18844293D02*
X11398634Y-18834770D01*
X11465301Y-18787150D02*
X11541492Y-18787150D01*
X11493873Y-18720484D02*
X11493873Y-18891912D01*
X11493873Y-18891912D02*
X11503396Y-18910960D01*
X11503396Y-18910960D02*
X11522444Y-18920484D01*
X11522444Y-18920484D02*
X11541492Y-18920484D01*
X11684349Y-18910960D02*
X11665301Y-18920484D01*
X11665301Y-18920484D02*
X11627206Y-18920484D01*
X11627206Y-18920484D02*
X11608158Y-18910960D01*
X11608158Y-18910960D02*
X11598634Y-18891912D01*
X11598634Y-18891912D02*
X11598634Y-18815722D01*
X11598634Y-18815722D02*
X11608158Y-18796674D01*
X11608158Y-18796674D02*
X11627206Y-18787150D01*
X11627206Y-18787150D02*
X11665301Y-18787150D01*
X11665301Y-18787150D02*
X11684349Y-18796674D01*
X11684349Y-18796674D02*
X11693873Y-18815722D01*
X11693873Y-18815722D02*
X11693873Y-18834770D01*
X11693873Y-18834770D02*
X11598634Y-18853817D01*
X11865301Y-18920484D02*
X11865301Y-18720484D01*
X11865301Y-18910960D02*
X11846254Y-18920484D01*
X11846254Y-18920484D02*
X11808158Y-18920484D01*
X11808158Y-18920484D02*
X11789111Y-18910960D01*
X11789111Y-18910960D02*
X11779587Y-18901436D01*
X11779587Y-18901436D02*
X11770063Y-18882389D01*
X11770063Y-18882389D02*
X11770063Y-18825246D01*
X11770063Y-18825246D02*
X11779587Y-18806198D01*
X11779587Y-18806198D02*
X11789111Y-18796674D01*
X11789111Y-18796674D02*
X11808158Y-18787150D01*
X11808158Y-18787150D02*
X11846254Y-18787150D01*
X11846254Y-18787150D02*
X11865301Y-18796674D01*
X11941492Y-18996674D02*
X11951015Y-18987150D01*
X11951015Y-18987150D02*
X11970063Y-18958579D01*
X11970063Y-18958579D02*
X11979587Y-18939531D01*
X11979587Y-18939531D02*
X11989111Y-18910960D01*
X11989111Y-18910960D02*
X11998634Y-18863341D01*
X11998634Y-18863341D02*
X11998634Y-18825246D01*
X11998634Y-18825246D02*
X11989111Y-18777627D01*
X11989111Y-18777627D02*
X11979587Y-18749055D01*
X11979587Y-18749055D02*
X11970063Y-18730008D01*
X11970063Y-18730008D02*
X11951015Y-18701436D01*
X11951015Y-18701436D02*
X11941492Y-18691912D01*
M02*
