M48
; DRILL file {KiCad 7.0.7} date Wed Jan  7 23:23:39 2026
; FORMAT={-:-/ absolute / metric / decimal}
; #@! TF.CreationDate,2026-01-07T23:23:39+03:00
; #@! TF.GenerationSoftware,Kicad,Pcbnew,7.0.7
; #@! TF.FileFunction,Plated,1,6,PTH
FMAT,2
METRIC
; #@! TA.AperFunction,Plated,PTH,ViaDrill
T1C0.300
; #@! TA.AperFunction,Plated,PTH,ViaDrill
T2C0.400
; #@! TA.AperFunction,Plated,PTH,ViaDrill
T3C0.500
; #@! TA.AperFunction,Plated,PTH,ComponentDrill
T4C0.800
; #@! TA.AperFunction,Plated,PTH,ComponentDrill
T5C0.900
; #@! TA.AperFunction,Plated,PTH,ComponentDrill
T6C0.950
; #@! TA.AperFunction,Plated,PTH,ComponentDrill
T7C1.000
; #@! TA.AperFunction,Plated,PTH,ComponentDrill
T8C1.100
; #@! TA.AperFunction,Plated,PTH,ComponentDrill
T9C1.200
; #@! TA.AperFunction,Plated,PTH,ComponentDrill
T10C1.600
; #@! TA.AperFunction,Plated,PTH,ComponentDrill
T11C2.300
%
G90
G05
T1
X57.232Y-92.86
X58.064Y-79.502
X60.006Y-93.834
X60.144Y-98.689
X61.392Y-77.572
X62.001Y-88.646
X62.916Y-145.276
X63.046Y-75.885
X63.068Y-77.775
X64.211Y-78.74
X66.243Y-145.174
X67.462Y-81.864
X67.958Y-95.698
X70.663Y-92.71
X70.836Y-91.034
X70.866Y-95.885
X70.929Y-109.512
X70.962Y-94.399
X70.962Y-97.333
X70.968Y-87.833
X71.145Y-99.466
X71.996Y-76.848
X72.339Y-130.975
X72.568Y-80.924
X72.581Y-59.779
X72.669Y-82.88
X72.873Y-71.272
X73.355Y-81.077
X73.406Y-81.94
X73.419Y-121.107
X73.863Y-69.063
X73.914Y-84.48
X74.498Y-92.469
X74.828Y-97.104
X75.565Y-63.938
X75.565Y-66.638
X75.578Y-56.401
X75.971Y-88.494
X76.975Y-130.975
X77.887Y-88.494
X78.765Y-121.107
X78.816Y-104.623
X78.867Y-72.923
X79.019Y-76.225
X79.858Y-76.175
X79.959Y-88.29
X79.985Y-80.569
X79.997Y-70.053
X80.213Y-66.611
X80.328Y-63.995
X80.391Y-65.532
X80.449Y-79.636
X80.449Y-82.836
X80.449Y-86.036
X80.449Y-87.636
X80.449Y-89.236
X80.449Y-90.836
X80.449Y-93.236
X80.797Y-118.339
X80.848Y-70.942
X81.229Y-74.752
X81.233Y-67.091
X81.249Y-81.236
X81.249Y-82.836
X81.249Y-86.036
X81.249Y-87.636
X81.249Y-89.236
X81.249Y-90.036
X81.249Y-90.836
X81.331Y-104.724
X81.496Y-64.008
X81.547Y-65.232
X81.915Y-129.896
X82.042Y-78.943
X82.049Y-82.036
X82.049Y-85.236
X82.049Y-87.636
X82.049Y-88.436
X82.049Y-90.036
X82.049Y-90.836
X82.049Y-91.636
X82.652Y-68.936
X82.849Y-79.636
X82.849Y-86.036
X82.849Y-87.636
X82.849Y-88.436
X82.849Y-89.236
X82.849Y-90.036
X82.849Y-90.836
X82.849Y-91.636
X82.867Y-76.289
X83.287Y-93.523
X83.464Y-70.358
X83.553Y-52.171
X83.649Y-79.636
X83.649Y-84.436
X83.649Y-85.236
X83.649Y-86.036
X83.668Y-72.06
X83.972Y-122.403
X84.023Y-67.259
X84.036Y-65.977
X84.442Y-61.341
X84.449Y-79.636
X84.449Y-82.036
X84.449Y-82.836
X85.014Y-86.817
X85.192Y-66.053
X85.192Y-67.285
X85.249Y-79.636
X85.249Y-80.436
X85.249Y-82.836
X85.249Y-84.436
X85.249Y-85.236
X85.249Y-86.036
X85.249Y-87.636
X85.249Y-88.436
X85.249Y-90.036
X85.249Y-90.836
X85.249Y-91.636
X85.293Y-64.834
X85.344Y-97.206
X85.441Y-62.689
X85.776Y-89.256
X85.776Y-96.088
X86.049Y-82.836
X86.049Y-84.436
X86.049Y-85.236
X86.049Y-86.036
X86.049Y-88.436
X86.049Y-90.036
X86.049Y-90.836
X86.049Y-91.636
X86.233Y-75.006
X86.385Y-86.843
X86.436Y-78.74
X86.449Y-52.133
X86.462Y-76.378
X86.512Y-96.52
X86.538Y-64.757
X86.589Y-141.707
X86.849Y-81.236
X86.849Y-84.436
X86.849Y-85.236
X86.849Y-86.036
X86.849Y-87.636
X86.849Y-88.436
X86.849Y-90.036
X86.849Y-90.836
X86.849Y-91.636
X86.849Y-92.436
X86.849Y-93.236
X87.147Y-74.803
X87.249Y-96.164
X87.338Y-129.057
X87.376Y-68.407
X87.681Y-95.25
X87.986Y-156.362
X88.087Y-118.796
X88.214Y-70.942
X88.24Y-62.293
X88.449Y-82.836
X88.449Y-84.436
X88.449Y-85.236
X88.449Y-86.036
X88.449Y-87.636
X88.449Y-88.436
X88.449Y-90.036
X88.449Y-90.836
X88.449Y-91.636
X88.449Y-92.436
X88.449Y-93.236
X88.9Y-133.858
X88.963Y-68.744
X88.975Y-67.031
X89.129Y-95.974
X89.129Y-97.536
X89.131Y-86.614
X89.205Y-94.742
X89.249Y-80.436
X89.249Y-81.236
X89.249Y-82.036
X89.249Y-82.836
X89.249Y-84.436
X89.249Y-85.236
X89.249Y-87.636
X89.249Y-88.436
X89.249Y-90.036
X89.249Y-90.836
X89.249Y-91.636
X89.249Y-92.436
X89.332Y-65.57
X89.51Y-64.008
X89.637Y-101.295
X89.713Y-67.97
X89.9Y-88.951
X90.049Y-79.636
X90.049Y-80.436
X90.049Y-81.236
X90.049Y-82.036
X90.049Y-82.836
X90.049Y-92.436
X90.068Y-76.835
X90.091Y-86.614
X90.653Y-60.147
X90.767Y-121.285
X90.849Y-80.436
X90.849Y-82.836
X90.849Y-83.636
X90.849Y-84.436
X90.849Y-85.236
X90.849Y-88.436
X90.849Y-89.236
X90.849Y-90.036
X90.849Y-90.836
X91.388Y-114.732
X91.649Y-89.236
X91.649Y-90.036
X91.649Y-90.836
X91.649Y-91.636
X91.669Y-97.841
X91.948Y-76.784
X92.336Y-157.611
X92.449Y-81.236
X92.449Y-82.836
X92.449Y-84.436
X92.449Y-87.636
X92.449Y-88.436
X92.449Y-89.236
X92.449Y-90.036
X92.449Y-90.836
X92.449Y-91.636
X92.449Y-92.436
X92.449Y-93.236
X93.015Y-75.514
X93.249Y-79.636
X93.249Y-81.236
X93.249Y-83.636
X93.249Y-88.436
X93.249Y-89.236
X93.249Y-90.836
X93.294Y-61.722
X93.777Y-59.563
X93.98Y-100.228
X94.039Y-60.528
X94.049Y-79.636
X94.049Y-80.436
X94.049Y-83.636
X94.049Y-93.236
X94.056Y-68.25
X94.259Y-55.728
X94.539Y-74.727
X94.717Y-85.141
X94.869Y-83.414
X95.263Y-95.377
X95.707Y-80.366
X95.834Y-89.56
X96.571Y-90.932
X96.622Y-83.083
X97.003Y-89.764
X97.053Y-80.391
X97.358Y-60.274
X97.612Y-68.301
X98.095Y-125.298
X98.349Y-75.692
X98.552Y-84.43
X98.984Y-62.306
X99.085Y-77.038
X99.314Y-60.147
X99.339Y-111.252
X99.365Y-81.001
X99.466Y-79.883
X99.784Y-63.843
X100.178Y-80.848
X100.609Y-77.622
X100.736Y-114.402
X100.901Y-67.564
X101.092Y-54.381
X101.244Y-115.57
X101.607Y-157.611
X102.667Y-123.723
X103.2Y-128.93
X103.734Y-117.856
X103.911Y-119.024
X104.724Y-119.228
X104.75Y-117.691
X105.328Y-123.746
X105.328Y-126.546
X105.507Y-108.61
X106.032Y-79.413
X106.07Y-74.346
X106.736Y-77.075
X107.201Y-77.745
X107.386Y-75.413
X108.026Y-132.129
X108.026Y-135.079
X108.966Y-109.804
X109.652Y-108.458
X109.817Y-78.308
X109.957Y-86.004
X109.957Y-70.904
X109.982Y-87.642
X110.033Y-82.906
X110.198Y-76.149
X110.211Y-76.949
X110.282Y-75.336
X111.252Y-102.26
X111.329Y-125.972
X111.329Y-128.473
X111.341Y-121.234
X111.367Y-123.546
X111.392Y-117.577
X111.633Y-70.942
X111.658Y-79.223
X111.735Y-100.787
X111.836Y-86.106
X111.996Y-75.913
X112.085Y-73.767
X112.42Y-102.26
X112.537Y-77.191
X112.598Y-72.402
X112.668Y-67.052
X112.732Y-79.901
X112.847Y-75.063
X112.928Y-75.966
X113.05Y-78.518
X113.614Y-74.828
X113.665Y-102.108
X114.059Y-60.363
X114.122Y-52.019
X114.148Y-86.411
X114.148Y-101.27
X114.275Y-94.971
X115.57Y-70.409
X115.893Y-74.505
X116.078Y-79.63
X116.459Y-96.215
X116.548Y-71.958
X116.548Y-73.609
X116.548Y-75.336
X116.561Y-78.943
X116.573Y-77.089
X116.634Y-117.704
X116.713Y-81.742
X117.52Y-79.63
X118.098Y-71.958
X118.098Y-73.609
X118.098Y-75.336
X118.415Y-79.63
X118.732Y-67.716
X118.745Y-98.196
X119.024Y-107.798
X119.482Y-93.243
X119.482Y-120.154
X120.027Y-117.627
X120.117Y-107.239
X120.853Y-94.615
X121.463Y-95.352
X122.123Y-75.159
X122.123Y-110.973
X122.174Y-96.114
X122.176Y-68.001
X122.326Y-55.893
X122.428Y-71.526
X122.758Y-102.133
X123.114Y-96.114
X123.266Y-85.141
X123.388Y-78.867
X124.333Y-96.266
X124.409Y-109.576
X124.714Y-113.665
X124.739Y-89.408
X124.886Y-118.052
X124.886Y-122.052
X125.044Y-84.417
X125.095Y-82.829
X125.476Y-77.318
X125.686Y-110.852
X125.686Y-117.252
X125.686Y-118.052
X125.686Y-119.652
X125.718Y-66.967
X125.882Y-89.408
X126.047Y-87.478
X126.086Y-76.251
X126.467Y-114.859
X126.486Y-107.652
X126.486Y-108.452
X126.486Y-109.252
X126.486Y-110.852
X126.486Y-111.652
X126.486Y-112.452
X126.486Y-116.452
X126.486Y-117.252
X126.486Y-118.052
X126.486Y-118.852
X126.486Y-119.652
X126.486Y-120.452
X126.486Y-121.252
X126.682Y-70.481
X126.713Y-78.943
X126.713Y-82.855
X127.286Y-107.652
X127.286Y-108.452
X127.286Y-109.252
X127.286Y-110.052
X127.286Y-110.852
X127.286Y-111.652
X127.286Y-112.452
X127.286Y-113.252
X127.286Y-114.052
X127.286Y-115.652
X127.286Y-116.452
X127.286Y-117.252
X127.286Y-118.052
X127.286Y-118.852
X127.286Y-120.452
X127.381Y-106.324
X127.409Y-76.479
X127.635Y-94.132
X128.086Y-107.652
X128.086Y-108.452
X128.086Y-109.252
X128.086Y-110.052
X128.086Y-110.852
X128.086Y-111.652
X128.086Y-112.452
X128.086Y-113.252
X128.086Y-115.652
X128.086Y-116.452
X128.086Y-117.252
X128.086Y-118.052
X128.086Y-119.652
X128.086Y-120.452
X128.086Y-121.252
X128.194Y-102.819
X128.25Y-149.0
X128.25Y-151.5
X128.886Y-107.652
X128.886Y-108.452
X128.886Y-109.252
X128.886Y-110.052
X128.886Y-110.852
X128.886Y-111.652
X128.886Y-112.452
X128.886Y-113.252
X128.886Y-114.052
X128.886Y-115.652
X128.886Y-116.452
X128.886Y-118.052
X128.886Y-120.452
X129.261Y-100.0
X129.311Y-122.885
X129.547Y-90.085
X129.616Y-71.196
X129.616Y-72.746
X129.686Y-107.652
X129.686Y-108.452
X129.686Y-109.252
X129.686Y-110.852
X129.686Y-112.452
X129.686Y-113.252
X129.686Y-114.052
X129.686Y-115.652
X129.686Y-116.452
X129.686Y-117.252
X129.686Y-118.852
X129.686Y-119.652
X129.686Y-120.452
X129.692Y-91.415
X129.743Y-92.888
X129.972Y-165.062
X130.01Y-94.082
X130.082Y-65.189
X130.277Y-102.768
X130.429Y-167.132
X130.48Y-123.444
X130.486Y-107.652
X130.486Y-108.452
X130.486Y-109.252
X130.486Y-110.052
X130.486Y-110.852
X130.486Y-111.652
X130.486Y-112.452
X130.486Y-113.252
X130.486Y-116.452
X130.486Y-118.852
X130.486Y-121.252
X130.505Y-92.1
X130.607Y-90.526
X131.102Y-105.423
X131.115Y-93.269
X131.286Y-109.252
X131.286Y-110.052
X131.286Y-112.452
X131.286Y-114.052
X131.286Y-115.652
X131.286Y-116.452
X131.286Y-117.252
X131.286Y-118.852
X131.318Y-91.643
X131.42Y-103.937
X131.495Y-65.925
X131.648Y-88.555
X131.648Y-90.221
X131.75Y-98.552
X131.826Y-94.285
X131.902Y-103.175
X131.978Y-92.42
X132.385Y-103.886
X132.512Y-96.876
X132.588Y-100.457
X132.588Y-106.134
X132.613Y-91.643
X132.627Y-105.131
X132.886Y-108.452
X132.886Y-109.252
X132.886Y-111.652
X132.886Y-112.452
X132.886Y-116.452
X132.886Y-117.252
X132.886Y-120.452
X132.893Y-107.061
X132.918Y-90.78
X132.918Y-93.243
X132.918Y-94.285
X133.02Y-130.708
X133.225Y-66.163
X133.35Y-122.25
X133.553Y-92.38
X133.579Y-87.757
X133.612Y-73.139
X133.686Y-107.652
X133.686Y-108.452
X133.686Y-109.252
X133.686Y-110.852
X133.686Y-112.452
X133.686Y-113.252
X133.686Y-114.052
X133.686Y-115.652
X133.686Y-116.452
X133.686Y-117.252
X133.686Y-118.052
X133.686Y-120.452
X133.706Y-79.4
X133.858Y-76.39
X133.883Y-94.259
X133.909Y-77.94
X133.934Y-93.269
X134.137Y-101.206
X134.163Y-90.272
X134.163Y-99.568
X134.277Y-86.335
X134.486Y-107.652
X134.486Y-109.245
X134.486Y-112.452
X134.486Y-114.052
X134.486Y-115.652
X134.486Y-116.452
X134.486Y-117.252
X134.486Y-119.652
X134.569Y-96.926
X134.779Y-132.258
X134.779Y-133.528
X134.779Y-134.798
X134.849Y-89.083
X135.103Y-95.479
X135.255Y-82.144
X135.267Y-102.286
X135.286Y-107.652
X135.286Y-108.452
X135.286Y-112.452
X135.286Y-113.252
X135.286Y-114.052
X135.286Y-115.652
X135.286Y-117.252
X135.286Y-121.252
X135.306Y-122.098
X135.357Y-83.795
X135.687Y-86.106
X135.725Y-71.132
X136.017Y-55.537
X136.079Y-77.104
X136.086Y-109.252
X136.086Y-110.052
X136.086Y-111.652
X136.086Y-113.252
X136.086Y-114.052
X136.086Y-115.652
X136.086Y-116.452
X136.086Y-117.252
X136.086Y-118.052
X136.086Y-118.852
X136.119Y-90.373
X136.195Y-126.619
X136.22Y-92.862
X136.296Y-96.977
X136.296Y-134.849
X136.703Y-88.555
X136.817Y-102.286
X136.83Y-95.275
X136.886Y-107.652
X136.886Y-111.652
X136.886Y-120.452
X136.906Y-115.621
X136.995Y-93.497
X137.179Y-92.05
X137.287Y-122.326
X137.49Y-97.003
X137.686Y-109.252
X137.686Y-113.252
X137.719Y-90.119
X137.795Y-131.445
X138.08Y-69.819
X138.379Y-76.175
X138.43Y-72.377
X138.43Y-73.927
X138.486Y-110.852
X138.486Y-115.652
X138.486Y-119.652
X138.545Y-93.497
X139.103Y-69.825
X139.205Y-90.094
X139.286Y-108.452
X139.286Y-117.252
X139.286Y-121.252
X139.37Y-131.42
X139.83Y-75.976
X140.157Y-111.912
X140.233Y-134.772
X140.335Y-118.466
X141.199Y-121.209
X141.979Y-134.798
X142.011Y-130.988
X142.075Y-118.694
X142.469Y-75.387
X142.494Y-128.956
X142.88Y-71.679
X143.129Y-92.304
X143.231Y-86.665
X143.307Y-90.068
X143.501Y-61.849
X143.535Y-77.572
X143.637Y-115.443
X144.145Y-119.431
X144.221Y-65.519
X144.31Y-75.273
X144.729Y-98.45
X144.729Y-106.262
X144.755Y-101.651
X144.894Y-52.705
X145.942Y-82.861
X146.228Y-115.316
X147.333Y-116.573
X147.396Y-112.725
X147.625Y-111.506
X147.676Y-69.736
X148.383Y-63.471
X148.387Y-83.82
X148.615Y-112.852
X148.946Y-117.932
X149.047Y-104.292
X149.313Y-111.506
X149.498Y-74.524
X149.758Y-117.805
X149.962Y-132.258
X150.362Y-71.469
X150.8Y-109.372
X151.258Y-64.351
X151.295Y-72.911
X151.333Y-77.381
X151.346Y-78.765
X152.209Y-64.275
X152.527Y-84.557
X152.758Y-65.24
X153.556Y-55.626
X153.733Y-65.113
X153.873Y-79.418
X154.051Y-110.007
X154.258Y-65.902
X155.232Y-65.824
X155.397Y-83.02
X155.397Y-84.57
X155.626Y-52.819
X155.758Y-66.853
X155.842Y-77.483
X155.918Y-72.898
X155.956Y-74.816
X156.133Y-58.254
X156.731Y-66.84
X156.781Y-84.734
X156.87Y-76.073
X156.883Y-71.514
X157.112Y-73.406
X157.404Y-77.483
X157.429Y-67.615
X158.013Y-76.073
X158.15Y-74.838
X158.585Y-57.391
X159.28Y-62.464
X159.334Y-58.052
X159.436Y-56.396
X159.741Y-67.234
X159.918Y-81.826
X160.02Y-69.24
X161.265Y-75.514
X161.557Y-67.831
X161.595Y-85.674
X161.855Y-78.646
X162.052Y-83.464
X162.827Y-62.522
X163.411Y-79.159
X164.452Y-77.749
X165.087Y-79.134
X165.176Y-154.254
X165.786Y-52.235
X166.395Y-162.484
X166.535Y-160.414
X166.751Y-115.697
X166.827Y-144.45
X166.878Y-133.49
X166.903Y-166.091
X166.941Y-164.084
X167.0Y-165.029
X167.411Y-154.254
X167.843Y-85.674
X168.034Y-90.195
X168.059Y-134.531
X168.154Y-94.603
X168.154Y-108.192
X168.183Y-97.553
X168.196Y-111.866
X169.258Y-92.664
X169.258Y-106.266
X169.258Y-119.27
X169.469Y-154.254
X169.617Y-88.905
X169.621Y-63.837
X169.634Y-62.916
X169.669Y-122.509
X169.748Y-72.822
X169.799Y-160.071
X169.834Y-92.003
X169.834Y-95.902
X169.834Y-105.605
X169.834Y-109.491
X169.834Y-118.597
X170.015Y-124.777
X170.066Y-87.097
X170.452Y-119.704
X170.52Y-106.913
X170.609Y-93.312
X170.626Y-162.893
X170.663Y-166.091
X170.713Y-150.597
X171.005Y-120.51
X171.132Y-107.544
X171.193Y-93.959
X171.287Y-167.71
X171.323Y-70.129
X171.384Y-85.247
X171.552Y-165.837
X171.78Y-64.16
X171.793Y-141.402
X171.793Y-142.951
X171.882Y-52.908
X172.339Y-124.765
X172.376Y-64.857
X172.561Y-84.335
X172.566Y-88.905
X172.796Y-83.16
X173.126Y-163.149
X173.187Y-167.411
X173.38Y-65.507
X173.406Y-53.035
X173.558Y-147.827
X174.063Y-90.695
X174.063Y-104.411
X174.063Y-117.353
X174.065Y-66.242
X174.092Y-69.774
X174.33Y-126.497
X174.625Y-143.18
X174.689Y-128.854
X174.955Y-161.112
X175.26Y-151.994
X175.261Y-84.335
X175.261Y-86.235
X175.273Y-81.953
X175.596Y-65.964
X175.616Y-52.972
X175.793Y-68.986
X175.854Y-127.055
X175.92Y-113.386
X175.933Y-112.128
X175.971Y-97.663
X175.971Y-99.009
X176.124Y-58.826
X176.594Y-65.989
X176.784Y-56.012
X176.962Y-68.123
X177.063Y-126.365
X177.635Y-56.147
X177.914Y-147.307
X178.079Y-159.461
X178.346Y-63.284
X179.019Y-65.367
X179.527Y-58.242
X179.578Y-144.348
X179.603Y-52.73
X179.637Y-104.932
X179.637Y-112.184
X179.649Y-97.706
X179.662Y-90.454
X179.688Y-126.865
X179.713Y-119.524
X180.823Y-56.083
X180.823Y-73.889
X182.587Y-104.932
X182.587Y-112.184
X182.599Y-97.706
X182.612Y-90.454
X182.638Y-126.865
X182.663Y-119.524
X183.261Y-70.053
X183.972Y-74.651
X184.277Y-83.02
X185.652Y-84.355
X185.652Y-91.073
X187.541Y-125.374
X187.693Y-96.787
X187.716Y-107.608
X187.728Y-100.484
X187.733Y-106.132
X187.744Y-91.389
X187.744Y-98.565
X187.745Y-121.722
X187.758Y-102.232
X187.758Y-104.01
X187.758Y-112.839
X187.758Y-119.938
X187.758Y-123.538
X187.758Y-114.565
X187.758Y-109.333
X187.761Y-111.027
X187.769Y-93.231
X187.77Y-116.337
X187.77Y-118.141
X187.808Y-94.996
X187.833Y-87.922
X187.833Y-89.662
X188.134Y-81.89
X188.611Y-126.286
X189.128Y-72.746
X189.586Y-131.216
X190.119Y-92.481
X190.132Y-87.147
X190.132Y-88.938
X190.132Y-90.716
X190.132Y-94.272
X190.132Y-96.05
X190.132Y-101.371
X190.132Y-103.162
X190.132Y-104.94
X190.132Y-106.718
X190.132Y-108.483
X190.132Y-110.274
X190.132Y-112.052
X190.132Y-113.817
X190.132Y-115.595
X190.132Y-117.373
X190.132Y-119.151
X190.132Y-120.929
X190.132Y-122.72
X190.132Y-126.263
X190.145Y-97.828
X190.145Y-99.606
X190.145Y-124.498
X190.983Y-131.089
X191.137Y-81.89
X191.218Y-56.521
X191.44Y-80.62
X191.541Y-132.029
X191.782Y-104.94
X191.782Y-110.269
X191.782Y-119.151
X191.786Y-87.155
X191.786Y-88.933
X191.786Y-90.711
X191.786Y-92.489
X191.786Y-94.267
X191.786Y-96.045
X191.786Y-97.823
X191.786Y-99.601
X191.786Y-101.379
X191.786Y-103.157
X191.786Y-106.713
X191.786Y-108.491
X191.786Y-112.047
X191.786Y-113.825
X191.786Y-115.603
X191.786Y-117.381
X191.786Y-120.937
X191.786Y-122.715
X191.786Y-124.493
X191.786Y-126.271
X193.285Y-119.207
X193.292Y-117.403
X193.292Y-120.959
X193.294Y-122.745
X193.298Y-115.609
X193.298Y-124.499
X193.298Y-126.277
X193.311Y-104.928
X193.311Y-106.694
X193.311Y-112.066
X193.311Y-113.831
X193.317Y-101.389
X193.317Y-103.154
X193.323Y-96.077
X193.323Y-110.25
X193.336Y-90.704
X193.336Y-94.286
X193.336Y-99.633
X193.336Y-108.497
X193.349Y-88.939
X193.349Y-92.495
X193.349Y-97.867
X193.374Y-87.148
X194.081Y-136.654
X194.932Y-117.411
X194.932Y-119.202
X194.945Y-115.608
X194.945Y-120.955
X194.945Y-122.745
X194.957Y-104.927
X194.957Y-106.693
X194.957Y-113.83
X194.957Y-124.498
X194.957Y-126.276
X194.97Y-96.075
X194.97Y-101.384
X194.97Y-103.149
X194.97Y-110.249
X194.97Y-112.065
X194.983Y-90.703
X194.983Y-94.285
X194.983Y-99.631
X194.983Y-108.496
X194.995Y-88.938
X194.995Y-92.494
X194.995Y-97.866
X195.021Y-87.147
X195.326Y-132.359
X195.364Y-135.344
X195.656Y-134.595
X196.139Y-132.283
X196.19Y-136.017
X196.376Y-81.939
X196.379Y-78.095
X196.494Y-134.645
X197.197Y-105.476
X197.214Y-108.976
X197.239Y-103.785
X197.251Y-126.662
X197.252Y-112.806
X197.258Y-102.028
X197.267Y-114.591
X197.299Y-89.874
X197.299Y-121.546
X197.309Y-87.921
X197.319Y-125.324
X197.321Y-96.9
X197.351Y-116.535
X197.354Y-123.403
X197.366Y-118.618
X197.37Y-91.559
X197.377Y-93.323
X197.381Y-100.48
X197.394Y-98.738
X197.395Y-95.249
X197.446Y-107.577
X197.455Y-111.168
X197.548Y-120.129
X197.587Y-132.817
X198.984Y-126.227
X199.009Y-87.207
X199.009Y-92.496
X199.009Y-95.746
X199.009Y-118.886
X199.017Y-89.886
X199.022Y-94.446
X199.022Y-104.285
X199.022Y-106.974
X199.022Y-122.977
X199.034Y-101.035
X199.034Y-102.985
X199.034Y-114.336
X199.034Y-117.586
X199.047Y-124.277
X199.06Y-108.274
X199.06Y-110.224
X199.06Y-115.636
X199.063Y-97.161
X199.085Y-99.735
X199.098Y-88.507
X199.109Y-111.607
X199.109Y-121.677
X199.316Y-77.978
X200.036Y-84.207
X201.193Y-160.75
X201.392Y-112.146
X201.405Y-97.68
X201.417Y-104.932
X201.417Y-119.524
X201.43Y-90.467
X201.43Y-126.852
X202.107Y-116.865
X202.387Y-76.53
X202.413Y-131.369
X202.413Y-136.654
X203.644Y-130.302
X203.657Y-116.865
X204.342Y-112.146
X204.355Y-97.68
X204.367Y-104.932
X204.367Y-119.524
X204.38Y-90.467
X206.515Y-156.566
X206.985Y-117.653
X207.01Y-160.75
X207.086Y-98.514
X207.82Y-115.138
X207.824Y-112.162
X207.848Y-81.813
X208.115Y-134.836
X208.396Y-87.325
X208.443Y-153.899
X208.509Y-80.696
X208.737Y-127.127
X208.938Y-103.814
X209.064Y-90.327
X209.105Y-116.802
X209.356Y-87.978
X209.39Y-114.762
X209.445Y-101.389
X209.966Y-110.737
X210.074Y-104.78
X210.081Y-117.264
X210.081Y-125.603
X210.093Y-90.784
X210.106Y-96.995
X210.566Y-74.32
X210.731Y-123.927
X210.839Y-84.561
X210.858Y-89.167
X210.889Y-80.284
X210.893Y-100.119
X211.02Y-86.022
X211.034Y-117.395
X211.3Y-127.563
X211.417Y-125.603
X211.447Y-118.161
X211.566Y-100.551
X211.633Y-123.914
X211.676Y-86.815
X211.688Y-83.088
X211.688Y-89.514
X211.731Y-108.92
X211.861Y-150.927
X212.201Y-99.979
X212.23Y-112.789
X212.534Y-123.873
X212.715Y-100.914
X212.735Y-87.114
X212.735Y-94.264
X212.811Y-109.275
X212.811Y-113.423
X212.954Y-75.286
X213.167Y-127.821
X213.179Y-108.158
X213.248Y-91.102
X213.433Y-104.919
X213.636Y-82.174
X213.867Y-84.574
X213.929Y-112.133
X214.097Y-51.511
X214.106Y-118.47
X214.157Y-92.829
X214.157Y-108.425
X214.17Y-110.558
X214.284Y-120.54
X214.582Y-96.924
X214.703Y-94.035
X214.703Y-121.264
X214.741Y-105.427
X214.767Y-107.536
X214.858Y-117.37
X214.932Y-104.03
X214.983Y-110.533
X215.11Y-118.61
X215.341Y-97.371
X215.722Y-76.276
X215.786Y-150.609
X215.973Y-110.38
X215.98Y-106.892
X215.98Y-119.893
X216.062Y-93.365
X216.062Y-96.944
X216.09Y-134.849
X216.126Y-103.929
X216.312Y-81.122
X216.38Y-85.361
X216.611Y-98.146
X216.621Y-83.99
X216.913Y-110.622
X216.933Y-108.196
X216.977Y-94.632
X217.027Y-97.287
X217.04Y-119.308
X217.348Y-148.057
X217.487Y-130.2
X217.729Y-127.978
X217.751Y-126.733
X218.008Y-98.247
X218.084Y-129.591
X218.397Y-128.74
X218.694Y-153.67
X218.846Y-150.597
X219.012Y-83.022
X219.126Y-98.12
X219.253Y-51.333
X219.395Y-90.477
X221.615Y-148.895
X221.691Y-154.102
X221.712Y-90.467
X221.712Y-97.668
X221.712Y-104.945
X221.712Y-112.171
X221.75Y-119.55
X221.75Y-126.865
X222.339Y-150.597
X222.402Y-85.954
X222.44Y-131.597
X222.704Y-125.849
X223.317Y-123.253
X223.444Y-100.597
X223.698Y-115.075
X223.876Y-87.351
X224.662Y-90.467
X224.662Y-97.668
X224.675Y-104.957
X224.675Y-126.89
X224.7Y-112.209
X224.7Y-119.55
X225.069Y-128.829
X225.819Y-150.597
X226.073Y-83.858
X226.327Y-128.714
X227.406Y-156.083
X228.143Y-81.94
X228.524Y-51.511
X228.804Y-127.788
X229.21Y-137.871
X229.26Y-131.343
X229.286Y-134.696
X230.149Y-132.893
X230.505Y-134.112
X230.505Y-136.654
X231.091Y-82.042
X231.207Y-96.715
X231.217Y-87.986
X231.217Y-89.725
X231.217Y-93.218
X231.217Y-98.476
X231.217Y-103.695
X231.217Y-105.448
X231.217Y-107.201
X231.217Y-110.68
X231.217Y-124.638
X231.22Y-91.483
X231.22Y-94.975
X231.22Y-100.22
X231.22Y-101.96
X231.22Y-108.945
X231.22Y-112.438
X231.22Y-114.178
X231.22Y-115.918
X231.22Y-117.657
X231.22Y-119.397
X231.22Y-121.15
X231.22Y-122.89
X231.22Y-126.382
X231.51Y-80.635
X232.87Y-87.99
X232.87Y-89.73
X232.87Y-91.483
X232.87Y-93.223
X232.87Y-94.975
X232.87Y-96.728
X232.87Y-98.48
X232.87Y-100.22
X232.87Y-101.96
X232.87Y-103.7
X232.87Y-105.453
X232.87Y-107.205
X232.87Y-108.945
X232.87Y-110.698
X232.87Y-112.438
X232.87Y-114.178
X232.87Y-115.918
X232.87Y-117.657
X232.87Y-119.397
X232.87Y-121.15
X232.87Y-122.89
X232.87Y-124.637
X232.87Y-126.382
X234.36Y-88.016
X234.36Y-89.781
X234.36Y-91.534
X234.36Y-93.273
X234.36Y-95.013
X234.36Y-96.753
X234.36Y-98.493
X234.36Y-100.233
X234.36Y-101.973
X234.36Y-103.726
X234.36Y-105.465
X234.36Y-107.205
X234.36Y-108.958
X234.36Y-110.711
X234.36Y-112.45
X234.36Y-114.19
X234.36Y-115.943
X234.36Y-117.683
X234.36Y-119.423
X234.36Y-121.163
X234.36Y-122.903
X234.36Y-124.642
X234.36Y-126.382
X234.363Y-128.135
X235.229Y-70.891
X236.004Y-91.542
X236.004Y-95.009
X236.004Y-98.489
X236.004Y-103.721
X236.004Y-105.461
X236.004Y-112.446
X236.004Y-115.938
X236.004Y-121.158
X236.004Y-122.898
X236.004Y-126.378
X236.01Y-88.016
X236.01Y-89.781
X236.01Y-93.273
X236.01Y-96.753
X236.01Y-101.973
X236.01Y-110.711
X236.01Y-119.423
X236.01Y-124.642
X236.013Y-128.135
X236.016Y-100.241
X236.016Y-107.201
X236.016Y-108.953
X236.016Y-114.198
X236.016Y-117.678
X236.46Y-81.905
X236.777Y-78.13
X236.804Y-133.883
X236.83Y-135.407
X236.931Y-130.607
X237.058Y-139.992
X237.503Y-128.13
X237.617Y-133.693
X238.252Y-58.153
X238.29Y-90.664
X238.293Y-99.316
X238.293Y-102.783
X238.335Y-113.284
X238.335Y-121.996
X238.338Y-120.385
X238.339Y-118.643
X238.339Y-115.151
X238.339Y-125.603
X238.341Y-108.052
X238.351Y-95.959
X238.354Y-51.613
X238.354Y-106.324
X238.354Y-116.886
X238.357Y-101.173
X238.368Y-123.83
X238.38Y-88.911
X238.38Y-97.667
X238.386Y-92.442
X238.388Y-94.18
X238.404Y-104.597
X238.417Y-111.582
X238.429Y-109.838
X239.09Y-131.267
X239.293Y-70.891
X239.497Y-150.609
X239.727Y-78.13
X239.939Y-104.709
X240.005Y-100.036
X240.055Y-109.174
X240.055Y-111.774
X240.068Y-110.474
X240.106Y-87.424
X240.106Y-93.401
X240.106Y-124.927
X240.106Y-126.227
X240.124Y-88.816
X240.132Y-94.701
X240.132Y-119.013
X240.14Y-90.024
X240.144Y-107.224
X240.157Y-101.986
X240.157Y-103.276
X240.157Y-117.713
X240.157Y-122.977
X240.182Y-96.001
X240.182Y-115.763
X240.195Y-97.301
X240.195Y-114.757
X240.195Y-121.677
X242.062Y-165.811
X242.164Y-150.609
X242.311Y-105.224
X242.337Y-112.463
X242.337Y-119.651
X242.337Y-126.89
X242.375Y-90.67
X242.375Y-97.96
X242.57Y-84.366
X243.014Y-137.477
X244.348Y-156.108
X244.653Y-161.493
X244.78Y-150.609
X245.261Y-105.224
X245.287Y-126.89
X245.325Y-90.67
X245.325Y-97.96
X245.325Y-112.425
X245.325Y-119.613
X246.913Y-148.006
X246.939Y-71.272
X247.802Y-150.609
X248.818Y-65.684
X249.682Y-112.039
X249.707Y-166.319
X251.455Y-86.517
X251.612Y-77.445
X251.646Y-99.852
X251.739Y-161.646
X251.76Y-114.546
X251.904Y-120.777
X252.031Y-150.609
X252.349Y-119.621
X252.358Y-123.13
X252.463Y-118.605
X252.705Y-67.818
X252.794Y-84.305
X252.806Y-81.399
X252.844Y-126.352
X253.045Y-91.381
X253.159Y-104.691
X253.416Y-147.168
X253.489Y-127.466
X253.505Y-119.316
X253.692Y-104.043
X253.705Y-90.556
X253.743Y-118.534
X254.366Y-93.109
X254.378Y-102.697
X254.378Y-106.57
X254.378Y-117.389
X254.405Y-86.517
X254.439Y-124.766
X254.67Y-121.239
X254.962Y-117.965
X254.991Y-166.065
X255.115Y-89.971
X255.127Y-103.395
X255.143Y-51.511
X256.138Y-91.861
X256.138Y-105.348
X256.138Y-115.405
X256.181Y-94.823
X256.21Y-161.976
X256.261Y-130.48
X256.642Y-157.429
X256.769Y-143.434
X258.788Y-105.258
X258.801Y-100.279
X259.893Y-56.413
X260.553Y-104.026
X261.239Y-88.036
X261.391Y-151.409
X261.417Y-92.862
X261.455Y-85.636
X261.518Y-99.263
X262.712Y-71.895
X263.296Y-148.211
X263.881Y-86.868
X264.008Y-51.384
X264.77Y-117.399
X264.782Y-125.298
X264.96Y-114.706
X265.521Y-141.783
X266.23Y-71.882
X267.462Y-75.87
X267.487Y-73.812
X268.122Y-126.009
X268.427Y-145.313
X268.478Y-122.911
X268.681Y-103.81
X269.0Y-146.0
X269.252Y-148.844
X269.57Y-146.685
X270.18Y-112.047
X270.993Y-59.131
X271.678Y-51.968
X273.761Y-84.582
X273.837Y-163.515
X273.863Y-147.356
X274.396Y-143.205
X274.434Y-57.772
T2
X73.325Y-74.308
X83.21Y-163.068
X84.188Y-168.123
X84.328Y-145.288
X84.353Y-148.463
X84.379Y-151.638
X84.379Y-154.915
X87.775Y-157.61
X92.243Y-140.792
X92.519Y-142.913
X94.666Y-168.415
X94.945Y-157.709
X97.358Y-56.871
X103.429Y-154.891
X141.834Y-113.995
X141.859Y-116.688
X146.126Y-68.415
X148.387Y-82.27
X148.658Y-115.216
X202.0Y-58.044
X262.052Y-76.556
X262.052Y-78.334
X265.049Y-160.122
X265.532Y-145.5
X266.04Y-82.652
X266.09Y-80.696
X270.967Y-148.311
X271.043Y-143.231
X271.094Y-162.154
X271.15Y-159.156
X272.517Y-146.38
X272.72Y-157.759
X273.837Y-165.415
X273.863Y-145.456
X273.99Y-161.249
T3
X62.509Y-71.78
X65.18Y-71.78
X68.301Y-73.482
X68.301Y-77.013
X69.977Y-71.755
X70.32Y-80.518
X77.88Y-159.185
X94.475Y-164.389
X94.996Y-156.235
X97.047Y-157.611
X103.429Y-151.941
X142.888Y-69.177
X145.263Y-109.372
X148.222Y-88.087
X153.581Y-75.133
X154.61Y-104.14
X154.613Y-102.225
X154.766Y-98.349
X156.722Y-110.007
X157.019Y-98.349
X157.557Y-115.316
X159.537Y-88.087
X159.868Y-118.161
X161.265Y-160.464
X161.646Y-144.245
X166.535Y-158.902
X167.499Y-151.906
X170.51Y-145.212
X170.942Y-147.574
X171.757Y-153.873
X172.745Y-159.906
X173.647Y-146.228
X173.657Y-152.146
X175.679Y-162.446
X175.851Y-126.003
X175.92Y-149.708
X181.343Y-144.894
X181.356Y-149.758
X181.381Y-156.794
X181.407Y-161.557
X183.121Y-152.159
X184.1Y-151.18
X184.1Y-159.156
X184.15Y-147.206
X185.28Y-153.886
X186.779Y-144.907
X186.792Y-149.784
X186.792Y-156.743
X186.817Y-161.569
X188.506Y-149.492
X188.519Y-145.136
X188.519Y-147.345
X188.531Y-151.943
X188.544Y-153.848
X188.62Y-156.337
X188.646Y-159.156
X188.697Y-161.9
X190.957Y-156.324
X190.983Y-153.873
X190.983Y-161.9
X191.008Y-147.383
X191.008Y-149.581
X191.021Y-145.148
X191.021Y-152.07
X191.135Y-159.156
X193.116Y-150.444
X193.599Y-156.616
X194.005Y-131.331
X194.158Y-146.329
X194.208Y-160.782
X204.38Y-126.852
X256.032Y-67.945
X257.708Y-70.333
X266.967Y-93.32
X267.983Y-94.678
X272.377Y-64.059
X273.025Y-69.507
X273.494Y-108.471
T4
X90.033Y-145.73
X90.033Y-153.35
X92.573Y-145.73
X92.573Y-153.35
X95.113Y-145.73
X95.113Y-153.35
X97.653Y-145.73
X97.653Y-153.35
X104.127Y-64.541
X104.127Y-74.701
X109.207Y-64.541
X109.207Y-74.701
X118.46Y-59.576
X121.0Y-59.576
X123.54Y-59.576
X133.198Y-59.588
X135.738Y-59.588
X138.278Y-59.588
X185.788Y-74.508
X185.788Y-77.048
X185.788Y-79.588
X187.757Y-167.03
X190.297Y-167.03
X192.837Y-167.03
X199.92Y-147.904
X202.46Y-147.904
X204.0Y-74.508
X204.0Y-77.048
X204.0Y-79.588
X204.927Y-57.658
X204.927Y-60.198
X204.927Y-62.738
X204.927Y-67.818
X205.0Y-147.904
X210.007Y-57.658
X210.007Y-60.198
X210.007Y-62.738
X210.007Y-67.818
X214.354Y-57.658
X214.354Y-60.198
X214.354Y-62.738
X214.354Y-67.818
X219.434Y-57.658
X219.434Y-60.198
X219.434Y-62.738
X219.434Y-67.818
X224.0Y-74.508
X224.0Y-77.048
X224.0Y-79.588
X246.0Y-74.508
X246.0Y-77.048
X246.0Y-79.588
X265.92Y-137.0
X265.92Y-153.0
X268.46Y-137.0
X268.46Y-153.0
X271.0Y-137.0
X271.0Y-153.0
T6
X83.84Y-56.603
X83.84Y-58.603
X86.34Y-56.603
X86.34Y-58.603
T7
X72.847Y-61.811
X73.0Y-140.961
X73.0Y-152.302
X73.57Y-109.26
X73.57Y-111.8
X74.371Y-132.258
X76.11Y-109.26
X76.11Y-111.8
X78.65Y-109.26
X78.65Y-111.8
X80.5Y-140.961
X80.5Y-152.302
X81.19Y-109.26
X81.19Y-111.8
X83.73Y-109.26
X83.73Y-111.8
X85.0Y-132.46
X85.0Y-135.0
X86.27Y-109.26
X86.27Y-111.8
X87.54Y-132.46
X87.54Y-135.0
X88.81Y-109.26
X88.81Y-111.8
X90.08Y-132.46
X90.08Y-135.0
X91.35Y-109.26
X91.35Y-111.8
X92.62Y-132.46
X92.62Y-135.0
X93.89Y-109.26
X93.89Y-111.8
X95.16Y-132.46
X95.16Y-135.0
X96.43Y-109.26
X96.43Y-111.8
X97.7Y-132.46
X97.7Y-135.0
X100.24Y-132.46
X100.24Y-135.0
X102.78Y-132.46
X102.78Y-135.0
X103.175Y-83.261
X103.175Y-85.801
X103.175Y-88.341
X103.175Y-90.881
X103.175Y-93.421
X106.762Y-148.892
X106.762Y-164.132
X106.769Y-153.972
X106.769Y-159.052
X111.049Y-168.072
X111.481Y-141.935
X112.674Y-132.409
X112.674Y-134.949
X115.214Y-132.409
X115.214Y-134.949
X116.053Y-85.354
X116.053Y-87.894
X116.053Y-90.434
X116.053Y-92.974
X116.332Y-141.884
X116.789Y-168.097
X117.754Y-132.409
X117.754Y-134.949
X120.294Y-132.409
X120.294Y-134.949
X121.762Y-148.892
X121.762Y-153.972
X121.762Y-159.052
X121.762Y-164.132
X122.834Y-132.409
X122.834Y-134.949
X125.374Y-132.409
X125.374Y-134.949
X127.914Y-132.409
X127.914Y-134.949
X130.454Y-132.409
X130.454Y-134.949
X137.0Y-149.889
X137.0Y-154.889
X137.0Y-161.458
X137.0Y-166.458
X145.39Y-135.128
X147.93Y-135.128
X149.606Y-128.626
X150.47Y-135.128
X152.146Y-128.626
X153.0Y-149.889
X153.0Y-154.889
X153.0Y-161.458
X153.0Y-166.458
X153.01Y-135.128
X155.55Y-135.128
X158.09Y-135.128
X159.893Y-93.472
X160.477Y-112.547
X190.809Y-65.862
X193.309Y-65.862
X195.809Y-65.862
X199.949Y-158.115
X203.149Y-153.645
X210.541Y-147.904
X231.135Y-151.536
X231.135Y-163.855
X236.135Y-151.536
X236.135Y-163.855
X263.0Y-82.448
X263.0Y-90.5
X272.22Y-96.896
X272.22Y-99.436
X272.22Y-101.976
X272.22Y-104.516
X272.22Y-107.056
X272.22Y-109.596
X272.22Y-112.136
X272.22Y-114.676
X274.76Y-96.896
X274.76Y-99.436
X274.76Y-101.976
X274.76Y-104.516
X274.76Y-107.056
X274.76Y-109.596
X274.76Y-112.136
X274.76Y-114.676
T9
X74.02Y-166.051
X77.83Y-166.051
X201.084Y-166.53
X204.894Y-166.53
X212.539Y-166.53
X216.349Y-166.53
X237.469Y-62.92
X237.469Y-68.0
X264.539Y-62.92
X264.539Y-68.0
T10
X233.659Y-68.0
X241.279Y-68.0
X260.729Y-68.0
X268.349Y-68.0
T11
X79.09Y-53.743
X91.09Y-53.743
T5
X148.383Y-54.144G85X148.383Y-53.344
G05
X148.383Y-60.604G85X148.383Y-58.804
G05
X162.883Y-54.144G85X162.883Y-53.344
G05
X162.883Y-60.604G85X162.883Y-58.804
G05
X168.383Y-54.144G85X168.383Y-53.344
G05
X168.383Y-60.604G85X168.383Y-58.804
G05
X182.883Y-54.144G85X182.883Y-53.344
G05
X182.883Y-60.604G85X182.883Y-58.804
G05
T7
X102.023Y-57.095G85X102.023Y-59.195
G05
T8
X108.023Y-54.445G85X106.023Y-54.445
G05
X112.023Y-57.145G85X112.023Y-59.145
G05
T0
M30
